<?xml version="1.0" encoding="UTF-8"?>
<svg width="1200pt" height="1200pt" version="1.1" viewBox="0 0 1200 1200" xmlns="http://www.w3.org/2000/svg">
 <path d="m369.21 738.43c-5-5-11.781-7.8086-18.852-7.8086-7.0742 0-13.855 2.8125-18.852 7.8125-5 5-7.8086 11.781-7.8086 18.852 0 7.0703 2.8086 13.855 7.8086 18.855 4.9961 5 11.777 7.8086 18.852 7.8086 7.0703 0 13.852-2.8047 18.852-7.8047 4.9961-5.0078 7.8008-11.789 7.8008-18.859 0-7.0703-2.8047-13.852-7.8008-18.855zm233.41-115.78h0.003906c-5-5-11.785-7.8086-18.855-7.8047-7.0703 0-13.852 2.8086-18.852 7.8086s-7.8086 11.781-7.8086 18.855c0 7.0703 2.8086 13.852 7.8086 18.852s11.781 7.8086 18.852 7.8125c7.0703 0 13.855-2.8086 18.855-7.8086 4.9922-5.0039 7.7969-11.785 7.7969-18.855s-2.8047-13.855-7.7969-18.859zm240.88-143.79c-5-5-11.781-7.8047-18.855-7.8047-7.0703 0-13.852 2.8086-18.852 7.8086-5 5.0039-7.8086 11.785-7.8086 18.855 0 7.0703 2.8086 13.852 7.8086 18.852s11.781 7.8125 18.852 7.8125c7.0742 0 13.855-2.8086 18.855-7.8047 4.9961-5.0039 7.8047-11.789 7.8047-18.859 0-7.0703-2.8086-13.855-7.8047-18.859zm-184.62-37.922v0.003906c-5-5-11.781-7.8086-18.852-7.8086-7.0742 0.003907-13.855 2.8125-18.852 7.8125-5 5-7.8086 11.781-7.8086 18.852 0 7.0742 2.8086 13.855 7.8086 18.855 4.9961 5 11.777 7.8086 18.852 7.8086 7.0703 0.003906 13.852-2.8047 18.852-7.8047 4.9961-5.0039 7.8008-11.789 7.8008-18.859 0-7.0703-2.8047-13.852-7.8008-18.855zm-229.68 112.04v0.003906c-5-5-11.781-7.8125-18.855-7.8125-7.0703 0-13.852 2.8086-18.855 7.8086-5 5-7.8086 11.785-7.8086 18.855 0 7.0742 2.8086 13.855 7.8086 18.855 5.0039 5 11.785 7.8086 18.855 7.8086 7.0742 0 13.855-2.8086 18.855-7.8125 4.9922-5.0039 7.793-11.785 7.793-18.852s-2.8008-13.848-7.793-18.852zm-18.805-40.531c16.375 0 32.02 6.7578 43.242 18.676 11.223 11.922 17.023 27.945 16.039 44.289l70.98 25.297v-0.003906c9.293-9.8359 21.676-16.191 35.086-18l21.984-81.215c-13.031-13.254-19.105-31.844-16.418-50.238 2.6875-18.391 13.828-34.465 30.109-43.434s35.82-9.8008 52.805-2.2461c16.984 7.5508 29.453 22.621 33.695 40.719l78.371 17.016c9.2031-12.941 23.203-21.66 38.879-24.207 15.676-2.5508 31.715 1.2852 44.543 10.648l85.488-66.539-32.879-5.3047v-0.003907c-4.332-0.60937-8.2344-2.9336-10.836-6.4531-2.5977-3.5156-3.6797-7.9297-2.9922-12.25 0.6875-4.3203 3.0781-8.1836 6.6406-10.723 3.5586-2.5391 7.9922-3.5391 12.301-2.7812l68.832 11.102c4.7383 0.38672 9.0742 2.8281 11.863 6.6797 2.7852 3.8555 3.75 8.7344 2.6328 13.359l-11.09 68.773c-0.91406 5.7539-4.8281 10.586-10.27 12.672-5.4414 2.0859-11.582 1.1133-16.109-2.5547s-6.7539-9.4766-5.8398-15.23l4.6797-29.016-82.32 64.066c6.6836 16.719 5.4258 35.562-3.4219 51.242-8.8438 15.676-24.324 26.5-42.086 29.422-17.766 2.9258-35.895-2.3672-49.297-14.383-13.406-12.016-20.637-29.465-19.664-47.441l-69.227-15.023c-4.8125 13.734-14.492 25.23-27.207 32.305-12.719 7.0781-27.586 9.2461-41.793 6.0977l-18.84 69.602v-0.003906c13.629 6.1797 24.422 17.273 30.227 31.062 5.8047 13.793 6.1875 29.266 1.0781 43.332-5.1133 14.062-15.344 25.676-28.648 32.523-13.305 6.8477-28.703 8.4219-43.117 4.4062-14.414-4.0117-26.781-13.32-34.633-26.059-7.8477-12.738-10.602-27.973-7.707-42.652l-66.719-23.773c-7.4336 10.457-18.051 18.23-30.262 22.156-12.215 3.9258-25.371 3.793-37.504-0.375l-16.309 75.086v-0.003906c16.086 7.25 28.117 21.277 32.832 38.281 4.7188 17.004 1.6289 35.223-8.4219 49.723-10.055 14.5-26.035 23.777-43.613 25.324-17.574 1.5469-34.93-4.8047-47.359-17.328l-85.066 46.645h-0.003906c-5.1016 2.6562-11.223 2.4375-16.121-0.58203-4.8984-3.0195-7.8477-8.3906-7.7656-14.141 0.078125-5.7539 3.1758-11.039 8.1562-13.922l85.078-46.645v0.003906c-3.668-16.234-0.36719-33.262 9.1055-46.949 9.4727-13.684 24.246-22.77 40.73-25.051l19.945-91.824c-8.5508-11.898-12.41-26.531-10.836-41.098 1.5742-14.566 8.4727-28.039 19.371-37.828 10.898-9.793 25.031-15.215 39.68-15.227zm-12 579.77v-212.03h-98.086v212.03zm182.33 0v-284.16h-98.086v284.16zm182.33 0v-364.4h-98.086v364.4zm182.4 0 0.003906-486.37h-98.16v486.37zm-495.54-132.52h-18.742v132.52h18.742zm-182.33 0h-119.75c-23.203-0.011719-45.457-9.1953-61.914-25.555-16.453-16.355-25.773-38.555-25.926-61.758v-710.07c0.16016-23.195 9.4805-45.391 25.938-61.742 16.453-16.352 38.703-25.535 61.902-25.547h904.32c23.199 0.011719 45.449 9.1953 61.902 25.547 16.457 16.352 25.777 38.547 25.938 61.742v710.07c-0.16016 23.199-9.4805 45.391-25.938 61.742-16.453 16.352-38.703 25.535-61.902 25.547h-74.004v148.91c0 4.3398-1.7266 8.5039-4.793 11.574-3.0703 3.0664-7.2344 4.793-11.574 4.793h-677.84c-4.3398-0.007813-8.4961-1.7344-11.559-4.8047-3.0664-3.0664-4.7852-7.2266-4.7852-11.562v-148.89zm546.98 0h-18.742v132.52h18.742zm-182.33 0h-18.742v132.52h18.742zm475.04-677.17v589.86c-0.10156 14.539-5.957 28.441-16.285 38.672-10.332 10.227-24.297 15.941-38.832 15.895h-74.004v-337.46c0-4.3398-1.7266-8.5039-4.793-11.574-3.0703-3.0703-7.2344-4.793-11.574-4.793h-130.8c-4.3398 0-8.5039 1.7227-11.574 4.793-3.0703 3.0703-4.793 7.2344-4.793 11.574v337.49h-18.793v-215.52c0-4.3438-1.7227-8.5039-4.793-11.574-3.0703-3.0703-7.2344-4.793-11.574-4.793h-130.8c-4.3398 0-8.5039 1.7227-11.574 4.793-3.0703 3.0703-4.793 7.2305-4.793 11.574v215.52h-18.793v-135.28c0-4.3398-1.7227-8.5039-4.793-11.574-3.0703-3.0664-7.2344-4.793-11.574-4.793h-130.8c-4.3438-0.003906-8.5078 1.7188-11.578 4.7891-3.0703 3.0703-4.793 7.2383-4.7891 11.578v135.28h-18.793v-63.145c0-4.3398-1.7227-8.5039-4.793-11.574-3.0703-3.0703-7.2344-4.793-11.574-4.793h-130.8c-4.3477-0.011718-8.5234 1.707-11.602 4.7773-3.0781 3.0703-4.8047 7.2422-4.8008 11.59v63.145h-119.76c-14.539 0.042969-28.504-5.6758-38.836-15.906-10.332-10.234-16.184-24.141-16.281-38.684v-589.86zm-1014.6-32.723h1014.6v-87.492c-0.10156-14.535-5.9609-28.438-16.289-38.66-10.332-10.227-24.293-15.941-38.828-15.891h-904.32c-14.535-0.050782-28.496 5.6641-38.828 15.891-10.328 10.223-16.188 24.125-16.289 38.66zm332.24-82.801h-36.43c-5.8477 0-11.25 3.1211-14.176 8.1836-2.9219 5.0664-2.9219 11.305 0 16.367 2.9258 5.0664 8.3281 8.1875 14.176 8.1875h36.434c5.8477 0 11.25-3.1211 14.176-8.1875 2.9219-5.0625 2.9219-11.301 0-16.367-2.9258-5.0625-8.3281-8.1836-14.176-8.1836zm592.8 0h-513.19c-5.8477 0-11.25 3.1211-14.172 8.1836-2.9258 5.0664-2.9258 11.305 0 16.367 2.9219 5.0664 8.3242 8.1875 14.172 8.1875h513.21c5.8477 0 11.25-3.1211 14.176-8.1875 2.9219-5.0625 2.9219-11.301 0-16.367-2.9258-5.0625-8.3281-8.1836-14.176-8.1836zm-710.68 0h-36.406c-5.8477 0-11.25 3.1211-14.176 8.1836-2.9219 5.0664-2.9219 11.305 0 16.367 2.9258 5.0664 8.3281 8.1875 14.176 8.1875h36.422c5.8477 0 11.25-3.1211 14.172-8.1875 2.9258-5.0625 2.9258-11.301 0-16.367-2.9219-5.0625-8.3242-8.1836-14.172-8.1836zm-117.85 0h-36.406c-5.8477 0-11.25 3.1211-14.176 8.1836-2.9219 5.0664-2.9219 11.305 0 16.367 2.9258 5.0664 8.3281 8.1875 14.176 8.1875h36.422c5.8477 0 11.25-3.1211 14.172-8.1875 2.9258-5.0625 2.9258-11.301 0-16.367-2.9219-5.0625-8.3242-8.1836-14.172-8.1836zm64.945 210h292.8c5.8477 0 11.25-3.1211 14.176-8.1836 2.9219-5.0625 2.9219-11.305 0-16.367-2.9258-5.0664-8.3281-8.1836-14.176-8.1836h-292.8c-5.8477 0-11.25 3.1172-14.176 8.1836-2.9219 5.0625-2.9219 11.305 0 16.367 2.9258 5.0625 8.3281 8.1836 14.176 8.1836zm-81.672 0h30.18c5.8477 0 11.25-3.1211 14.176-8.1836 2.9219-5.0625 2.9219-11.305 0-16.367-2.9258-5.0664-8.3281-8.1836-14.176-8.1836h-30.168c-5.8477 0-11.25 3.1172-14.176 8.1836-2.9219 5.0625-2.9219 11.305 0 16.367 2.9258 5.0625 8.3281 8.1836 14.176 8.1836zm68.293 93.168h244.8c5.8477 0 11.25-3.1211 14.172-8.1836 2.9258-5.0625 2.9258-11.305 0-16.367-2.9219-5.0664-8.3242-8.1836-14.172-8.1836h-244.8c-5.8477 0-11.25 3.1172-14.176 8.1836-2.9258 5.0625-2.9258 11.305 0 16.367 2.9258 5.0625 8.3281 8.1836 14.176 8.1836zm-68.293 0h25.199c5.8477 0 11.254-3.1211 14.176-8.1836 2.9258-5.0625 2.9258-11.305 0-16.367-2.9219-5.0664-8.3281-8.1836-14.176-8.1836h-25.199c-5.8477 0-11.25 3.1172-14.176 8.1836-2.9219 5.0625-2.9219 11.305 0 16.367 2.9258 5.0625 8.3281 8.1836 14.176 8.1836z" fill-rule="evenodd"/>
</svg>
