<?xml version="1.0" encoding="UTF-8"?>
<svg width="1200pt" height="1200pt" version="1.1" viewBox="0 0 1200 1200" xmlns="http://www.w3.org/2000/svg">
 <path d="m1069 575.95h-18.938v-206.27c0-27.52-11.543-53.82-31.664-72.145-15.766-14.359-24.816-34.926-24.816-56.426v-41.453c7.1328-3.2539 12.121-10.41 12.121-18.746v-40.27c0.007812-11.383-9.2539-20.641-20.633-20.641h-59.098c-11.379 0-20.637 9.2578-20.637 20.637v40.27c0 7.6523 4.2383 14.27 10.441 17.832v45.145c0 20.414-8.7539 39.984-24.656 55.102-19.152 18.211-30.141 43.98-30.141 70.695v206.27h-46.266v-206.27c0-27.52-11.543-53.82-31.664-72.145-15.766-14.359-24.816-34.926-24.816-56.426v-41.453c7.1328-3.2539 12.121-10.41 12.121-18.746v-40.27c0.007812-11.383-9.2539-20.641-20.633-20.641h-59.098c-11.379 0-20.637 9.2578-20.637 20.637v40.27c0 7.6523 4.2383 14.27 10.441 17.832v45.145c0 20.414-8.7539 39.984-24.656 55.102-19.152 18.211-30.141 43.98-30.141 70.695v206.27h-46.262v-206.27c0-27.52-11.543-53.82-31.664-72.145-15.766-14.359-24.816-34.926-24.816-56.426v-41.453c7.1328-3.2539 12.121-10.41 12.121-18.746v-40.27c0-11.383-9.2578-20.641-20.637-20.641h-59.098c-11.379 0-20.637 9.2578-20.637 20.637v40.27c0 7.6523 4.2383 14.27 10.441 17.832v45.145c0 20.414-8.7539 39.984-24.656 55.102-19.152 18.211-30.141 43.98-30.141 70.695v206.27h-46.266v-206.27c0-27.52-11.543-53.82-31.664-72.145-15.766-14.359-24.816-34.926-24.816-56.426v-41.453c7.1328-3.2539 12.121-10.41 12.121-18.746v-40.27c0.003907-11.383-9.2539-20.641-20.629-20.641h-59.098c-11.379 0-20.637 9.2578-20.637 20.637v40.27c0 7.6523 4.2383 14.27 10.441 17.832v45.145c0 20.414-8.7539 39.984-24.656 55.102-19.152 18.211-30.141 43.98-30.141 70.695v206.27h-21.938c-6.6289 0-12 5.3711-12 12v83.609c0 6.6289 5.3711 12 12 12h936c6.6289 0 12-5.3711 12-12v-83.609c-0.003906-6.625-5.375-12-12.004-12zm-184.02-187.56h141.08v94.004l-141.08-0.003907zm44.359-244.39h52.371v33.547h-52.371zm-21.684 172.38c20.711-19.695 32.121-45.441 32.121-72.492v-42.34h29.805v39.562c0 28.234 11.898 55.27 32.652 74.168 13.848 12.613 22.207 30.293 23.547 49.117h-140.54c1.2695-18.418 9.0625-35.324 22.414-48.016zm-22.676 190.02h141.08v69.555l-141.08 0.003906zm-235.35-118h141.08v94.004l-141.08-0.003907zm44.359-244.39h52.371v33.547h-52.371zm-21.68 172.38c20.711-19.695 32.121-45.441 32.121-72.492v-42.34h29.805v39.562c0 28.234 11.898 55.27 32.652 74.168 13.848 12.613 22.207 30.293 23.547 49.117h-140.54c1.2695-18.418 9.0625-35.324 22.418-48.016zm-22.68 190.02h141.08v69.555l-141.08 0.003906zm-235.35-118h141.09v94.004l-141.09-0.003907zm44.359-244.39h52.371v33.547h-52.371zm-21.68 172.38c20.711-19.695 32.121-45.441 32.121-72.492v-42.34h29.805v39.562c0 28.234 11.898 55.27 32.652 74.168 13.848 12.613 22.207 30.293 23.547 49.117h-140.54c1.2695-18.418 9.0625-35.324 22.418-48.016zm-22.68 190.02h141.09v69.555l-141.09 0.003906zm-235.35-118h141.08v94.004l-141.08-0.003907zm44.355-244.39h52.371v33.547h-52.371zm-21.676 172.38c20.711-19.695 32.121-45.441 32.121-72.492v-42.34h29.805v39.562c0 28.234 11.898 55.27 32.652 74.168 13.848 12.613 22.207 30.293 23.547 49.117h-140.54c1.2695-18.418 9.0625-35.324 22.418-48.016zm-22.68 190.02h141.08v69.555l-141.08 0.003906zm878.06 153.16h-912v-59.609h912z"/>
 <path d="m1069 972.39h-45.422v-76.465c16.848-2.4609 30.207-10.074 39.699-22.906 31.043-41.984 6.1055-125.02 5.0273-128.53-1.5469-5.0391-6.1992-8.4844-11.473-8.4844h-90.57c-5.2578 0-9.8945 3.418-11.461 8.4375-1.0898 3.5156-26.438 86.602 4.4727 128.59 9.5703 13.004 23.137 20.648 40.305 22.996v76.359l-140.58 0.003907v-76.465c16.848-2.4609 30.207-10.074 39.699-22.906 31.043-41.984 6.1016-125.02 5.0195-128.53-1.5469-5.0469-6.1992-8.4844-11.473-8.4844h-90.57c-5.2578 0-9.8945 3.418-11.461 8.4375-1.0898 3.5156-26.438 86.602 4.4727 128.59 9.5742 13.004 23.141 20.648 40.312 22.996v76.359h-140.58v-76.465c16.848-2.4609 30.207-10.074 39.699-22.906 31.043-41.984 6.1055-125.02 5.0273-128.53-1.5469-5.0391-6.1992-8.4844-11.473-8.4844h-90.57c-5.2578 0-9.8945 3.418-11.461 8.4375-1.0898 3.5156-26.438 86.602 4.4727 128.59 9.5703 13.004 23.137 20.648 40.305 22.996v76.359l-140.58 0.007813v-76.465c16.848-2.4609 30.207-10.074 39.699-22.906 31.043-41.984 6.1055-125.02 5.0273-128.53-1.5469-5.0391-6.1992-8.4844-11.473-8.4844h-90.574c-5.2578 0-9.8945 3.418-11.461 8.4375-1.0898 3.5156-26.438 86.602 4.4727 128.59 9.5742 13.004 23.141 20.648 40.312 22.996v76.359l-140.58 0.003907v-76.465c16.844-2.4648 30.203-10.074 39.691-22.906 31.043-41.984 6.1055-125.02 5.0273-128.53-1.5469-5.0391-6.1992-8.4844-11.473-8.4844h-90.57c-5.2578 0-9.8945 3.418-11.461 8.4375-1.0898 3.5156-26.438 86.602 4.4727 128.59 9.5703 13.004 23.141 20.652 40.312 22.996v76.359h-140.58v-76.465c16.848-2.4609 30.207-10.074 39.699-22.906 31.043-41.984 6.1055-125.02 5.0273-128.53-1.5469-5.0391-6.1992-8.4844-11.473-8.4844h-90.57c-5.2578 0-9.8945 3.418-11.461 8.4375-1.0898 3.5156-26.438 86.602 4.4727 128.59 9.5703 13.004 23.137 20.648 40.305 22.996v76.359h-42.773c-6.6289 0-12 5.3711-12 12v83.621c0 6.6289 5.3711 12 12 12h935.1c6.6289 0 12-5.3711 12-12v-83.613c-0.003906-6.625-5.375-12-12.004-12zm-90.391-113.57c-17.473-23.711-9.707-73.395-3.2383-98.82h72.316c6.3398 25.43 13.848 75.043-3.7227 98.762-7.0391 9.5039-17.742 14.121-32.742 14.121-14.973 0-25.633-4.5977-32.613-14.062zm-164.58 0c-17.48-23.711-9.7148-73.395-3.2461-98.82h72.328c6.3594 25.395 13.883 74.949-3.7148 98.742-7.0312 9.5156-17.746 14.141-32.754 14.141-14.969 0-25.637-4.5977-32.613-14.062zm-164.59 0c-17.473-23.711-9.707-73.395-3.2383-98.82h72.316c6.3398 25.43 13.848 75.043-3.7227 98.762-7.0391 9.5039-17.742 14.121-32.742 14.121-14.969 0-25.633-4.5977-32.613-14.062zm-164.57 0c-17.48-23.711-9.7148-73.395-3.2461-98.82h72.324c6.3398 25.43 13.848 75.043-3.7227 98.762-7.0391 9.5039-17.742 14.121-32.742 14.121-14.973 0-25.637-4.5977-32.613-14.062zm-164.59 0c-17.473-23.711-9.707-73.395-3.2383-98.82h72.316c6.3398 25.43 13.848 75.043-3.7227 98.762-7.0391 9.5039-17.742 14.121-32.742 14.121-14.969 0-25.637-4.5977-32.613-14.062zm-164.58 0c-17.473-23.711-9.707-73.395-3.2383-98.82h72.316c6.3398 25.43 13.848 75.043-3.7227 98.762-7.0391 9.5039-17.742 14.121-32.742 14.121-14.973 0-25.633-4.5977-32.613-14.062zm901.29 197.18h-911.09v-59.613h911.1v59.613z"/>
</svg>
