<?xml version="1.0" encoding="UTF-8"?>
<svg width="1200pt" height="1200pt" version="1.1" viewBox="0 0 1200 1200" xmlns="http://www.w3.org/2000/svg">
 <path d="m1046.4 261.98c-16.883 0-16.883-25.668 0-25.668h66.996c7.0938 0 12.84 5.7461 12.84 12.84v66.996c0 16.883-25.668 16.883-25.668 0v-54.168zm-76.105 628.12c0 7.0938-5.7461 12.84-12.84 12.84s-12.84-5.7461-12.84-12.84c0-7.4883 5.1133-13.57 12.84-13.57 7.7266 0 12.84 6.0859 12.84 13.57zm-67.777 0c0 7.0938-5.7461 12.84-12.84 12.84s-12.84-5.7461-12.84-12.84c0-7.4883 5.1133-13.57 12.84-13.57s12.84 6.0859 12.84 13.57zm-70.992 0c0 7.0938-5.7461 12.84-12.84 12.84s-12.84-5.7461-12.84-12.84c0-7.4883 5.1133-13.57 12.84-13.57 7.7266 0 12.84 6.0859 12.84 13.57zm-68.844 0c0 7.0938-5.7461 12.84-12.84 12.84s-12.84-5.7461-12.84-12.84c0-7.4883 5.1133-13.57 12.84-13.57 7.7266 0 12.84 6.0859 12.84 13.57zm-75.301 0c0 7.0938-5.7461 12.84-12.84 12.84s-12.84-5.7461-12.84-12.84c0-7.4883 5.1133-13.57 12.84-13.57 7.7266 0 12.84 6.0859 12.84 13.57zm-77.449 0c0 7.0938-5.7461 12.84-12.84 12.84-7.7148 0-12.84-6.0859-12.84-13.57 0-7.0938 5.7461-12.84 12.84-12.84 7.7148 0 12.84 6.0859 12.84 13.57zm-67.379 0c0 7.0938-5.7461 12.84-12.84 12.84s-12.84-5.7461-12.84-12.84c0-7.4883 5.1133-13.57 12.84-13.57 7.7266 0 12.84 6.0859 12.84 13.57zm-69.527 0c0 7.0938-5.7461 12.84-12.84 12.84s-12.84-5.7461-12.84-12.84c0-7.4883 5.1133-13.57 12.84-13.57 7.7266 0 12.84 6.0859 12.84 13.57zm-72.07 0c0 7.0938-5.7461 12.84-12.84 12.84s-12.84-5.7461-12.84-12.84c0-7.4883 5.1133-13.57 12.84-13.57 7.1875 0 12.84 6.5898 12.84 13.57zm-74.219 0c0 7.0938-5.7461 12.84-12.84 12.84-7.7148 0-12.84-6.0859-12.84-13.57 0-7.0938 5.7461-12.84 12.84-12.84 7.7148 0 12.84 6.0859 12.84 13.57zm-71.676 0c0 7.0938-5.7461 12.84-12.84 12.84s-12.84-5.7461-12.84-12.84c0-7.4883 5.1133-13.57 12.84-13.57 7.7266 0 12.84 6.0859 12.84 13.57zm-8.8555-566.63h-7.9688v504.86h7.9688zm-20.797-25.668h33.637c7.0938 0 12.84 5.7461 12.84 12.84v530.53c0 7.0938-5.7461 12.84-12.84 12.84h-33.637c-7.0938 0-12.84-5.7461-12.84-12.84v-530.54c0-7.0938 5.7461-12.84 12.84-12.84zm736.43 25.668h-8.7617v504.86h8.7617zm-21.59-25.668h34.43c7.0938 0 12.84 5.7461 12.84 12.84v530.53c0 7.0938-5.7461 12.84-12.84 12.84h-34.43c-7.0938 0-12.84-5.7461-12.84-12.84v-530.54c0-7.0938 5.7461-12.84 12.84-12.84zm-45.109 25.668h-10.906v504.86h10.906l0.003907-504.86zm-23.734-25.668h36.574c7.0938 0 12.84 5.7461 12.84 12.84v530.53c0 7.0938-5.7461 12.84-12.84 12.84h-36.574c-7.0938 0-12.84-5.7461-12.84-12.84v-530.54c0-7.0938 5.7461-12.84 12.84-12.84zm-45.109 25.668h-15.203v504.86h15.203l0.003907-504.86zm-28.043-25.668h40.871c7.0938 0 12.84 5.7461 12.84 12.84v530.53c0 7.0938-5.7461 12.84-12.84 12.84h-40.871c-7.0938 0-12.84-5.7461-12.84-12.84v-530.54c0-7.0938 5.7461-12.84 12.84-12.84zm-45.109 25.668h-6.6016v504.86h6.6016l0.003906-504.86zm-19.441-25.668h32.27c7.0938 0 12.84 5.7461 12.84 12.84v530.53c0 7.0938-5.7461 12.84-12.84 12.84h-32.27c-7.0938 0-12.84-5.7461-12.84-12.84l0.003906-530.54c0-7.0938 5.7461-12.84 12.84-12.84zm-45.109 25.668h-28.117v504.86h28.117l0.003906-504.86zm-40.957-25.668h53.785c7.0938 0 12.84 5.7461 12.84 12.84v530.53c0 7.0938-5.7461 12.84-12.84 12.84h-53.785c-7.0938 0-12.84-5.7461-12.84-12.84l0.007813-530.54c0-7.0938 5.7461-12.84 12.84-12.84zm-45.109 25.668h-10.906v504.86h10.906l0.007813-504.86zm-23.734-25.668h36.574c7.0938 0 12.84 5.7461 12.84 12.84v530.53c0 7.0938-5.7461 12.84-12.84 12.84h-36.574c-7.0938 0-12.84-5.7461-12.84-12.84l0.007813-530.54c0-7.0938 5.7461-12.84 12.84-12.84zm-45.109 25.668h-7.9688v504.86h7.9688l0.007813-504.86zm-20.797-25.668h33.637c7.0938 0 12.84 5.7461 12.84 12.84v530.53c0 7.0938-5.7461 12.84-12.84 12.84h-33.637c-7.0938 0-12.84-5.7461-12.84-12.84l0.007813-530.54c0-7.0938 5.7461-12.84 12.84-12.84zm-45.109 25.668h-15.203v504.86h15.203l0.007813-504.86zm-28.043-25.668h40.871c7.0938 0 12.84 5.7461 12.84 12.84v530.53c0 7.0938-5.7461 12.84-12.84 12.84h-40.871c-7.0938 0-12.84-5.7461-12.84-12.84l0.007812-530.54c0-7.0938 5.7461-12.84 12.84-12.84zm-45.109 25.668h-13.055v504.86h13.055l0.011718-504.86zm-25.895-25.668h38.723c7.0938 0 12.84 5.7461 12.84 12.84v530.53c0 7.0938-5.7461 12.84-12.84 12.84h-38.723c-7.0938 0-12.84-5.7461-12.84-12.84l0.007813-530.54c0-7.0938 5.7461-12.84 12.84-12.84zm-45.109 25.668h-19.512v504.86h19.512l0.011719-504.86zm-32.34-25.668h45.18c7.0938 0 12.84 5.7461 12.84 12.84v530.53c0 7.0938-5.7461 12.84-12.84 12.84h-45.18c-7.0938 0-12.84-5.7461-12.84-12.84l0.007812-530.54c0-7.0938 5.7461-12.84 12.84-12.84zm763.03 25.668h-34.57v553.05h34.57l0.011718-553.05zm-47.398-25.668c-7.0938 0-12.84 5.7461-12.84 12.84v578.72c0 7.0938 5.7461 12.84 12.84 12.84h60.238c7.0938 0 12.84-5.7461 12.84-12.84l0.011719-578.73c0-7.0938-5.7461-12.84-12.84-12.84h-60.238zm-826.64 25.668h-34.57v553.05h34.57l0.007812-553.05zm-47.398-25.668h60.238c7.0938 0 12.84 5.7461 12.84 12.84v578.72c0 7.0938-5.7461 12.84-12.84 12.84h-60.238c-7.0938 0-12.84-5.7461-12.84-12.84l0.007812-578.73c0-7.0938 5.7461-12.84 12.84-12.84zm967.68 586.04c0-16.883 25.668-16.883 25.668 0v66.996c0 7.0938-5.7461 12.84-12.84 12.84h-66.996c-16.883 0-16.883-25.668 0-25.668h54.168zm-946.89 54.168c16.883 0 16.883 25.668 0 25.668h-66.996c-7.0938 0-12.84-5.7461-12.84-12.84v-66.996c0-16.883 25.668-16.883 25.668 0v54.168zm-54.168-621.85c0 16.883-25.668 16.883-25.668 0v-66.996c0-7.0938 5.7461-12.84 12.84-12.84h66.996c16.883 0 16.883 25.668 0 25.668h-54.168z" fill-rule="evenodd"/>
</svg>
