<?xml version="1.0" encoding="UTF-8"?>
<svg width="1200pt" height="1200pt" version="1.1" viewBox="0 0 1200 1200" xmlns="http://www.w3.org/2000/svg">
 <path d="m386.26 150h-142.5c-51.797 0-93.75 41.953-93.75 93.75v142.5c0 14.484 11.766 26.25 26.25 26.25h41.25c14.484 0 26.25-11.766 26.25-26.25v-142.5h142.5c14.484 0 26.25-11.766 26.25-26.25v-41.25c0-14.484-11.766-26.25-26.25-26.25z"/>
 <path d="m386.26 956.26h-142.5v-142.5c0-14.484-11.766-26.25-26.25-26.25h-41.25c-14.484 0-26.25 11.766-26.25 26.25v142.5c0 24.844 9.8906 48.703 27.469 66.281 17.578 17.578 41.438 27.469 66.281 27.469h142.5c14.484 0 26.25-11.766 26.25-26.25v-41.25c0-14.484-11.766-26.25-26.25-26.25z"/>
 <path d="m1023.7 778.13h-41.25c-14.484 0-26.25 11.766-26.25 26.25v151.87h-142.5c-14.484 0-26.25 11.766-26.25 26.25v41.25c0 14.484 11.766 26.25 26.25 26.25h142.5c24.844 0 48.703-9.8906 66.281-27.469 17.578-17.578 27.469-41.438 27.469-66.281v-151.87c0-14.484-11.766-26.25-26.25-26.25z"/>
 <path d="m956.26 150h-142.5c-14.484 0-26.25 11.766-26.25 26.25v41.25c0 14.484 11.766 26.25 26.25 26.25h142.5v142.5c0 14.484 11.766 26.25 26.25 26.25h41.25c14.484 0 26.25-11.766 26.25-26.25v-142.5c0-24.844-9.8906-48.703-27.469-66.281-17.578-17.578-41.438-27.469-66.281-27.469z"/>
 <path d="m835.22 392.44-170.44-98.438c-40.125-23.062-89.438-23.062-129.56 0l-170.53 98.438c-40.078 23.297-64.734 66.141-64.688 112.5v196.87c-0.046875 46.359 24.656 89.25 64.781 112.5l170.44 98.438c40.125 22.969 89.438 22.969 129.56 0l170.53-99.094c40.078-23.297 64.734-66.141 64.688-112.5v-196.87c-0.1875-46.125-24.844-88.734-64.781-111.84zm-253.13-17.438c11.062-6.375 24.75-6.375 35.812 0l162.74 93.75-180.66 104.72-180.66-104.25zm-170.44 357.47c-11.062-6.375-17.859-18.188-17.906-30.938v-182.16l178.13 103.12v202.5zm376.69 0-160.22 92.531v-202.78l178.13-103.12v182.44c-0.046875 12.75-6.8438 24.562-17.906 30.938z"/>
</svg>
