<?xml version="1.0" encoding="UTF-8"?>
<svg width="1200pt" height="1200pt" version="1.1" viewBox="0 0 1200 1200" xmlns="http://www.w3.org/2000/svg">
 <path d="m1029.9 127.4c-1.8281-4.5-6.2344-7.4062-11.062-7.4062h-297.1c-4.875 0-9.2344 2.9062-11.109 7.4062-1.3125 3.2344-32.812 80.062-45.328 169.64-17.016 121.78 10.312 207.42 79.078 247.69 60.141 35.203 80.344 53.109 113.86 117.38l0.046875 393.89h-127.18c-6.6094 0-12 5.3438-12 12s5.3906 12 12 12h278.39c6.6094 0 12-5.3438 12-12s-5.3906-12-12-12h-127.22v-393.84c33.516-64.266 53.719-82.219 113.86-117.38 68.766-40.219 96.094-125.9 79.078-247.69-12.516-89.625-43.969-166.45-45.328-169.69zm-299.95 16.594h280.69c7.3125 19.266 26.578 73.594 37.547 136.36h-355.78c11.016-62.766 30.281-117.09 37.547-136.36zm254.11 380.02c-58.312 34.125-82.594 54.047-113.72 109.73-31.172-55.688-55.453-75.656-113.77-109.73-71.672-41.953-79.031-135.19-67.828-219.66h363.14c11.25 84.469 3.8906 177.71-67.828 219.66z"/>
 <path d="m489.56 127.4c-1.875-4.5-6.2344-7.4062-11.109-7.4062h-297.05c-4.875 0-9.2344 2.9062-11.109 7.4062-1.3125 3.2344-32.812 80.062-45.328 169.64-17.016 121.78 10.312 207.42 79.078 247.69 60.141 35.203 80.344 53.109 113.86 117.38v393.89h-127.18c-6.6094 0-12 5.3438-12 12s5.3906 12 12 12h278.39c6.6094 0 12-5.3438 12-12s-5.3906-12-12-12h-127.22v-393.84c33.516-64.266 53.719-82.219 113.86-117.38 68.766-40.219 96.094-125.9 79.078-247.69-12.469-89.625-43.969-166.45-45.281-169.69zm-299.95 16.594h280.69c7.3125 19.266 26.578 73.594 37.547 136.36h-355.78c10.969-62.766 30.234-117.09 37.547-136.36zm254.06 380.02c-58.312 34.125-82.594 54.047-113.72 109.73-31.172-55.688-55.453-75.609-113.77-109.73-71.672-41.953-79.031-135.19-67.781-219.66h363.14c11.203 84.469 3.8438 177.71-67.875 219.66z"/>
 <path d="m250.6 323.39c-6.6094 0-12 5.3438-12 12v27.656c0 6.6562 5.3906 12 12 12s12-5.3438 12-12v-27.656c0-6.6562-5.3438-12-12-12z"/>
 <path d="m226.03 375.61h-27.656c-6.6094 0-12 5.3438-12 12s5.3906 12 12 12h27.656c6.6094 0 12-5.3438 12-12s-5.3438-12-12-12z"/>
 <path d="m250.6 400.18c-6.6094 0-12 5.3438-12 12v27.656c0 6.6562 5.3906 12 12 12s12-5.3438 12-12v-27.656c0-6.6094-5.3438-12-12-12z"/>
 <path d="m302.86 375.61h-27.656c-6.6094 0-12 5.3438-12 12s5.3906 12 12 12h27.656c6.6094 0 12-5.3438 12-12s-5.3906-12-12-12z"/>
 <path d="m391.5 375.61c-6.6094 0-12 5.3438-12 12v28.266c0 6.6562 5.3906 12 12 12s12-5.3438 12-12v-28.266c0-6.6094-5.3906-12-12-12z"/>
 <path d="m366.37 429h-28.266c-6.6094 0-12 5.3438-12 12s5.3906 12 12 12h28.266c6.6094 0 12-5.3438 12-12s-5.3438-12-12-12z"/>
 <path d="m391.5 454.08c-6.6094 0-12 5.3438-12 12v28.266c0 6.6562 5.3906 12 12 12s12-5.3438 12-12v-28.266c0-6.6562-5.3906-12-12-12z"/>
 <path d="m444.84 429h-28.266c-6.6094 0-12 5.3438-12 12s5.3906 12 12 12h28.266c6.6094 0 12-5.3438 12-12s-5.3906-12-12-12z"/>
 <path d="m799.31 323.39c-6.6094 0-12 5.3438-12 12v27.656c0 6.6562 5.3906 12 12 12s12-5.3438 12-12v-27.656c0-6.6562-5.3438-12-12-12z"/>
 <path d="m774.74 375.61h-27.656c-6.6094 0-12 5.3438-12 12s5.3906 12 12 12h27.656c6.6094 0 12-5.3438 12-12s-5.3438-12-12-12z"/>
 <path d="m799.31 400.18c-6.6094 0-12 5.3438-12 12v27.656c0 6.6562 5.3906 12 12 12s12-5.3438 12-12v-27.656c0-6.6094-5.3438-12-12-12z"/>
 <path d="m851.58 375.61h-27.656c-6.6094 0-12 5.3438-12 12s5.3906 12 12 12h27.656c6.6094 0 12-5.3438 12-12s-5.3906-12-12-12z"/>
 <path d="m940.22 375.61c-6.6094 0-12 5.3438-12 12v28.266c0 6.6562 5.3906 12 12 12s12-5.3438 12-12v-28.266c0-6.6094-5.3906-12-12-12z"/>
 <path d="m915.1 429h-28.266c-6.6094 0-12 5.3438-12 12s5.3906 12 12 12h28.266c6.6094 0 12-5.3438 12-12s-5.3438-12-12-12z"/>
 <path d="m940.22 454.08c-6.6094 0-12 5.3438-12 12v28.266c0 6.6562 5.3906 12 12 12s12-5.3438 12-12v-28.266c0-6.6562-5.3906-12-12-12z"/>
 <path d="m993.56 429h-28.266c-6.6094 0-12 5.3438-12 12s5.3906 12 12 12h28.266c6.6094 0 12-5.3438 12-12s-5.3906-12-12-12z"/>
</svg>
