<?xml version="1.0" encoding="UTF-8"?>
<svg width="1200pt" height="1200pt" version="1.1" viewBox="0 0 1200 1200" xmlns="http://www.w3.org/2000/svg">
 <path d="m672 348c6.3633 0 12.469-2.5273 16.969-7.0312 4.5039-4.5 7.0312-10.605 7.0312-16.969v-48c0-8.5742-4.5742-16.496-12-20.785-7.4258-4.2852-16.574-4.2852-24 0-7.4258 4.2891-12 12.211-12 20.785v48c0 6.3633 2.5273 12.469 7.0312 16.969 4.5 4.5039 10.605 7.0312 16.969 7.0312z"/>
 <path d="m528 348c6.3633 0 12.469-2.5273 16.969-7.0312 4.5039-4.5 7.0312-10.605 7.0312-16.969v-48c0-8.5742-4.5742-16.496-12-20.785-7.4258-4.2852-16.574-4.2852-24 0-7.4258 4.2891-12 12.211-12 20.785v48c0 6.3633 2.5273 12.469 7.0312 16.969 4.5 4.5039 10.605 7.0312 16.969 7.0312z"/>
 <path d="m300 300h48v96c0 31.824 12.645 62.348 35.148 84.852 22.504 22.504 53.027 35.148 84.852 35.148h264c31.824 0 62.348-12.645 84.852-35.148 22.504-22.504 35.148-53.027 35.148-84.852v-96h48c8.5742 0 16.496-4.5742 20.785-12 4.2852-7.4258 4.2852-16.574 0-24-4.2891-7.4258-12.211-12-20.785-12h-48c0-31.824-12.645-62.348-35.148-84.852-22.504-22.504-53.027-35.148-84.852-35.148h-108v-48c0-8.5742-4.5742-16.496-12-20.785-7.4258-4.2852-16.574-4.2852-24 0-7.4258 4.2891-12 12.211-12 20.785v48h-108c-31.824 0-62.348 12.645-84.852 35.148-22.504 22.504-35.148 53.027-35.148 84.852h-48c-8.5742 0-16.496 4.5742-20.785 12-4.2852 7.4258-4.2852 16.574 0 24 4.2891 7.4258 12.211 12 20.785 12zm96-48c0-19.094 7.5859-37.41 21.09-50.91 13.5-13.504 31.816-21.09 50.91-21.09h264c19.094 0 37.41 7.5859 50.91 21.09 13.504 13.5 21.09 31.816 21.09 50.91v144c0 19.094-7.5859 37.41-21.09 50.91-13.5 13.504-31.816 21.09-50.91 21.09h-264c-19.094 0-37.41-7.5859-50.91-21.09-13.504-13.5-21.09-31.816-21.09-50.91z"/>
 <path d="m948 684h-242.04l-89.039-88.922c-4.5-4.4688-10.582-6.9766-16.922-6.9766s-12.422 2.5078-16.922 6.9766l-89.039 88.922h-242.04c-19.094 0-37.41 7.5859-50.91 21.09-13.504 13.5-21.09 31.816-21.09 50.91v312c0 19.094 7.5859 37.41 21.09 50.91 13.5 13.504 31.816 21.09 50.91 21.09h696c19.094 0 37.41-7.5859 50.91-21.09 13.504-13.5 21.09-31.816 21.09-50.91v-312c0-19.094-7.5859-37.41-21.09-50.91-13.5-13.504-31.816-21.09-50.91-21.09zm24 384c0 6.3633-2.5273 12.469-7.0312 16.969-4.5 4.5039-10.605 7.0312-16.969 7.0312h-696c-6.3633 0-12.469-2.5273-16.969-7.0312-4.5039-4.5-7.0312-10.605-7.0312-16.969v-312c0-6.3633 2.5273-12.469 7.0312-16.969 4.5-4.5039 10.605-7.0312 16.969-7.0312h252c6.3555-0.027344 12.441-2.5742 16.922-7.0781l79.078-78.961 79.078 78.961c4.4805 4.5039 10.566 7.0508 16.922 7.0781h252c6.3633 0 12.469 2.5273 16.969 7.0312 4.5039 4.5 7.0312 10.605 7.0312 16.969z"/>
 <path d="m804 948h-408c-8.5742 0-16.496 4.5742-20.785 12-4.2852 7.4258-4.2852 16.574 0 24 4.2891 7.4258 12.211 12 20.785 12h408c8.5742 0 16.496-4.5742 20.785-12 4.2852-7.4258 4.2852-16.574 0-24-4.2891-7.4258-12.211-12-20.785-12z"/>
 <path d="m804 828h-408c-8.5742 0-16.496 4.5742-20.785 12-4.2852 7.4258-4.2852 16.574 0 24 4.2891 7.4258 12.211 12 20.785 12h408c8.5742 0 16.496-4.5742 20.785-12 4.2852-7.4258 4.2852-16.574 0-24-4.2891-7.4258-12.211-12-20.785-12z"/>
</svg>
