<?xml version="1.0" encoding="UTF-8"?>
<svg width="1200pt" height="1200pt" version="1.1" viewBox="0 0 1200 1200" xmlns="http://www.w3.org/2000/svg">
 <path d="m122.53 655.69c-3.2344 25.688-3.2344 51-0.375 75.844l79.453 28.688c5.1562 18.141 12.234 35.297 21.141 51.469l-36.469 75.938c15.609 19.922 33.469 38.062 53.531 53.859l76.312-35.859c16.078 9 33.234 16.219 51.375 21.469l27.938 79.453c25.688 3.2344 51.141 3.2344 75.844 0.375l28.688-79.453c18.141-5.1562 35.391-12.234 51.469-21.141l75.938 36.469c20.062-15.609 38.062-33.469 53.859-53.531l-35.859-76.312c9-16.078 16.219-33.234 21.469-51.375l79.453-27.938c3.2344-25.688 3.375-51 0.46875-75.844l-79.453-28.688c-5.1562-18.141-12.234-35.391-21.141-51.469l36.469-75.938c-15.609-20.062-33.469-38.062-53.531-53.859l-76.312 35.859c-16.078-9-33.234-16.219-51.234-21.469l-28.078-79.453c-25.688-3.2344-51-3.375-75.844-0.46875l-28.688 79.453c-18.141 5.1562-35.297 12.234-51.469 21.141l-75.938-36.469c-19.922 15.609-38.062 33.469-53.859 53.531l35.859 76.312c-9 16.078-16.219 33.234-21.469 51.375l-79.453 27.938zm311.76-105.94c80.156 0 145.08 64.922 145.08 145.08s-64.922 145.08-145.08 145.08-145.08-64.922-145.08-145.08 64.922-145.08 145.08-145.08z"/>
 <path d="m531 694.78c0 53.438-43.312 96.75-96.703 96.75-53.438 0-96.75-43.312-96.75-96.75 0-53.391 43.312-96.703 96.75-96.703 53.391 0 96.703 43.312 96.703 96.703"/>
 <path d="m649.55 380.16c-2.2969 17.625-2.2969 35.156-0.23438 52.078l54.609 19.688c3.4688 12.469 8.3906 24.234 14.531 35.391l-25.078 52.219c10.688 13.688 23.062 26.156 36.703 37.078l52.453-24.703c11.062 6.2344 22.922 11.156 35.297 14.766l19.219 54.609c17.625 2.2969 35.156 2.2969 52.078 0.23438l19.688-54.609c12.469-3.4688 24.375-8.3906 35.391-14.531l52.219 25.078c13.781-10.688 26.156-23.062 37.078-36.703l-24.703-52.453c6.2344-11.062 11.156-22.922 14.766-35.297l54.609-19.219c2.2969-17.625 2.2969-35.062 0.375-52.078l-54.609-19.688c-3.4688-12.469-8.3906-24.375-14.531-35.391l25.078-52.219c-10.688-13.781-23.062-26.156-36.703-37.078l-52.453 24.703c-11.062-6.2344-22.922-11.156-35.297-14.766l-19.312-54.609c-17.625-2.2969-35.062-2.2969-52.078-0.375l-19.688 54.609c-12.469 3.4688-24.234 8.3906-35.391 14.531l-52.219-25.078c-13.688 10.688-26.156 23.062-37.078 36.703l24.703 52.453c-6.2344 11.062-11.156 22.922-14.766 35.297l-54.609 19.219zm214.31-72.844c55.078 0 99.703 44.625 99.703 99.703s-44.625 99.703-99.703 99.703-99.703-44.625-99.703-99.703 44.625-99.703 99.703-99.703z"/>
 <path d="m863.86 473.53c36.703 0 66.469-29.766 66.469-66.469s-29.766-66.469-66.469-66.469-66.469 29.766-66.469 66.469 29.766 66.469 66.469 66.469z"/>
</svg>
