<?xml version="1.0" encoding="UTF-8"?>
<svg width="1200pt" height="1200pt" version="1.1" viewBox="0 0 1200 1200" xmlns="http://www.w3.org/2000/svg">
 <path d="m51.43 730.77c4.7383 0 8.5703-3.832 8.5703-8.5703v-610.77c0-14.18 11.535-25.715 25.715-25.715h1028.6c14.18 0 25.715 11.535 25.715 25.715v54.223c0 4.7383 3.832 8.5703 8.5703 8.5703 4.7383 0 8.5703-3.832 8.5703-8.5703l0.003906-54.223c0-23.641-19.23-42.859-42.859-42.859h-1028.6c-23.629 0-42.859 19.219-42.859 42.859v610.77c0 4.7344 3.8359 8.5703 8.5742 8.5703z"/>
 <path d="m85.715 942.86h337.46v105.57c-30.363 4.2266-53.898 30.094-53.898 61.594v12.84c0 4.7383 3.832 8.5703 8.5703 8.5703h444.28c4.7383 0 8.5703-3.832 8.5703-8.5703v-12.84c0-31.5-23.531-57.367-53.898-61.594l0.007812-105.57h337.47c23.629 0 42.855-19.219 42.855-42.855l0.003906-665.78c0-4.7383-3.832-8.5703-8.5703-8.5703s-8.5703 3.832-8.5703 8.5703v547.97h-1088.6c-4.7383 0-8.5703 3.832-8.5703 8.5703l-0.003906 109.24c0 23.637 19.23 42.855 42.859 42.855zm727.85 167.16v4.2695h-427.14v-4.2695c0-24.996 20.332-45.316 45.328-45.316h336.49c24.992 0 45.324 20.324 45.324 45.316zm-53.898-62.461h-319.34v-104.7h319.34zm380.33-147.55c0 14.18-11.535 25.715-25.715 25.715h-1028.6c-14.18 0-25.715-11.535-25.715-25.715v-100.66h1080z"/>
 <path d="m553.93 871.11h92.145c4.7383 0 8.5703-3.832 8.5703-8.5703 0-4.7383-3.832-8.5703-8.5703-8.5703h-92.145c-4.7383 0-8.5703 3.832-8.5703 8.5703-0.003906 4.7344 3.832 8.5703 8.5703 8.5703z"/>
 <path d="m924.37 350.22c38.98 0 70.688-31.707 70.688-70.68 0-38.988-31.707-70.699-70.688-70.699-38.973 0-70.68 31.707-70.68 70.699 0 8.2734 1.6953 16.098 4.3164 23.484l-198.4 98.906c-12.453-29.402-40.402-50.336-73.461-53.559l-0.003906-62.867c34.898-4.2891 62.109-33.777 62.109-69.816 0-38.973-31.707-70.68-70.68-70.68-38.98 0-70.688 31.707-70.688 70.68 0 36.039 27.211 65.527 62.117 69.816v62.871c-23.383 2.2773-43.984 13.449-58.539 30.309l-172.43-118.43c5.1094-9.7734 8.2773-20.711 8.2773-32.48 0-38.988-31.707-70.699-70.68-70.699-38.98 0-70.688 31.707-70.688 70.699 0 38.973 31.707 70.68 70.688 70.68 21.039 0 39.75-9.4258 52.711-24.062l172.22 118.29c-7.4375 13-12.027 27.836-12.027 43.855 0 7.4297 1.1836 14.535 2.9062 21.438l-42.629 9.7812c-9.8828-27.141-35.699-46.688-66.211-46.688-38.98 0-70.688 31.707-70.688 70.68 0 38.988 31.707 70.699 70.688 70.699 38.973 0 70.68-31.707 70.68-70.699 0-2.4883-0.48047-4.8398-0.73438-7.2617l44.66-10.25c10.504 22.289 29.93 39.285 53.699 46.812l-18.469 61.676c-3.8594-0.65625-7.7656-1.1953-11.805-1.1953-38.98 0-70.688 31.707-70.688 70.68 0 38.973 31.707 70.68 70.688 70.68 38.973 0 70.68-31.707 70.68-70.68 0-28.914-17.492-53.758-42.414-64.691l18.844-62.93c3.2695 0.36328 6.4609 0.99219 9.8242 0.99219 31.305 0 58.762-16.324 74.641-40.824l104.36 87.477c-7.2734 11.109-11.586 24.332-11.586 38.578 0 38.973 31.707 70.68 70.68 70.68 38.98 0 70.688-31.707 70.688-70.68 0-38.988-31.707-70.699-70.688-70.699-18.562 0-35.344 7.3398-47.969 19.09l-107.46-90.078c4.0039-10.117 6.375-21.062 6.375-32.586 0-6.1758-0.64453-12.203-1.8477-18.027l200.7-100.05c12.664 19.109 34.312 31.766 58.906 31.766zm-648.74-68.906c-29.523 0-53.547-24.023-53.547-53.539 0-29.531 24.023-53.555 53.547-53.555s53.539 24.023 53.539 53.555c0 29.516-24.016 53.539-53.539 53.539zm106.98 263.99c-29.523 0-53.547-24.023-53.547-53.555 0-29.516 24.023-53.539 53.547-53.539 25.332 0 46.496 17.734 52.027 41.406 0.011719 0.066406-0.011718 0.12891 0.003906 0.19531 0.042969 0.1875 0.16016 0.33203 0.21484 0.51172 0.80859 3.6914 1.293 7.4961 1.293 11.426-0.003906 29.531-24.016 53.555-53.539 53.555zm191.57 106.91c0 29.516-24.016 53.539-53.539 53.539-29.523 0-53.547-24.023-53.547-53.539s24.023-53.539 53.547-53.539c29.523 0 53.539 24.023 53.539 53.539zm241.5-94.953c29.523 0 53.547 24.023 53.547 53.555 0 29.516-24.023 53.539-53.547 53.539-29.523 0-53.539-24.023-53.539-53.539 0-29.531 24.016-53.555 53.539-53.555zm-291.65-341.57c0-29.516 24.023-53.539 53.547-53.539 29.523 0 53.539 24.023 53.539 53.539s-24.016 53.539-53.539 53.539c-29.523 0-53.547-24.023-53.547-53.539zm53.547 292.75c-39.645 0-71.895-32.262-71.895-71.902 0-39.645 32.25-71.887 71.895-71.887 39.645 0 71.895 32.242 71.895 71.887 0 39.645-32.25 71.902-71.895 71.902zm346.8-282.45c29.523 0 53.547 24.023 53.547 53.555 0 29.516-24.023 53.539-53.547 53.539-29.523 0-53.539-24.023-53.539-53.539 0-29.531 24.016-53.555 53.539-53.555z"/>
</svg>
