<?xml version="1.0" encoding="UTF-8"?>
<svg width="1200pt" height="1200pt" version="1.1" viewBox="0 0 1200 1200" xmlns="http://www.w3.org/2000/svg">
 <path d="m31.641 804.05v127.45c0 21.609 47.25 36.234 99.328 45.656v0.046875c46.594 7.9219 93.703 12.422 140.95 13.359h1.8281c6.0938 0-2.5312 0.09375 1.8281 0 47.25-0.9375 94.359-5.3906 140.95-13.359 52.125-9.4688 99.328-24.094 99.328-45.656v-127.5c-17.766 10.922-37.031 19.172-57.188 24.422-60.422 15.469-122.58 22.875-184.92 21.984-62.344 0.89062-124.5-6.5156-184.92-21.984-20.156-5.25-39.422-13.5-57.188-24.422zm0-168c17.766 10.922 37.031 19.172 57.188 24.422 60.375 15.516 122.58 22.875 184.92 21.984 62.344 0.89062 124.5-6.4688 184.87-21.984 20.203-5.25 39.469-13.5 57.234-24.422v127.22c0 13.172-24.797 26.859-64.828 38.297l-0.046875 0.046875c-57.891 14.766-117.52 21.797-177.24 20.906-59.766 0.89062-119.39-6.1406-177.28-20.906-40.031-11.438-64.828-25.125-64.828-38.297v-127.36zm578.9-426.56-33.938-0.046875v31.828c0 6.5156-4.5 12.188-10.875 13.594-13.641 3.0938-26.719 8.4375-38.625 15.844-5.5312 4.0781-13.266 3.5156-18.141-1.3594l-22.5-22.5-24 24 22.5 22.5-0.046875-0.046875c4.5938 4.6406 5.3906 11.812 1.9688 17.297-7.5 11.859-12.938 24.844-16.172 38.484-0.98438 6.8438-6.8906 11.953-13.828 11.953h-31.828v33.938h31.828v-0.046875c6.5625 0 12.188 4.5 13.594 10.875 3.0938 13.688 8.4375 26.719 15.844 38.625 4.0781 5.5781 3.5156 13.312-1.3594 18.188l-22.5 22.5 24 24 22.5-22.5c4.5938-4.6406 11.766-5.4375 17.297-1.9688 11.812 7.5 24.75 12.938 38.344 16.172 6.8906 1.0312 11.953 6.8906 11.953 13.828v31.828h33.938v-31.828c-0.046875-6.5156 4.5-12.188 10.875-13.594 6.9375-1.5469 13.781-3.75 20.391-6.4688 6.3281-2.625 12.375-5.7656 18.188-9.3281 5.5781-4.1719 13.312-3.5625 18.188 1.3594l22.594 22.453 24-24-22.5-22.5c-4.5938-4.5938-5.3906-11.812-1.9219-17.297 3.8438-6.0938 7.125-12.469 9.8906-19.078 2.625-6.2812 4.7344-12.75 6.2812-19.406 1.0312-6.8438 6.9375-11.906 13.828-11.906h31.828l0.046875-33.891h-31.875c-6.5156 0-12.141-4.5-13.594-10.875-1.5469-6.9844-3.7031-13.781-6.4688-20.391-2.625-6.3281-5.7188-12.422-9.3281-18.234-4.125-5.5312-3.5156-13.266 1.3594-18.188l22.5-22.5-24-24-22.5 22.5v0.046875c-4.5938 4.5938-11.766 5.3906-17.297 1.9219-11.812-7.5-24.844-12.938-38.438-16.125-6.8906-1.0312-11.953-6.9375-11.953-13.875v-31.875zm-213.47 167.72v27c0 4.9219 1.9688 9.6094 5.4375 13.125l0.09375 0.09375v-0.046875c3.4688 3.5156 8.2031 5.4844 13.125 5.4844h30.422c1.4531 4.7812 3.1406 9.5156 5.0625 14.062s4.0781 9.0938 6.4219 13.5l-18.328 18.188c-24.469 6-49.359 10.312-74.438 12.938-30.281 3.2812-60.703 4.875-91.125 4.8281-59.766 0.9375-119.39-6.0938-177.28-20.859-40.031-11.438-64.781-25.078-64.828-38.297v-0.09375c0-13.172 24.844-26.859 64.828-38.297 57.891-14.766 117.52-21.797 177.28-20.859 24.516 0 48.141 0.98438 70.453 2.8594 18.844 1.5469 36.562 3.7031 52.922 6.3281zm242.53-45.281v-0.046875c21.984 22.031 25.406 56.484 8.1094 82.359s-50.438 35.906-79.172 24-45.094-42.422-39-72.938c6.0469-30.516 32.859-52.5 63.938-52.5 17.297 0 33.891 6.8438 46.125 19.078zm-46.078-47.062h-0.046875c44.484 0 82.734 31.359 91.406 74.953s-14.672 87.234-55.734 104.25-88.406 2.625-113.11-34.312c-24.656-36.938-19.828-86.203 11.578-117.61 17.484-17.531 41.156-27.328 65.859-27.281zm427.22 374.02h-19.688v20.391h-0.046875c0 6.8438-4.875 12.609-11.578 13.781-8.8594 1.5-17.484 3.9844-25.781 7.3594l-0.65625 0.28125c-8.2969 3.4219-16.172 7.7344-23.531 12.891-5.5781 4.4062-13.547 3.9375-18.562-1.0781l-14.438-14.438-13.875 13.875 14.344 14.484c4.8281 4.7812 5.4844 12.375 1.5469 17.906-5.1562 7.3125-9.5625 15.188-13.078 23.484l-0.28125 0.70312h0.046875c-3.4219 8.25-5.9531 16.875-7.5469 25.734-0.84375 7.0312-6.7969 12.281-13.875 12.281h-20.391v19.688h20.438l-0.046875 0.046875c6.8438-0.046875 12.656 4.875 13.781 11.578 1.5 8.8125 3.9844 17.484 7.3594 25.781l0.28125 0.65625c3.4219 8.25 7.7344 16.172 12.844 23.484 4.4062 5.5781 3.9844 13.547-1.0781 18.609l-14.438 14.484 13.875 13.875 14.484-14.391c4.7812-4.8281 12.328-5.4844 17.859-1.5938 7.5469 5.3438 15.656 9.7969 24.188 13.359 8.2969 3.4219 16.922 5.9062 25.734 7.5 7.0312 0.84375 12.328 6.7969 12.328 13.875v20.391h19.688v-20.344c-0.046875-6.8438 4.875-12.656 11.625-13.781 8.8125-1.5 17.438-3.9844 25.734-7.3594l0.65625-0.28125c8.2969-3.4219 16.172-7.7344 23.531-12.844 5.5312-4.4062 13.547-3.9844 18.562 1.0781l14.625 14.391 13.875-13.875-14.438-14.438v-0.046875c-4.8281-4.7812-5.4375-12.328-1.5469-17.859 5.2969-7.5469 9.7969-15.656 13.312-24.188 3.4219-8.2969 5.9531-16.922 7.5-25.734 0.84375-7.0312 6.7969-12.328 13.922-12.328h20.391v-19.688h-20.391c-6.8438 0-12.656-4.9219-13.781-11.625-3.0469-17.953-10.078-35.016-20.531-49.922-4.4062-5.5781-3.9375-13.547 1.0781-18.562l14.484-14.484-13.875-13.875-14.438 14.438-0.046875-0.046875c-4.7812 4.8281-12.328 5.4844-17.859 1.5938-14.906-10.594-31.969-17.719-49.922-20.859-7.0312-0.84375-12.328-6.8438-12.328-13.922v-20.438zm31.969 115.69c19.969 19.969 23.016 51.234 7.3594 74.719-15.703 23.484-45.75 32.578-71.859 21.797-26.062-10.828-40.875-38.531-35.391-66.234 5.5312-27.656 29.812-47.625 58.031-47.625 15.703 0 30.75 6.2344 41.859 17.344zm-41.812-45.281h-0.046875c41.625 0 77.391 29.344 85.547 70.125 8.1094 40.781-13.734 81.656-52.125 97.547-38.438 15.938-82.734 2.4844-105.84-32.062-23.109-34.594-18.562-80.672 10.828-110.06 16.312-16.359 38.484-25.547 61.594-25.547zm-170.34 178.92c4.0312 2.5781 6.4219 7.0312 6.4219 11.766 0 4.7812-2.3906 9.2344-6.4219 11.766l-61.547 45h0.046875c-6.2344 4.5938-14.953 3.2344-19.5-3-4.5938-6.1875-3.2344-14.906 3-19.5l27.797-20.297-180.24 0.046875c-23.156-0.046875-41.906-18.797-41.953-41.953v-245.29c-0.09375-3.7969 1.3125-7.4531 3.9375-10.172s6.2812-4.2188 10.031-4.2188c3.7969 0 7.4062 1.5 10.031 4.2188 2.6719 2.7188 4.0781 6.375 3.9844 10.172v245.29c0 7.6875 6.2344 13.969 13.969 13.969h180.19l-27.797-20.297c-6.2344-4.5469-7.5469-13.266-3-19.5 4.5469-6.1875 13.266-7.5469 19.5-2.9531zm-28.969-562.08c-3.9844-2.5781-6.4219-7.0312-6.4219-11.812 0-4.7344 2.4375-9.1875 6.4219-11.766l61.547-45v0.046875c6.1875-4.5469 14.906-3.2344 19.453 3 4.5469 6.1875 3.2344 14.953-3 19.5l-27.797 20.297 180.32-0.046875c23.109 0.046875 41.859 18.797 41.906 41.953v245.34c0 7.7344-6.2344 14.016-13.969 14.016s-13.969-6.2812-13.969-14.016v-245.29c-0.046875-7.7344-6.2812-13.969-13.969-13.969h-180.28l27.797 20.297v-0.046875c6.2344 4.5469 7.5938 13.312 3 19.5-4.5469 6.2344-13.266 7.5469-19.453 3zm-528.79 229.22c-4.3594-4.3125-11.156-4.9688-16.219-1.5469-5.0625 3.4219-7.0312 9.9375-4.6875 15.609 2.3906 5.625 8.3906 8.8594 14.391 7.6406s10.312-6.5156 10.312-12.656c0-3.375-1.3594-6.6562-3.7969-9.0469zm-9.0469-31.688c19.406 0 36.141 13.734 39.938 32.812 3.7969 19.031-6.375 38.156-24.328 45.562-18 7.4531-38.719 1.1719-49.5-15-10.781-16.172-8.6719-37.688 5.0625-51.422 7.6406-7.6875 18-11.953 28.828-11.953zm28.781 237.61c13.781-13.734 15.891-35.297 5.0625-51.422-10.781-16.172-31.5-22.453-49.453-15-17.953 7.4062-28.125 26.484-24.375 45.562 3.7969 19.078 20.531 32.812 39.984 32.812 10.781 0 21.188-4.3125 28.781-11.953zm-28.828-16.031h0.046874c6.0938 0 11.344-4.2656 12.516-10.219 1.2188-6-1.9688-11.953-7.5938-14.344-5.5781-2.3438-12.094-0.375-15.516 4.6406-3.375 5.0625-2.7656 11.812 1.5469 16.125 2.3906 2.4375 5.625 3.7969 9.0469 3.7969zm9.0469 146.21h0.046876c4.3125 4.3594 4.9219 11.109 1.5469 16.172-3.4219 5.0625-9.9375 7.0312-15.609 4.6875-5.625-2.3906-8.8125-8.3906-7.5938-14.391 1.2188-5.9531 6.4688-10.266 12.609-10.266 3.375 0 6.6562 1.3594 9.0469 3.7969zm-9.0469-31.688h0.046874c19.406 0 36.141 13.734 39.938 32.766 3.7969 19.078-6.375 38.156-24.328 45.609-18 7.4531-38.719 1.1719-49.5-15s-8.6719-37.688 5.0625-51.469c7.6406-7.6406 18-11.953 28.828-11.906zm162.19-381.61c-22.406 4.9688-45.094 8.7188-67.969 11.156-31.266 3.4219-62.719 5.1094-94.172 5.0625-62.344 0.89062-124.55-6.4688-184.92-21.984-20.156-5.25-39.422-13.5-57.188-24.422v127.31c0 13.172 24.797 26.859 64.828 38.297 57.891 14.766 117.52 21.797 177.28 20.906 59.719 0.89063 119.3-6.1406 177.19-20.906 40.031-11.438 64.828-25.125 64.828-38.297l0.046875-76.125-16.266 16.266c-7.3125 7.2656-19.078 7.2656-26.391 0z" fill-rule="evenodd"/>
</svg>
