<?xml version="1.0" encoding="UTF-8"?>
<svg width="1200pt" height="1200pt" version="1.1" viewBox="0 0 1200 1200" xmlns="http://www.w3.org/2000/svg">
 <path d="m301.93 582h30.23v-175.93c0-73.602 30.16-140.59 78.703-189.13 48.543-48.543 115.53-78.703 189.14-78.703 73.602 0 140.57 30.16 189.11 78.703s78.703 115.53 78.703 189.13v175.93h30.23v-175.93c0-81.949-33.547-156.47-87.562-210.49-54.027-54.027-128.55-87.578-210.49-87.578-81.965 0-156.49 33.547-210.52 87.578l-0.89453 0.83594c-53.477 53.945-86.672 128.13-86.672 209.65v175.93zm-62.52 379.8h63.523c9.9336 0 18 8.0664 18 18 0 9.9336-8.0664 18-18 18h-63.523v40.223c0 14.867 6.0664 28.391 15.805 38.113 9.793 9.8086 23.316 15.875 38.184 15.875h613.18c14.867 0 28.391-6.0664 38.113-15.805 9.8086-9.793 15.875-23.316 15.875-38.184v-366.04c0-14.867-6.0664-28.391-15.805-38.113-9.793-9.8086-23.316-15.875-38.184-15.875h-613.18c-14.867 0-28.391 6.0664-38.113 15.805-9.8086 9.793-15.875 23.316-15.875 38.184v40.223h41.215c9.9336 0 18 8.0664 18 18 0 9.9336-8.0664 18-18 18h-41.215v47.195h63.523c9.9336 0 18 8.0664 18 18s-8.0664 18-18 18h-63.523v47.195h41.215c9.9336 0 18 8.0664 18 18 0 9.9336-8.0664 18-18 18h-41.215zm128.75-379.8h463.67v-175.93c0-63.668-26.121-121.64-68.16-163.67-42.039-42.039-99.992-68.16-163.66-68.16-63.68 0-121.65 26.121-163.69 68.16-42.039 42.039-68.16 100.01-68.16 163.67zm565.9 4.3359c13.719 4.4375 26.023 12.105 36.016 22.082l0.11328 0.11328c16.27 16.301 26.375 38.793 26.375 63.453v366.04c0 24.676-10.121 47.184-26.418 63.496l-0.11328 0.11328c-16.301 16.27-38.793 26.375-63.453 26.375h-613.18c-24.676 0-47.184-10.121-63.496-26.418l-0.11328-0.11328c-16.27-16.301-26.375-38.793-26.375-63.453v-366.04c0-24.676 10.121-47.184 26.418-63.496l0.11328-0.11328c9.9766-9.9648 22.281-17.617 35.984-22.055v-180.26c0-91.332 37.176-174.43 97.129-234.88l0.97656-1.0625c60.52-60.52 144.07-98.121 235.95-98.121 91.898 0 175.45 37.602 235.97 98.121 60.52 60.52 98.109 144.06 98.109 235.95v180.27zm-334.07 110.64c20.977 0 39.984 8.5195 53.719 22.254 13.734 13.734 22.254 32.754 22.254 53.73 0 12.984-3.3008 25.258-9.1133 36.027-4.293 7.9219-9.9766 15.023-16.723 20.961l8.0781 164.24c0.46875 9.8945-7.1875 18.312-17.078 18.781l-81.426 0.070312c-9.9336 0-18-8.0664-18-18l8.1484-165.09c-6.7461-5.9375-12.43-13.039-16.723-20.961-5.8125-10.773-9.1133-23.047-9.1133-36.027 0-20.977 8.5195-39.996 22.254-53.73 13.734-13.734 32.754-22.254 53.73-22.254zm28.262 47.707c-7.2148-7.2148-17.219-11.707-28.262-11.707-11.043 0-21.062 4.4922-28.277 11.707-7.2148 7.2148-11.707 17.234-11.707 28.277 0 6.918 1.7305 13.422 4.75 19.02 3.0625 5.6562 7.457 10.516 12.727 14.117 5.457 3.3008 9 9.4102 8.6758 16.227l-7.6094 154.71h42.875l-7.6094-154.71c-0.25391-6.1211 2.5938-12.23 8.0781-15.832 5.543-3.6289 10.148-8.6445 13.324-14.512 3.0195-5.5977 4.75-12.105 4.75-19.02 0-11.043-4.4922-21.062-11.707-28.277z"/>
</svg>
