<?xml version="1.0" encoding="UTF-8"?>
<svg width="1200pt" height="1200pt" version="1.1" viewBox="0 0 1200 1200" xmlns="http://www.w3.org/2000/svg">
 <path d="m117.55 878.58c12.598 21.789 40.781 31.508 79.812 31.508 65.086-0.003907 160.36-27.168 263.6-70.285 16.855 208.23 82.094 317.34 139.03 317.34 27.246 0 52.324-22.906 74.668-67.57 2.8945 0.60156 5.8906 0.92578 8.9609 0.92578 24.301 0 44.07-19.77 44.07-44.07 0-16.371-9.0781-30.516-22.359-38.109 13.984-48.145 25.199-105.54 33.242-168.7 103.41 43.23 198.88 70.473 264.06 70.469 39.016 0 67.215-9.7188 79.82-31.516 27.488-47.562-33.441-123.71-89.398-179.23-32.602-32.344-71.984-65.836-115.95-99.312 36.996-28.145 70.461-56.23 99.43-83.555 6.6094 3.957 14.242 6.3789 22.488 6.3789 24.301 0 44.07-19.77 44.07-44.07 0-9.0664-2.7617-17.496-7.4766-24.508 48.113-58.191 64.07-102.95 46.836-132.84-19.469-33.832-86.258-31.195-138.88-23.051-4.6797 0.72656-7.8867 5.1055-7.1562 9.7852 0.72656 4.6797 5.1484 7.8867 9.7852 7.1562 64.906-10.07 110.31-4.5938 121.4 14.672 12.832 22.25-3.0391 61.984-44.184 112.13-6.9922-4.668-15.375-7.4102-24.398-7.4102-24.301 0-44.07 19.762-44.07 44.062 0 9.8242 3.3438 18.82 8.8008 26.156-29.309 27.57-63.293 55.922-100.88 84.328-34.695-25.805-72.191-51.461-111.76-76.562-2.0234-46.082-5.6094-91.527-10.703-134.95 45.824-19.57 92.891-36.059 136.54-47.633 4.5703-1.2148 7.3008-5.9102 6.0859-10.488-1.2227-4.5703-5.8945-7.2734-10.488-6.0859-42.984 11.402-89.188 27.523-134.32 46.574-22.805-177.79-71.016-317.27-138.24-317.27-67.211 0-115.41 139.43-138.23 317.16-65.5-27.445-126.51-47.57-179.4-59.141-0.30078-24.043-19.895-43.527-44.008-43.527-20.371 0-37.391 13.961-42.418 32.77-40 0.25-66.477 10.598-78.395 31.297-15.301 26.469-4.6445 64.762 31.684 113.83 1.6836 2.2773 4.2695 3.4727 6.8984 3.4727 1.7656 0 3.5586-0.54297 5.0898-1.6836 3.8086-2.8125 4.6133-8.1875 1.793-11.988-30.988-41.859-41.859-75.621-30.609-95.062 10.395-18.07 38.195-22.648 62.473-22.84 2.8438 21.574 21.152 38.34 43.492 38.34 18.523 0 34.34-11.52 40.848-27.742 53 11.637 114.42 32.121 180.36 59.996-5.0938 43.426-8.6797 88.875-10.703 134.95-39.57 25.102-77.059 50.754-111.76 76.559-49.938-37.758-93.695-75.461-128.12-110.89-3.2891-3.3906-8.7305-3.4727-12.121-0.16797-3.3906 3.2969-3.4727 8.7227-0.16797 12.121 34.102 35.098 77.148 72.355 126.21 109.68-43.977 33.484-83.371 66.984-115.98 99.336-55.957 55.523-116.89 131.68-89.387 179.25zm881.48-426.72c14.848 0 26.93 12.078 26.93 26.918 0 14.848-12.078 26.93-26.93 26.93-14.848 0-26.93-12.078-26.93-26.93 0-14.84 12.078-26.918 26.93-26.918zm-150.45 148.07c-30.309 22.383-62.559 44.699-96.598 66.582 0.70312-21.957 1.1016-44.145 1.1016-66.512 0-22.172-0.41406-44.395-1.1562-66.535 34.02 21.859 66.391 44.113 96.652 66.465zm-97.336 87.281c39.492-25.074 76.879-50.738 111.56-76.52 44.945 34 85.113 68.023 118.17 100.82 71.996 71.418 103.57 129.18 86.637 158.48-24.129 41.715-150.74 27.094-326.94-47.426 5.0117-43.051 8.5898-88.5 10.57-135.36zm-284.69 11.277c18.613 11.562 37.555 22.957 56.82 34.078 19.258 11.117 38.773 21.879 58.375 32.336-36.766 18.996-72.184 35.867-105.9 50.59-4.293-37.703-7.3711-76.809-9.293-117zm244 347.94c0 14.848-12.078 26.93-26.93 26.93-14.848 0-26.93-12.078-26.93-26.93 0-14.84 12.078-26.918 26.93-26.918 14.852 0 26.93 12.078 26.93 26.918zm-21.496-43.512c-1.8008-0.22656-3.5703-0.55078-5.4297-0.55078-24.301 0-44.07 19.762-44.07 44.062 0 15.133 7.6797 28.5 19.332 36.438-18.816 37.27-39.078 57.137-58.895 57.137-41.441 0-106.34-95.465-122.44-307.14 40.219-17.324 81.453-37.035 122.44-58.363 40.906 21.281 82.047 40.957 122.19 58.254-7.918 63.832-19.113 121.75-33.125 170.16zm35.168-187.4c-33.738-14.727-69.184-31.605-105.97-50.617 19.602-10.457 39.121-21.215 58.375-32.336 19.375-11.195 38.273-22.664 56.918-34.234-1.9453 40.441-5.0781 79.723-9.3203 117.19zm9.4219-313.83c-18.656-11.57-37.59-23.039-57.02-34.254-19.391-11.195-38.77-21.918-58.078-32.266 35.91-18.512 71.312-35.418 105.96-50.484 4.1133 36.555 7.2109 75.668 9.1406 117zm-133.65-441.68c48.18 0 98.824 116.97 122.39 306.85-39.91 17.215-80.867 36.945-122.4 58.676-41.648-21.766-82.68-41.406-122.38-58.547 23.555-189.95 74.207-306.98 122.4-306.98zm-124.51 324.75c34.477 15.016 69.926 31.891 105.96 50.453-19.266 10.332-38.617 21.004-58.07 32.223-19.434 11.215-38.363 22.684-57.02 34.254 1.9297-41.309 5.0273-80.395 9.1328-116.93zm-9.9922 137.73c21.652-13.602 43.691-27.078 66.445-40.207 22.844-13.172 45.512-25.5 68.074-37.43 22.605 11.945 45.293 24.289 68.051 37.43 22.754 13.133 44.801 26.609 66.453 40.211 0.90625 25.102 1.4297 50.906 1.4297 77.512 0 26.133-0.53906 52.008-1.5 77.531-21.648 13.605-43.691 27.078-66.383 40.184-23.113 13.344-45.793 25.836-68.055 37.633-22.262-11.797-44.945-24.285-68.059-37.633-22.543-13.012-44.66-26.387-66.273-39.98-0.95703-25.574-1.6172-51.406-1.6172-77.734 0-26.605 0.52344-52.41 1.4336-77.516zm-227.12-194.13c-14.848 0-26.93-12.078-26.93-26.93 0-14.848 12.078-26.93 26.93-26.93 14.84 0 26.918 12.078 26.918 26.93s-12.078 26.93-26.918 26.93zm209.71 205.11c-0.74219 22.141-1.1562 44.363-1.1562 66.535 0 22.449 0.43359 44.578 1.1211 66.5-33.898-21.824-66.348-44.145-96.656-66.539 30.273-22.363 62.656-44.625 96.691-66.496zm-110.93 77.266c34.789 25.867 72.355 51.668 111.79 76.723 1.9492 46.547 5.3477 91.797 10.418 135.11-176.21 74.527-302.83 89.156-326.95 47.434-16.941-29.305 14.633-87.07 86.625-158.49 33.047-32.781 73.199-66.793 118.12-100.78z"/>
 <path d="m600 669.72c41.09 0 74.516-33.434 74.516-74.523 0-41.09-33.422-74.516-74.516-74.516-41.09 0-74.523 33.422-74.523 74.516 0 41.09 33.43 74.523 74.523 74.523zm0-131.89c31.633 0 57.371 25.738 57.371 57.371 0 31.641-25.738 57.379-57.371 57.379-31.641 0-57.379-25.738-57.379-57.379-0.003906-31.633 25.738-57.371 57.379-57.371z"/>
</svg>
