<?xml version="1.0" encoding="UTF-8"?>
<svg width="1200pt" height="1200pt" version="1.1" viewBox="0 0 1200 1200" xmlns="http://www.w3.org/2000/svg">
 <path d="m407.07 358.36h385.84c10.645 0 20.367 4.3789 27.41 11.395 7.0742 7.1016 11.453 16.824 11.453 27.469v67.168c0 10.672-4.3789 20.367-11.395 27.41-7.1016 7.0742-16.824 11.453-27.469 11.453h-7v16.781h7c10.645 0 20.367 4.3789 27.41 11.395 7.0742 7.0156 11.453 16.766 11.453 27.453v21.586h62.109c32.91 0 62.887-13.352 84.742-34.852l0.625-0.66797c21.898-21.898 35.52-52.129 35.52-85.336 0-21.316-5.5859-41.371-15.32-58.75-10.062-17.945-24.605-33.137-41.996-43.965-4.3516-2.4375-6.8867-7.4844-5.9258-12.656 1.3906-7.3008 2.4531-14.684 3.1445-22.055 0.66797-7 1.0078-14.457 1.0078-22.281 0-64.871-26.305-123.62-68.797-166.11-42.504-42.504-101.25-68.812-166.11-68.812-44.66 0-86.387 12.414-121.82 33.93-36.652 22.266-66.801 54.398-86.727 92.723-2.9766 5.625-9.8945 8.0234-15.703 5.3008-11.566-5.3984-23.797-9.6094-36.512-12.43-12.203-2.6914-25.102-4.125-38.508-4.125-47.227 0-90.141 18.426-121.82 48.43l-0.66797 0.67969c-31.961 30.57-52.527 72.992-54.598 120.16-0.15625 3.6719-2 7.2266-5.2852 9.4258-16.527 11.055-30.23 26.137-39.699 43.754-9.0586 16.895-14.215 36.242-14.215 56.777 0 33.207 13.621 63.441 35.52 85.336 21.883 21.91 52.129 35.52 85.367 35.52h62.109v-21.586c0-10.688 4.3789-20.438 11.395-27.453l0.89453-0.80859c6.9727-6.5469 16.344-10.586 26.574-10.586h5.6562v-16.781h-5.6562c-10.672 0-20.367-4.3789-27.41-11.395-7.0742-7.1016-11.453-16.797-11.453-27.469v-67.168c0-10.645 4.3789-20.367 11.395-27.41 7.1016-7.0742 16.797-11.453 27.469-11.453zm313.7-228.02c-6.6172 0-12.004-5.3867-12.004-12.004 0-6.6172 5.3867-12.004 12.004-12.004 53.418 0 101.81 21.684 136.83 56.695 35.066 35.008 56.75 83.438 56.75 136.89 0 6.6172-5.3867 12.004-12.004 12.004-6.6172 0-12.004-5.3867-12.004-12.004 0-46.828-18.992-89.234-49.664-119.91-30.656-30.684-73.062-49.664-119.91-49.664zm-547.54 719.21c14.512 0 27.668 5.8945 37.176 15.406 6.8047 6.8047 11.766 15.477 14.031 25.172h241.89v-63.523h-59.258c-10.672 0-20.367-4.3789-27.41-11.395-7.0742-7.1016-11.453-16.797-11.453-27.469v-67.18c0-10.688 4.3789-20.438 11.395-27.453l0.89453-0.80859c6.9727-6.5469 16.344-10.586 26.574-10.586h5.6562v-16.797h-5.6562c-10.672 0-20.367-4.3789-27.41-11.395-7.0742-7.0156-11.453-16.766-11.453-27.453v-21.586h-62.109c-39.812 0-76.039-16.312-102.29-42.547-26.293-26.234-42.605-62.461-42.605-102.32 0-24.504 6.2227-47.707 17.137-68.074 10.348-19.316 24.961-36.027 42.535-48.883 3.7578-51.18 26.715-97.102 61.641-130.51l0.78125-0.67969c36.059-34.129 84.742-55.09 138.2-55.09 14.812 0 29.453 1.6719 43.668 4.8047 10.715 2.3672 21.133 5.6133 31.125 9.625 21.797-37.816 52.953-69.633 90.297-92.324 39.176-23.781 85.141-37.504 134.18-37.504 71.504 0 136.25 29 183.09 75.84 46.844 46.844 75.828 111.6 75.828 183.09 0 7.9375-0.41016 16.113-1.2031 24.52-0.51172 5.5273-1.2031 10.984-2.0547 16.344 18.027 12.586 33.125 29.168 43.91 48.387 11.723 20.906 18.441 44.957 18.441 70.457 0 39.855-16.312 76.082-42.547 102.32l-0.78125 0.70703c-26.18 25.824-62.109 41.84-101.57 41.84h-62.109v21.586c0 10.688-4.3789 20.438-11.395 27.453l-0.89453 0.80859c-6.9727 6.5469-16.328 10.586-26.574 10.586h-7v16.797h7c10.645 0 20.367 4.3789 27.41 11.395 7.0742 7.0156 11.453 16.766 11.453 27.453v67.18c0 10.672-4.3789 20.367-11.395 27.41-7.1016 7.0742-16.824 11.453-27.469 11.453h-59.258v63.523h241.91c2.2695-9.6953 7.2266-18.367 14.031-25.172 9.5117-9.5117 22.664-15.406 37.176-15.406 14.512 0 27.668 5.8945 37.176 15.406 9.5117 9.5117 15.406 22.664 15.406 37.176 0 14.527-5.8945 27.668-15.406 37.176l-0.82031 0.75c-9.4688 9.0703-22.293 14.656-36.355 14.656-14.512 0-27.668-5.8945-37.176-15.406-6.8047-6.8047-11.766-15.477-14.031-25.172h-253.91c-6.6172 0-12.004-5.3867-12.004-12.004v-75.531h-36.34v130.05h100.36c6.6172 0 12.004 5.3867 12.004 12.004v86.586c9.6953 2.2695 18.367 7.2266 25.172 14.031 9.5117 9.5117 15.406 22.664 15.406 37.176 0 14.527-5.8945 27.668-15.406 37.176l-0.82031 0.75c-9.4688 9.0703-22.293 14.656-36.355 14.656-14.512 0-27.668-5.8945-37.176-15.406-9.5117-9.5117-15.391-22.676-15.391-37.176s5.8828-27.668 15.391-37.176c6.8047-6.8047 15.477-11.766 25.172-14.031v-74.582h-100.36c-6.6172 0-12.004-5.3867-12.004-12.004v-142.06h-37.289v228.66c9.6953 2.2695 18.355 7.2148 25.156 14.016 9.5117 9.5117 15.406 22.664 15.406 37.176 0 14.527-5.8945 27.668-15.406 37.176l-0.82031 0.75c-9.4688 9.0703-22.293 14.656-36.355 14.656-14.512 0-27.668-5.8945-37.176-15.406-9.5117-9.5117-15.391-22.676-15.391-37.176s5.8828-27.668 15.391-37.176c6.8047-6.8047 15.477-11.766 25.188-14.031v-228.64h-37.305v142.06c0 6.6172-5.3867 12.004-12.004 12.004h-100.36v74.582c9.707 2.2695 18.383 7.2266 25.188 14.031 9.5117 9.5117 15.391 22.676 15.391 37.176s-5.8828 27.668-15.391 37.176c-9.5117 9.5117-22.664 15.406-37.176 15.406-14.473 0-27.582-5.8828-37.121-15.406-9.582-9.625-15.465-22.719-15.465-37.176s5.8945-27.609 15.434-37.148c6.7891-6.8164 15.434-11.793 25.129-14.059v-86.586c0-6.6172 5.3867-12.004 12.004-12.004h100.36v-130.05h-36.34v75.531c0 6.6172-5.3867 12.004-12.004 12.004h-253.9c-2.2695 9.707-7.2266 18.367-14.031 25.172l-0.82031 0.75c-9.4688 9.0703-22.293 14.656-36.355 14.656-14.473 0-27.582-5.8828-37.121-15.406-9.582-9.625-15.465-22.719-15.465-37.176s5.8945-27.609 15.434-37.148c9.4805-9.5391 22.621-15.434 37.148-15.434zm20.195 32.387c-5.1602-5.1602-12.316-8.375-20.195-8.375-7.8789 0-15.039 3.2188-20.195 8.375-5.1875 5.1172-8.375 12.273-8.375 20.195 0 7.9219 3.1875 15.082 8.3203 20.195 5.1719 5.1875 12.332 8.375 20.254 8.375 7.6406 0 14.555-2.9609 19.629-7.7656l0.56641-0.60938c5.3711-5.3711 8.375-12.602 8.375-20.195 0-7.5977-3.0039-14.824-8.375-20.195zm853.55 0c-5.1602-5.1602-12.316-8.375-20.195-8.375s-15.039 3.2188-20.195 8.375c-5.3711 5.3711-8.375 12.602-8.375 20.195 0 7.5977 3.0039 14.824 8.375 20.195 5.1602 5.1602 12.316 8.375 20.195 8.375 7.6406 0 14.555-2.9609 19.629-7.7656l0.56641-0.60938c5.1602-5.1602 8.375-12.316 8.375-20.195 0-7.8789-3.2188-15.039-8.375-20.195zm-253.11 204.32c-5.3711-5.3711-12.602-8.375-20.195-8.375-7.5977 0-14.824 3.0039-20.195 8.375-5.1602 5.1602-8.3633 12.316-8.3633 20.195 0 7.8789 3.2031 15.039 8.3633 20.195 5.1602 5.1602 12.316 8.375 20.195 8.375 7.6406 0 14.555-2.9609 19.629-7.7656l0.56641-0.60938c5.1602-5.1602 8.375-12.316 8.375-20.195 0-7.8789-3.2188-15.039-8.375-20.195zm-173.68 0c-5.3594-5.3594-12.602-8.375-20.184-8.375-7.6094 0-14.84 3.0039-20.211 8.375-5.1602 5.1602-8.3633 12.316-8.3633 20.195 0 7.8789 3.2031 15.039 8.3633 20.195 5.1602 5.1602 12.316 8.375 20.195 8.375 7.6406 0 14.555-2.9609 19.629-7.7656l0.56641-0.60938c5.1602-5.1602 8.375-12.316 8.375-20.195 0-7.8789-3.2188-15.039-8.375-20.195zm-173.65 0c-5.3711-5.3711-12.602-8.375-20.211-8.375-7.582 0-14.824 3.0195-20.184 8.375-5.1875 5.1172-8.375 12.273-8.375 20.195s3.1875 15.082 8.3203 20.195c5.1719 5.1875 12.332 8.375 20.254 8.375 7.8789 0 15.039-3.2188 20.195-8.375 5.1602-5.1602 8.3633-12.316 8.3633-20.195 0-7.8789-3.2031-15.039-8.3633-20.195zm346.38-283.66c4.0977 0 7.8359-1.6719 10.516-4.3359 2.6641-2.6914 4.3359-6.4219 4.3359-10.516v-67.18c0-4.0664-1.6875-7.7969-4.3672-10.473-2.6523-2.6914-6.3906-4.3672-10.488-4.3672h-385.84c-3.8398 0-7.3711 1.4727-10.02 3.8711l-0.46875 0.49609c-2.6797 2.6797-4.3672 6.4062-4.3672 10.473v67.18c0 4.0977 1.6719 7.8242 4.3359 10.516 2.6914 2.6641 6.4219 4.3359 10.516 4.3359h385.84zm-135.4-60.449c6.6172 0 12.004 5.3867 12.004 12.004 0 6.6172-5.3867 12.004-12.004 12.004h-112.1c-6.6172 0-12.004-5.3867-12.004-12.004 0-6.6172 5.3867-12.004 12.004-12.004zm55.898 0c6.6172 0 12.004 5.3867 12.004 12.004 0 6.6172-5.3867 12.004-12.004 12.004h-15.082c-6.6172 0-12.004-5.3867-12.004-12.004 0-6.6172 5.3867-12.004 12.004-12.004zm55.914 0c6.6172 0 12.004 5.3867 12.004 12.004 0 6.6172-5.3867 12.004-12.004 12.004h-15.094c-6.6172 0-12.004-5.3867-12.004-12.004 0-6.6172 5.3867-12.004 12.004-12.004zm-111.81-161.68c6.6172 0 12.004 5.3867 12.004 12.004 0 6.6172-5.3867 12.004-12.004 12.004h-112.1c-6.6172 0-12.004-5.3867-12.004-12.004 0-6.6172 5.3867-12.004 12.004-12.004zm55.898 0c6.6172 0 12.004 5.3867 12.004 12.004 0 6.6172-5.3867 12.004-12.004 12.004h-15.082c-6.6172 0-12.004-5.3867-12.004-12.004 0-6.6172 5.3867-12.004 12.004-12.004zm55.914 0c6.6172 0 12.004 5.3867 12.004 12.004 0 6.6172-5.3867 12.004-12.004 12.004h-15.094c-6.6172 0-12.004-5.3867-12.004-12.004 0-6.6172 5.3867-12.004 12.004-12.004zm-111.81-161.68c6.6172 0 12.004 5.3867 12.004 12.004 0 6.6172-5.3867 12.004-12.004 12.004h-112.1c-6.6172 0-12.004-5.3867-12.004-12.004 0-6.6172 5.3867-12.004 12.004-12.004zm55.898 0c6.6172 0 12.004 5.3867 12.004 12.004 0 6.6172-5.3867 12.004-12.004 12.004h-15.082c-6.6172 0-12.004-5.3867-12.004-12.004 0-6.6172 5.3867-12.004 12.004-12.004zm55.914 0c6.6172 0 12.004 5.3867 12.004 12.004 0 6.6172-5.3867 12.004-12.004 12.004h-15.094c-6.6172 0-12.004-5.3867-12.004-12.004 0-6.6172 5.3867-12.004 12.004-12.004zm-7.4258 246.12h-112.03v16.781h112.03zm-136.04 0h-53.078v16.797h53.078zm136.04-161.66h-112.03v16.766h112.03zm-136.04 0h-53.078v16.781h53.078zm167.05-24.008c4.0977 0 7.8359-1.6719 10.516-4.3359 2.6641-2.6914 4.3359-6.4219 4.3359-10.516v-67.168c0-4.0977-1.6719-7.8359-4.3359-10.516-2.6797-2.6641-6.4219-4.3359-10.516-4.3359h-385.84c-4.0977 0-7.8242 1.6719-10.516 4.3359-2.6641 2.6797-4.3359 6.4219-4.3359 10.516v67.168c0 4.0977 1.6719 7.8242 4.3359 10.516 2.6914 2.6641 6.4219 4.3359 10.516 4.3359h385.84zm-244.14 185.67h-112.04v16.781h112.04zm0-161.66h-112.04v16.766h112.04zm244.14 40.789h-385.84c-3.8398 0-7.3711 1.4727-10.02 3.8711l-0.46875 0.49609c-2.6797 2.6797-4.3672 6.4062-4.3672 10.473v67.18c0 4.0664 1.6875 7.7969 4.3672 10.473 2.6641 2.6914 6.3906 4.3672 10.488 4.3672h385.84c3.8555 0 7.3711-1.4727 10.008-3.8555l0.48047-0.51172c2.6797-2.6797 4.3672-6.4062 4.3672-10.473v-67.18c0-4.0664-1.6875-7.7969-4.3672-10.473-2.6523-2.6914-6.3906-4.3672-10.488-4.3672z"/>
</svg>
