<?xml version="1.0" encoding="UTF-8"?>
<svg width="1200pt" height="1200pt" version="1.1" viewBox="0 0 1200 1200" xmlns="http://www.w3.org/2000/svg">
 <path d="m1068.6 272.23c-29.629-39.973-99.434-37.695-187.61-8.3984-74.938-61.367-170.65-98.316-274.88-98.316-239.59 0-434.48 194.9-434.48 434.48 0 54.703 10.594 106.93 29.133 155.21-68.484 87.516-101.17 165.43-67.945 210.37 15.145 20.359 40.84 30.621 76.551 30.621 7.3242 0 15.062-0.41406 23.254-1.2812 11.34-1.1992 19.613-11.379 18.371-22.758-1.2422-11.379-11.133-19.574-22.758-18.371-31.449 3.1875-53.543-1.2422-62.191-12.91-15.559-21.02 2.7305-73.074 53.875-142.72 72.164 140.11 218.03 236.32 386.19 236.32 239.59 0 434.48-194.9 434.48-434.48 0-118.18-47.586-225.39-124.43-303.81 63.188-18.125 105.81-17.379 119.17 0.66016 9.9297 13.449 4.1367 37.367-2.5234 55.074-4.0547 10.676 1.4062 22.594 12.082 26.648 10.801 3.9297 22.633-1.3672 26.648-12.125 14.898-39.723 13.902-71.379-2.9375-94.219zm-143.96 98.359c42.867 59.379 69.434 131.01 73.488 208.63h-165.68c-2.7734-73.074-19.695-143.42-48.66-206.9h132.62c2.9375 0 5.75-0.66016 8.2344-1.7383zm0.085938 458.69c-2.5664-1.0742-5.3398-1.7812-8.2773-1.7812h-132.37c28.84-63.516 45.723-133.82 48.414-206.9h165.68c-4.0547 77.668-30.578 149.3-73.449 208.68zm-318.62 156.21c-43.035-31.035-79.945-70.594-109.2-116.61h218.32c-29.215 46.016-66.125 85.574-109.12 116.61zm-133.16-157.98c-31.281-62.359-48.992-133.32-51.93-206.9h370.1c-2.9375 73.574-20.648 144.54-51.93 206.9zm-185.42-456.91c2.5234 1.0742 5.2969 1.7383 8.2344 1.7383h132.58c-27.973 61.242-44.566 128.94-48.207 199.24-2.9375 2.5664-5.957 5.0469-8.8984 7.6562h-157.2c4.0977-77.629 30.66-149.25 73.488-208.63zm318.58-155.71c42.828 30.91 79.656 70.262 108.87 116.07h-217.78c29.215-45.766 66.043-85.16 108.91-116.07zm132.83 157.45c31.367 62.316 49.16 133.28 52.18 206.9h-356.32c26.855-22.262 55.531-44.898 86.359-67.738 78.289-58.016 151.49-103.86 217.07-139.16zm-83.586 0c-53.543 31.945-107.5 67.82-158.9 105.89-24.457 18.125-48.539 37.035-72.164 56.277 7.3672-57.516 24-112.55 48.953-162.16h182.11zm13.859-159.89c61.16 9.9297 117.48 33.848 165.77 68.566-25.82 10.426-52.633 22.633-80.191 36.457-23.918-39.188-52.387-74.812-85.574-105.02zm-126.25 0c-36.953 33.641-68.07 73.945-93.395 118.51h-129.27c57.973-61.613 135.48-104.32 222.66-118.51zm-328.93 408.16h111.81c-34.676 32.648-66.746 65.543-94.633 97.613-9.8086-31.035-15.434-63.848-17.172-97.613zm165.97 5.8359c3.3516 70.965 19.984 139.24 48.082 201.06h-132.33c-2.9805 0-5.793 0.70312-8.3164 1.7812-15.188-21.062-28.387-43.613-39.188-67.488 34.016-41.172 77.875-86.938 131.75-135.35zm-59.875 242.44h129.14c25.281 44.566 56.359 84.953 93.227 118.59-87.062-14.234-164.44-57.02-222.37-118.59zm349.53 118.59c36.867-33.641 67.945-74.027 93.227-118.59h129.19c-57.93 61.574-135.31 104.36-222.41 118.59zm222.25-656.52h-69.641c17.215-7.6133 33.684-14.359 49.199-20.109 7.0742 6.4961 13.902 13.16 20.441 20.109z"/>
</svg>
