<?xml version="1.0" encoding="UTF-8"?>
<svg width="1200pt" height="1200pt" version="1.1" viewBox="0 0 1200 1200" xmlns="http://www.w3.org/2000/svg">
 <path d="m220.18 720h297.82l-120.8 422c-3.0078 9.9492-2.4375 20.641 1.6094 30.215 4.0508 9.5742 11.32 17.43 20.551 22.207 6.7344 3.6406 14.266 5.5586 21.922 5.5781 13.238-0.054688 25.773-5.9805 34.219-16.18l550-644.94c9.9531-11.695 15.039-26.766 14.215-42.102-0.82422-15.336-7.5-29.773-18.648-40.336-11.152-10.562-25.926-16.445-41.285-16.441h-299.58l207.24-349.44c7.2305-12.215 9.8945-26.602 7.5195-40.598-2.375-14-9.6406-26.699-20.496-35.848-10.859-9.1484-24.609-14.148-38.805-14.113h-403.04c-12.41 0.023438-24.508 3.8789-34.641 11.039-10.137 7.1602-17.812 17.273-21.98 28.961l-212.54 600c-6.5039 18.391-3.6602 38.793 7.6211 54.703s29.594 25.348 49.098 25.297zm-19-66.641 212.46-600c1.4023-3.9102 3.9766-7.293 7.375-9.6836 3.3945-2.3945 7.4492-3.6758 11.605-3.6758h403.04c3.5664-0.046875 7.082 0.875 10.172 2.6641 3.0859 1.7852 5.6328 4.3789 7.3672 7.4961 1.7812 3.0391 2.7031 6.5039 2.6719 10.023-0.035156 3.5234-1.0195 6.9688-2.8516 9.9766l-225.14 379.7c-2.4102 4.0664-3.3047 8.8594-2.5195 13.52 0.78516 4.6641 3.1992 8.8984 6.8086 11.949 3.6094 3.0547 8.1836 4.7305 12.91 4.7305h334.7c3.8555-0.042969 7.6406 1.0391 10.891 3.1133s5.8242 5.0508 7.4062 8.5664c1.6367 3.4453 2.2344 7.2891 1.7148 11.066-0.51953 3.7773-2.1289 7.3203-4.6328 10.195l-550.08 645c-1.5352 2.1875-4.5352 2.7461-6.7578 1.2617-2.3984-1.0078-3.5664-3.7344-2.6406-6.1602l128.1-447.54v-0.003906c1.7461-6.0391 0.55078-12.551-3.2266-17.578-3.7812-5.0273-9.707-7.9844-15.996-7.9805h-324.38c-6.5625 0.054688-12.73-3.1328-16.48-8.5195-3.7695-5.2578-4.7109-12.035-2.5195-18.121z"/>
</svg>
