<?xml version="1.0" encoding="UTF-8"?>
<svg width="1200pt" height="1200pt" version="1.1" viewBox="0 0 1200 1200" xmlns="http://www.w3.org/2000/svg">
 <path d="m997.78 239.72c-101.81-101.81-235.78-159.79-379.03-164.44v-56.531c0-7.2188-4.125-13.781-10.594-16.875s-14.203-2.25-19.828 2.25l-187.5 150c-4.4531 3.5625-7.0312 8.9531-7.0312 14.625 0 5.7188 2.5781 11.109 7.0312 14.625l187.5 150c5.625 4.5 13.312 5.3438 19.828 2.25 6.4688-3.0938 10.594-9.7031 10.594-16.875v-74.531c208.45 9.8438 375 182.48 375 393.28s-176.63 393.74-393.74 393.74c-217.12 0-393.74-176.63-393.74-393.74 0-10.359-8.3906-18.75-18.75-18.75h-131.26c-10.359 0-18.75 8.3906-18.75 18.75 0 150.28 58.5 291.52 164.76 397.78 106.22 106.22 247.5 164.76 397.78 164.76 150.28 0 291.52-58.5 397.78-164.76 106.22-106.22 164.76-247.5 164.76-397.78s-58.5-291.52-164.76-397.78zm-397.78 922.78c-283.22 0-514.78-225.37-524.68-506.26h93.844c9.8438 229.13 199.31 412.5 430.87 412.5 231.52 0 431.26-193.45 431.26-431.26s-193.45-431.26-431.26-431.26c-10.359 0-18.75 8.3906-18.75 18.75v54.75l-138.74-111 138.74-111v36c0 10.359 8.3906 18.75 18.75 18.75 289.5 0 525 235.5 525 525s-235.5 525-525 525z"/>
</svg>
