<?xml version="1.0" encoding="UTF-8"?>
<svg width="1200pt" height="1200pt" version="1.1" viewBox="0 0 1200 1200" xmlns="http://www.w3.org/2000/svg">
 <path d="m975.6 727.2c-7.1992 0-12 4.8008-12 12v49.199c0 7.1992 4.8008 12 12 12 7.1992 0 12-4.8008 12-12v-49.199c0-7.1992-6-12-12-12z"/>
 <path d="m284.4 886.8h-63.602c-7.1992 0-12 4.8008-12 12v114c0 7.1992 4.8008 12 12 12h63.602c7.1992 0 12-4.8008 12-12v-114c0-6-4.7969-12-12-12zm-12 114h-39.602v-90h39.602z"/>
 <path d="m398.4 886.8h-63.602c-7.1992 0-12 4.8008-12 12v114c0 7.1992 4.8008 12 12 12h63.602c7.1992 0 12-4.8008 12-12v-114c0-6-4.7969-12-12-12zm-12 114h-39.602v-90h39.602z"/>
 <path d="m520.8 1024.8h63.602c7.1992 0 12-4.8008 12-12v-114c0-7.1992-4.8008-12-12-12h-63.602c-7.1992 0-12 4.8008-12 12v114c0 7.1992 6 12 12 12zm12-114h39.602v90h-39.602z"/>
 <path d="m634.8 1024.8h63.602c7.1992 0 12-4.8008 12-12v-114c0-7.1992-4.8008-12-12-12h-63.602c-7.1992 0-12 4.8008-12 12v114c0 7.1992 6 12 12 12zm12-114h39.602v90h-39.602z"/>
 <path d="m148.8 489.6v578.4c0 7.1992 4.8008 12 12 12h878.4c7.1992 0 12-4.8008 12-12v-576c16.801-13.199 26.398-32.398 26.398-55.199v-1.1992-1.1992l-24-232.8v-1.1992l0.003906-68.402c0-7.1992-4.8008-12-12-12h-880.8c-7.1992 0-12 4.8008-12 12v67.199 1.1992l-24 234v1.1992 1.1992c0 20.402 9.5977 39.602 24 52.805zm22.801-278.4h67.199v212.4h-88.801zm880.8 212.4h-93.602l0.003906-212.4h72zm-44.398 58.797c-21.602 0-39.602-15.602-44.398-36h88.801c-4.8008 21.602-22.801 36-44.402 36zm-262.8 368.4v205.2h-276v-205.2zm0-24h-124.8v-56.398h66c7.1992 0 12-4.8008 12-12 0-7.1992-4.8008-12-12-12l-156-0.003906c-7.1992 0-12 4.8008-12 12 0 7.1992 4.8008 12 12 12h66v56.398l-126 0.003906v-334.8c6-4.8008 10.801-9.6016 15.602-16.801 13.199 19.199 33.602 31.199 57.602 31.199s45.602-12 57.602-31.199c13.199 19.199 33.602 31.199 57.602 31.199s45.602-12 57.602-31.199c7.1992 10.801 16.801 19.199 27.602 24l-0.007812 327.6zm-15.598-403.2v-212.4h87.602v212.4zm-24 0h-92.398l-0.003906-212.4h92.398zm-1.2031 24c-4.8008 20.398-22.801 36-44.398 36-21.602 0-39.602-15.602-44.398-36zm-115.2-24h-92.398v-212.4h92.398zm-1.1992 24c-4.8008 20.398-22.801 36-44.398 36-21.602 0-39.602-15.602-44.398-36zm-114-24h-92.398v-212.4h92.398zm-2.3984 24c-4.8008 20.398-22.801 36-44.398 36-21.602 0-39.602-15.602-44.398-36zm259.2 0h88.801c-4.8008 20.398-22.801 36-44.398 36-21.602 0-39.602-15.602-44.402-36zm205.2 0c-4.8008 20.398-22.801 36-44.398 36-21.602 0-39.602-15.602-44.398-36zm-1.1992-24h-93.602v-212.4h93.602zm-93.602-236.4v-43.199h93.602v43.199zm-24 0h-87.602l0.003906-43.199h87.602zm-111.6 0h-92.398l-0.003906-43.199h92.398zm-116.4 0h-92.398v-43.199h92.398zm-115.2 0h-92.398v-43.199h92.398zm-116.4 0h-93.602v-43.199h93.602zm0 24v212.4h-93.602v-212.4zm-1.2031 236.4c-4.8008 20.398-22.801 36-44.398 36-21.602 0-39.602-15.602-44.398-36zm-116.4 0c-4.8008 20.398-22.801 36-44.398 36-21.602 0-39.602-15.602-44.398-36zm-44.398 58.797c24 0 45.602-12 57.602-31.199 13.199 19.199 33.602 31.199 57.602 31.199s45.602-12 57.602-31.199c13.199 19.199 33.602 31.199 57.602 31.199 6 0 13.199-1.1992 19.199-2.3984v322.8h-123.61v-56.398h66c7.1992 0 12-4.8008 12-12 0-7.1992-4.8008-12-12-12l-156-0.003906c-7.1992 0-12 4.8008-12 12 0 7.1992 4.8008 12 12 12h66v56.398l-124.8 0.003906v-324c7.1992 2.3984 14.398 3.5977 22.801 3.5977zm-22.801 344.4h273.6l-0.003906 205.2h-273.6zm596.4 205.2v-31.199h256.8v31.199zm258-55.199h-258v-494.4h6c24 0 45.602-12 57.602-31.199 13.199 19.199 33.602 31.199 57.602 31.199s45.602-12 57.602-31.199c13.199 19.199 33.602 31.199 57.602 31.199 7.1992 0 13.199-1.1992 19.199-2.3984l-0.003907 496.8zm3.6016-813.6h-72v-43.199h72zm-858-43.199h66v43.199h-66z"/>
</svg>
