<?xml version="1.0" encoding="UTF-8"?>
<svg width="1200pt" height="1200pt" version="1.1" viewBox="0 0 1200 1200" xmlns="http://www.w3.org/2000/svg">
 <path d="m40.078 1090.2c-0.35156-16.082 5.6914-31.652 16.805-43.285 11.117-11.629 26.395-18.375 42.477-18.754h49.922v-357.84c10.27 2.3125 20.699 3.8359 31.199 4.5586h14.879c26.691-0.042968 53.141-5.0469 78-14.758v368.04h653.28v-367.44c24.852 9.7539 51.301 14.801 78 14.883h14.879c10.543-0.72266 21.012-2.2461 31.32-4.5625v357.12h49.922c21.246 1.3203 40.34 13.426 50.602 32.082 10.262 18.652 10.262 41.262 0 59.918-10.262 18.652-29.355 30.758-50.602 32.078h-1001.4c-16.082-0.375-31.359-7.1211-42.477-18.754-11.113-11.633-17.156-27.199-16.805-43.285zm303.24-165.36v28.32c0 3.1836 1.2656 6.2344 3.5156 8.4844s5.3008 3.5156 8.4844 3.5156h489.24c3.1836 0 6.2344-1.2656 8.4883-3.5156 2.25-2.25 3.5117-5.3008 3.5117-8.4844v-28.32c0.003906-16.879-4.9844-33.379-14.336-47.43-9.3516-14.051-22.652-25.02-38.223-31.531 13.852-9.4062 22.996-24.312 25.098-40.922 2.1055-16.613-3.0352-33.328-14.105-45.887-11.07-12.562-27.008-19.758-43.754-19.758-16.742 0-32.68 7.1953-43.75 19.758-11.07 12.559-16.211 29.273-14.105 45.887 2.1016 16.609 11.246 31.516 25.098 40.922-11.953 4.9883-22.621 12.617-31.199 22.32-11.496-29.051-34.266-52.211-63.121-64.199 18.668-12.68 30.984-32.77 33.816-55.156 2.8359-22.387-4.0898-44.91-19.012-61.84-14.922-16.926-36.398-26.625-58.965-26.625s-44.043 9.6992-58.965 26.625c-14.922 16.93-21.848 39.453-19.012 61.84 2.832 22.387 15.148 42.477 33.816 55.156-28.715 11.984-51.387 35.043-62.879 63.961-8.582-9.7031-19.246-17.336-31.199-22.32 13.852-9.4062 22.992-24.312 25.098-40.926 2.1016-16.609-3.0352-33.324-14.105-45.887-11.074-12.562-27.008-19.758-43.754-19.758s-32.68 7.1953-43.754 19.758c-11.07 12.562-16.207 29.277-14.105 45.887 2.1055 16.613 11.246 31.52 25.098 40.926-15.676 6.4688-29.078 17.453-38.5 31.555-9.4219 14.102-14.441 30.684-14.418 47.645zm661.32-317.16h10.199c97.441-6.6016 156-111.96 116.04-201l-140.76-313.44c-6.1562-13.508-16.074-24.961-28.566-32.984-12.488-8.0195-27.027-12.277-41.875-12.254h-639.36c-14.887 0.007812-29.453 4.3164-41.949 12.406s-22.391 19.617-28.492 33.195l-140.76 312.72c-40.078 89.039 18.602 194.4 116.04 201h10.199c28.387-0.011718 56.184-8.1094 80.137-23.348 23.949-15.238 43.066-36.984 55.105-62.691 15.941 34.242 44.273 61.168 79.281 75.348 35.008 14.184 74.094 14.566 109.37 1.0742 35.281-13.496 64.137-39.859 80.746-73.781 16.551 33.949 45.359 60.363 80.613 73.918 35.254 13.555 74.336 13.242 109.37-0.875 35.031-14.117 63.41-40.992 79.414-75.203 12.059 25.684 31.18 47.406 55.129 62.621 23.949 15.215 51.738 23.297 80.113 23.297z"/>
</svg>
