<?xml version="1.0" encoding="UTF-8"?>
<svg width="1200pt" height="1200pt" version="1.1" viewBox="0 0 1200 1200" xmlns="http://www.w3.org/2000/svg">
 <path d="m596.4 426v133.2h-33.602c-7.1992 0-12 4.8008-12 12s4.8008 12 12 12h91.199c7.1992 0 12-4.8008 12-12s-4.8008-12-12-12h-33.602l0.003907-133.2c33.602-2.3984 57.602-14.398 72-37.199 39.602-61.199-10.801-171.6-13.199-176.4-2.3984-4.8008-6-7.1992-10.801-7.1992h-120c-4.8008 0-8.3984 2.3984-10.801 7.1992-2.3984 4.8008-54 114-15.602 175.2 13.203 22.797 38.402 36 74.402 38.398zm75.602-50.398c-12 18-32.398 26.398-63.602 26.398-32.398 0-55.199-9.6016-67.199-27.602-14.398-22.801-12-56.398-4.8008-86.398 9.6016-3.6016 18-6 34.801-6 18 0 26.398 3.6016 37.199 7.1992 10.801 3.6016 22.801 8.3984 45.602 8.3984 10.801 0 19.199-1.1992 26.398-2.3984 3.6016 28.801 4.8008 60-8.3984 80.402zm-116.4-146.4h104.4c4.8008 10.801 9.6016 25.199 14.398 42-6 1.1992-12 2.3984-20.398 2.3984-18 0-26.398-3.6016-37.199-7.1992-10.801-3.6016-22.801-8.3984-45.602-8.3984-10.801 0-20.398 1.1992-27.602 2.3984 4.8008-13.199 8.4023-25.199 12.004-31.199z"/>
 <path d="m388.8 512.4h1.1992 1.1992c46.801 106.8 115.2 170.4 201.6 184.8v220.8h-72c-7.1992 0-12 4.8008-12 12v32.398c-43.199 6-75.602 43.199-75.602 87.602v18c0 7.1992 4.8008 12 12 12h321.6c7.1992 0 12-4.8008 12-12v-18c0-44.398-32.398-81.602-75.602-87.602v-32.398c0-7.1992-4.8008-12-12-12h-74.398v-220.8c86.398-14.398 154.8-76.801 202.8-184.8h3.6016 1.1992c79.199-12 135.6-70.801 165.6-171.6 21.602-74.398 20.398-144 20.398-147.6 0-6-6-12-12-12h-106.8c2.3984-30 2.3984-49.199 2.3984-49.199 0-3.6016-1.1992-6-3.6016-8.3984-2.3984-2.3984-6-3.5977-9.5977-3.5977h-548.4c-7.1992 0-12 4.8008-12 12 0 0 0 19.199 1.1992 49.199h-105.6c-6 0-12 4.8008-12 12 0 2.3984-1.1992 73.199 20.398 147.6 27.602 100.8 85.203 159.6 164.4 171.6zm366 537.6v6h-296.4v-6c0-36 28.801-64.801 64.801-64.801h168c34.801 0 63.602 30 63.602 64.801zm-75.602-88.801h-145.2v-20.398h145.2zm306-756c-1.1992 51.602-15.602 252-154.8 280.8 10.801-26.398 19.199-55.199 27.602-86.398 18-72 27.602-144 31.199-194.4zm-116.4-61.199c-2.3984 76.801-26.398 501.6-262.8 530.4-237.6-28.797-259.2-453.6-261.6-530.4zm-544.8 61.199c3.6016 51.602 12 122.4 30 194.4 8.3984 31.199 16.801 60 27.602 86.398-138-29.996-152.4-229.2-153.6-280.8z"/>
</svg>
