<?xml version="1.0" encoding="UTF-8"?>
<svg width="1200pt" height="1200pt" version="1.1" viewBox="0 0 1200 1200" xmlns="http://www.w3.org/2000/svg">
 <path d="m1050.6 937.5h-901.17c-41.035 0-74.414-33.379-74.414-74.414v-38.086c0-20.707 16.793-37.5 37.5-37.5h975c20.707 0 37.5 16.793 37.5 37.5v38.086c0 41.035-33.379 74.414-74.414 74.414zm0-75v37.5zm-900.59 0v0.58594l900-0.58594z"/>
 <path d="m1012.5 825c-20.707 0-37.5-16.793-37.5-37.5v-450.39l-750.39 0.38672 0.38672 450c0 20.707-16.793 37.5-37.5 37.5s-37.5-16.793-37.5-37.5v-450.39c0-41.141 33.473-74.613 74.613-74.613h750.77c41.145 0 74.617 33.473 74.617 74.613v450.39c0 20.707-16.793 37.5-37.5 37.5z"/>
 <path d="m336.86 750c-20.707 0-37.5-16.793-37.5-37.5s16.793-37.5 37.5-37.5c5.8047 0 10.969-3.8828 12.543-9.4492l52.992-224.98c11.184-39.312 45.992-65.57 85.105-65.57 20.707 0 37.5 16.793 37.5 37.5s-16.793 37.5-37.5 37.5c-5.8047 0-10.969 3.8984-12.562 9.4844l-52.973 224.95c-11.148 39.293-45.977 65.57-85.105 65.57z"/>
 <path d="m862.5 750h-262.5c-15.16 0-28.836-9.1406-34.641-23.145-5.8047-14.023-2.5977-30.141 8.1289-40.867l123.48-123.49-123.49-123.49c-10.73-10.73-13.934-26.844-8.1289-40.867 5.8086-14.004 19.484-23.145 34.645-23.145h262.5c20.707 0 37.5 16.793 37.5 37.5v37.5c0 20.707-16.793 37.5-37.5 37.5s-37.5-16.793-37.5-37.5h-134.47l85.988 85.988c14.648 14.648 14.648 38.379 0 53.027l-85.988 85.984h134.47c0-20.707 16.793-37.5 37.5-37.5s37.5 16.793 37.5 37.5v37.5c0 20.707-16.793 37.5-37.5 37.5z"/>
</svg>
