<?xml version="1.0" encoding="UTF-8"?>
<svg width="1200pt" height="1200pt" version="1.1" viewBox="0 0 1200 1200" xmlns="http://www.w3.org/2000/svg">
 <path d="m946.26 664.4v-48.328h-96.609v48.328h-64.406v-48.328h-96.609v48.328h-64.406v-48.328h-96.609v48.328h-40.266v306h499.26l-0.09375-306zm8.0625 273.79h-434.86v-241.6h434.86z"/>
 <path d="m673.5 357.42v55.922l-47.578 45.844c-0.5625-0.046875-1.1719-0.09375-1.7812-0.09375-13.312 0-24.141 10.781-24.141 24.141 0 7.125 3.1406 13.547 8.0625 17.953v66.562h32.203v-66.562c4.9219-4.4062 8.0625-10.828 8.0625-17.953 0-0.28125-0.046875-0.5625-0.046875-0.89062l46.078-44.438h85.078l46.078 44.438c0 0.28125-0.046875 0.5625-0.046875 0.89062 0 7.125 3.1406 13.547 8.0625 17.953v66.562h32.203v-66.562c4.9219-4.4062 8.0625-10.828 8.0625-17.953 0-13.359-10.828-24.141-24.141-24.141-0.60938 0-1.1719 0.046875-1.7812 0.09375l-47.578-45.844v-108c0.60938-3.4219 0.9375-6.9375 0.98438-10.5v-0.23438l0.046875-0.42188v-0.46875c-0.046875-6.2344-0.9375-12.469-2.7656-18.422-6.7969-22.406-24.609-38.766-46.547-43.969v-0.75h-3.7969c-3.6562-0.65625-7.4531-0.98438-11.297-0.98438h-0.046875c-3.75 0-7.4531 0.375-11.109 0.98438h-227.21c-3.4219-0.60938-6.9375-0.9375-10.5-0.98438h-1.0781c-6.2344 0.046875-12.422 0.98438-18.328 2.7656-17.062 5.1562-30.891 16.828-38.906 32.859-0.75 1.4531-1.4062 2.9531-2.0156 4.4531l-181.92 267.56c-1.3125 1.3125-2.5781 2.6719-3.8438 4.0781-6.3281 7.125-11.719 15.047-16.078 23.484-0.09375 0.14062-0.1875 0.28125-0.23438 0.42188 0 0.046875-0.046875 0.046875-0.046875 0.09375s-0.046875 0.09375-0.046875 0.09375 0 0.046875-0.046875 0.046875l-0.14062 0.28125c-0.1875 0.375-0.32812 0.75-0.51562 1.125-7.5469 15.516-11.391 32.062-11.391 49.172 0 5.0156 0.375 9.9844 0.98438 14.812v338.48h223.45l0.046875-334.13 0.14062-0.375c0.5625-1.6875 0.89062-3.4688 0.89062-5.2031v-0.42188l93.141-271.74zm-265.74 362.76v219.05h-163.08v-245.39c20.531 21.516 49.5 35.016 81.516 35.016 31.453 0 60.609-12.891 81.516-34.922zm-1.125-100.27c0 0.42188-0.046875 0.84375-0.09375 1.2656-0.046875 0.84375-0.09375 1.7344-0.1875 2.5781-0.046875 0.51562-0.09375 0.98438-0.1875 1.5-0.09375 0.79688-0.1875 1.5469-0.28125 2.3438-0.09375 0.51562-0.1875 1.0312-0.23438 1.5469-0.09375 0.60938-0.1875 1.2188-0.32812 1.8281l-5.5312 16.172-1.8281 5.2969c-13.828 27.234-41.297 44.156-71.766 44.156-44.391 0-80.531-36.141-80.531-80.531 0-12.188 2.7188-24 8.2031-35.25l12.844-18.938c15.281-16.781 36.891-26.391 59.484-26.391 44.391 0 80.531 36.141 80.531 80.531 0 1.3594-0.046875 2.625-0.09375 3.8906zm21.422-52.125c-18.141-38.062-56.953-64.453-101.86-64.453-7.5938 0-15.094 0.79688-22.406 2.2969l125.21-184.22c10.5 22.453 32.859 36.984 58.266 36.984 3.75 0 7.4531-0.375 11.109-0.98438h1.7812zm342.05-160.03h-66.422v-58.547c9.3281 5.5781 20.156 8.8594 31.641 9.1875 0.28125 0 0.51562 0.046875 0.79688 0.046875h1.0312c6.2344-0.046875 12.469-0.9375 18.422-2.7656 5.2031-1.5938 10.031-3.75 14.531-6.4219zm-227.72-80.531c0.84375-1.4531 1.6875-2.9062 2.4375-4.4062 7.4062-14.812 8.8594-31.688 4.0781-47.484-1.5938-5.2031-3.75-10.031-6.4219-14.531l139.18-0.046875c-5.8594 9.75-9.1406 21.141-9.1406 33.234 0 3.75 0.375 7.4531 0.98438 11.109v22.125zm225.32-42.562c0.9375 3 1.3594 6.1406 1.3594 9.3281v0.42188c-0.1875 14.109-9.375 26.297-22.875 30.422-3 0.9375-6.1406 1.3594-9.3281 1.3594h-0.42188c-14.109-0.1875-26.344-9.375-30.422-22.875-0.9375-3-1.3594-6.1406-1.3594-9.3281 0-14.062 9.375-26.719 22.875-30.844 3-0.9375 6.1406-1.3594 9.3281-1.3594 14.109 0 26.766 9.4219 30.844 22.875zm-289.78-21.516c3-0.9375 6.1406-1.3594 9.3281-1.3594h0.42188c14.109 0.1875 26.297 9.375 30.375 22.875 2.3906 7.875 1.6406 16.312-2.0625 23.719-4.0312 8.0156-10.922 13.875-19.406 16.453-3 0.9375-6.1406 1.3594-9.3281 1.3594-14.062 0-26.719-9.4219-30.797-22.875-2.3906-7.875-1.6406-16.312 2.0625-23.719 3.9844-8.0156 10.875-13.875 19.406-16.453z"/>
</svg>
