<?xml version="1.0" encoding="UTF-8"?>
<svg width="1200pt" height="1200pt" version="1.1" viewBox="0 0 1200 1200" xmlns="http://www.w3.org/2000/svg">
 <path d="m233.41 868.73 13.789 7.957 486.98 281.15 13.766 7.9688c1.1172 0.64844 2.3516 0.97266 3.6016 0.97266 1.2461 0 2.4844-0.32422 3.6133-0.97266l215.9-124.67c2.2305-1.2734 3.6016-3.6719 3.6016-6.2383l-0.003907-668.39c0-2.5664-1.3672-4.9453-3.6016-6.2383l-13.754-7.9688-486.99-281.15-13.777-7.9453c-1.1172-0.64844-2.3516-0.97266-3.6016-0.97266-1.2461 0-2.4844 0.32422-3.6016 0.97266l-215.93 124.64c-2.2305 1.2852-3.6016 3.6602-3.6016 6.2383v668.4c-0.007813 2.5703 1.3711 4.9609 3.6016 6.2422zm518.15-381.02-7.7891-4.5117 209.93-121.19 7.7773 4.5zm212.89-116v661.48l-209.9 121.2-0.003906-661.48zm-215.91 121.2v661.48l-7.7773-4.5v-14.184l0.003907-59.172v-588.13zm-10.785-13.176-480.97-277.68 209.93-121.2 480.98 277.69zm-440.48-195.24c-0.035156-0.20312 0.085937-0.38281 0.011718-0.57422l-2.7344-7.1055c-0.058594-0.15625-0.25391-0.20313-0.32422-0.34766-0.085938-0.14453-0.023438-0.3125-0.13281-0.44531l-4.7539-5.9648c-0.13281-0.15625-0.34766-0.14453-0.49219-0.27734-0.15625-0.13281-0.17969-0.34766-0.34766-0.45703l-3.0586-1.7656 22.609-13.055 18.625 10.738v6.3359l-29.219 16.859 0.035156-3.4219c-0.003906-0.19531-0.18359-0.32812-0.21875-0.51953zm-5.7969 1.0312-0.046875 4.8477-1.4414 2.0156-2.5078 0.21484-4.1875-2.4258-4.1406-5.1719-2.3281-6.1211 0.011719-2.5547v-2.3047l1.4531-2.0039 2.5078-0.22656 4.2109 2.4375 4.1172 5.1484zm-28.418-14.461c-0.12109 0.070312-0.13281 0.22656-0.25391 0.3125-0.21484 0.16797-0.37109 0.3125-0.52734 0.52734-0.085938 0.12109-0.25391 0.12109-0.32422 0.25391-0.070312 0.12109 0 0.26562-0.046875 0.39453-0.097656 0.25391-0.15625 0.45703-0.19141 0.71875-0.011719 0.14453-0.15625 0.22656-0.15625 0.37109v15.926c0 0.14453 0.13281 0.23828 0.15625 0.38281 0.046875 0.39453 0.22656 0.68359 0.42188 1.0195 0.20312 0.34766 0.35938 0.63672 0.68359 0.875 0.10938 0.085937 0.12109 0.25391 0.25391 0.32422l4.6211 2.6406c0.46875 0.26562 0.98438 0.39453 1.4883 0.39453h10.848l5.2695 3.0352c0.46875 0.26562 0.98437 0.39453 1.4883 0.39453h0.011719c0.085937 0 0.16797 0 0.25391-0.011719l4.8242-0.40625c0.097657 0 0.13281-0.097656 0.22656-0.12109 0.34766-0.058594 0.69531-0.085938 1.0195-0.27734l33.539-19.355v16.164l-11.328 25.812-52.273 30.156c-0.12109 0.070312-0.13281 0.22656-0.25391 0.3125-0.21484 0.16797-0.37109 0.3125-0.52734 0.52734-0.085937 0.12109-0.25391 0.12109-0.32422 0.25391-0.070313 0.12109 0 0.26562-0.046876 0.39453-0.097656 0.25391-0.15625 0.45703-0.19141 0.71875-0.011718 0.14453-0.15625 0.22656-0.15625 0.37109v15.926c0 0.14453 0.13281 0.23828 0.15625 0.37109 0.046875 0.39453 0.22656 0.68359 0.42188 1.0195 0.19141 0.33594 0.35938 0.63672 0.67188 0.875 0.12109 0.085937 0.12109 0.25391 0.25391 0.32422l4.6211 2.6523c0.48047 0.26562 0.98438 0.39453 1.5 0.39453h10.848l5.2695 3.0352c0.46875 0.26562 0.98438 0.39453 1.4883 0.39453h0.011719c0.085937 0 0.16797 0 0.25391-0.011719l4.8242-0.40625c0.097656 0 0.13281-0.097656 0.22656-0.12109 0.34766-0.058594 0.69531-0.085938 1.0195-0.27734l33.539-19.367v16.164l-11.328 25.801-52.262 30.191c-0.12109 0.070313-0.13281 0.22656-0.25391 0.3125-0.21484 0.16797-0.37109 0.3125-0.52734 0.52734-0.085937 0.12109-0.25391 0.13281-0.32422 0.25391-0.070312 0.13281 0 0.26562-0.046874 0.39453-0.097657 0.25391-0.15625 0.45703-0.19141 0.71875-0.011719 0.14453-0.15625 0.22656-0.15625 0.37109v15.91c0 0.14453 0.13281 0.23828 0.15625 0.37109 0.046875 0.39453 0.22656 0.68359 0.42188 1.0195 0.19141 0.33594 0.35938 0.63672 0.67188 0.875 0.12109 0.085938 0.12109 0.25391 0.25391 0.32422l4.6211 2.6523c0.48047 0.26562 0.98438 0.39453 1.5 0.39453h10.848l5.2695 3.0352c0.46875 0.26563 0.97266 0.39453 1.4766 0.39453h0.011719c0.085938 0 0.16797 0 0.25391-0.011719l4.8242-0.39453c0.097656 0 0.13281-0.097656 0.22656-0.12109 0.34766-0.046875 0.70703-0.085938 1.0312-0.27734l33.539-19.379v16.176l-11.328 25.801-52.262 30.18c-0.12109 0.070312-0.13281 0.22656-0.25391 0.3125-0.21484 0.16797-0.35938 0.3125-0.52734 0.52734-0.085937 0.12109-0.25391 0.12109-0.32422 0.25391-0.070313 0.12109 0 0.26562-0.046876 0.39453-0.097656 0.25391-0.15625 0.45703-0.19141 0.71875-0.011718 0.14453-0.15625 0.22656-0.15625 0.37109v15.926c0 0.14453 0.13281 0.23828 0.15625 0.37109 0.046875 0.39453 0.22656 0.68359 0.42188 1.0195 0.19141 0.33594 0.35938 0.63672 0.67188 0.875 0.12109 0.085938 0.12109 0.25391 0.25391 0.32422l4.6211 2.6523c0.48047 0.26562 0.98438 0.39453 1.5 0.39453h10.859l5.2422 3.0352c0.46875 0.26562 0.98438 0.39453 1.4883 0.39453h0.011719c0.085937 0 0.16797 0 0.25391-0.011718l4.8242-0.40625c0.097656 0 0.13281-0.097656 0.22656-0.12109 0.34766-0.058594 0.69531-0.085938 1.0195-0.27734l33.539-19.367v16.176l-11.328 25.801-52.262 30.18c-0.12109 0.070312-0.13281 0.22656-0.25391 0.3125-0.21484 0.16797-0.37109 0.3125-0.52734 0.52734-0.085937 0.12109-0.25391 0.12109-0.32422 0.25391-0.070313 0.12109 0 0.26562-0.046876 0.39453-0.097656 0.25391-0.15625 0.45703-0.19141 0.71875-0.011718 0.14453-0.15625 0.22656-0.15625 0.37109v15.91c0 0.14453 0.13281 0.23828 0.15625 0.37109 0.046875 0.39453 0.22656 0.68359 0.42188 1.0195 0.19141 0.33594 0.35938 0.63672 0.67188 0.875 0.12109 0.085937 0.12109 0.25391 0.25391 0.32422l4.6211 2.6523c0.48047 0.26562 0.98438 0.39453 1.5 0.39453h10.836l5.2695 3.0586c0.46875 0.25391 0.98438 0.39453 1.4883 0.39453h0.011719c0.085937 0 0.16797 0 0.26562-0.011719l4.8242-0.42188c0.097656-0.011719 0.14453-0.10938 0.23828-0.13281 0.33594-0.046876 0.68359-0.085938 0.99609-0.25391l33.539-19.367v16.176l-11.328 25.789-52.262 30.191c-0.12109 0.070312-0.13281 0.23828-0.25391 0.32422-0.21484 0.16797-0.37109 0.30078-0.52734 0.52734-0.085937 0.12109-0.25391 0.13281-0.32422 0.25391-0.070313 0.13281 0 0.26563-0.046875 0.39453-0.097657 0.25391-0.15625 0.45703-0.19141 0.71875-0.011718 0.14453-0.15625 0.23828-0.15625 0.37109v15.898c0 0.15625 0.13281 0.23828 0.15625 0.37109 0.046876 0.39453 0.22656 0.68359 0.42188 1.0195 0.20312 0.34766 0.35937 0.64844 0.67187 0.88672 0.12109 0.085937 0.12109 0.25391 0.25391 0.3125l4.6211 2.6523c0.48047 0.26563 0.98438 0.39453 1.5 0.39453h10.848l5.2695 3.0352c0.46875 0.27734 0.98438 0.39453 1.4883 0.39453 0 0 0 0.011719 0.011719 0.011719 0.085938 0 0.16797-0.011719 0.25391-0.011719l4.8242-0.40625c0.097656-0.011719 0.13281-0.10938 0.22656-0.12109 0.34766-0.058594 0.69531-0.085938 1.0195-0.26563l33.539-19.379v16.199l-11.328 25.777-52.262 30.191c-0.12109 0.070313-0.13281 0.22656-0.25391 0.30078-0.21484 0.17969-0.37109 0.32422-0.52734 0.53906-0.085938 0.12109-0.25391 0.12109-0.32422 0.25391-0.070313 0.12109 0 0.25391-0.046875 0.39453-0.097656 0.25391-0.15625 0.44531-0.19141 0.71875-0.011719 0.14453-0.15625 0.22656-0.15625 0.37109v15.898c0 0.14453 0.13281 0.23828 0.15625 0.37109 0.046874 0.39453 0.22656 0.68359 0.43359 1.0312 0.20312 0.33594 0.35938 0.63672 0.67188 0.86328 0.12109 0.097657 0.12109 0.25391 0.25391 0.32422l4.6211 2.6641c0.48047 0.26562 0.99609 0.39453 1.5 0.39453h10.859l5.2422 3.0352c0.46875 0.27734 0.98438 0.39453 1.4883 0.39453 0 0 0 0.011719 0.011719 0.011719 0.085937 0 0.16797-0.011719 0.25391-0.011719l4.8242-0.40625c0.097656-0.011718 0.13281-0.10937 0.22656-0.12109 0.34766-0.058594 0.69531-0.085938 1.0195-0.26562l33.539-19.355v16.164l-11.328 25.812-52.262 30.168c-0.12109 0.070313-0.13281 0.22656-0.25391 0.30078-0.21484 0.17969-0.37109 0.32422-0.52734 0.53906-0.085937 0.12109-0.25391 0.12109-0.32422 0.25391-0.070313 0.12109 0 0.25391-0.046876 0.39453-0.097656 0.25391-0.15625 0.44531-0.19141 0.71875-0.011718 0.14453-0.15625 0.22656-0.15625 0.37109v14.172l-7.7656 4.5-0.015625-625.93 46.129 26.629zm11.773 18.168h-2.6523v-5.6641l1.5352 4.0195c0.070312 0.19141 0.25391 0.27734 0.34766 0.44531 0.070313 0.12109 0.023438 0.25391 0.10938 0.35937zm22.43 74.82c-0.023437-0.20312 0.097656-0.38281 0.011719-0.57422l-2.7344-7.1172c-0.058594-0.15625-0.23828-0.20312-0.32422-0.33594-0.085938-0.14453-0.023438-0.32422-0.13281-0.46875l-4.7539-5.9531c-0.13281-0.15625-0.34766-0.14453-0.50391-0.26562-0.14453-0.13281-0.16797-0.34766-0.33594-0.45703l-3.0586-1.7773 29.711-17.16 3.2266-0.27734 4.2109 2.4258 4.0781 5.1133v13.945l-29.219 16.871 0.035156-3.4336c0.015626-0.21094-0.16406-0.33203-0.21094-0.53516zm-5.7852 1.0469-0.046875 4.8594-1.4414 2.0156-2.5078 0.21484-4.1875-2.4258-4.1289-5.1602-2.3398-6.1562 0.011719-2.543v-2.2812l1.4648-2.0156 2.4961-0.23828 4.2109 2.4375 4.1172 5.1602zm34.945-37.453c-0.15625-0.13281-0.17969-0.34766-0.34766-0.45703l-5.5234-3.1797c-0.058594-0.035156-0.13281 0-0.20313-0.023438v-0.011718l0.070313-0.16797 6.0352-13.766v6.4062 0.011719 0.011719l0.12109 10.68c0 0.058594 0.058594 0.097656 0.070313 0.16797v0.46875c-0.054688-0.082032-0.15234-0.082032-0.22266-0.14062zm-51.59 41.16h-2.6523v-5.6523l1.5234 4.0195c0.070313 0.19141 0.25391 0.28906 0.35938 0.45703 0.070313 0.10938 0.023438 0.25391 0.10938 0.34766zm22.43 74.82c-0.023437-0.20313 0.097656-0.38281 0.011719-0.57422l-2.7344-7.1172c-0.058594-0.15625-0.23828-0.20312-0.32422-0.33594-0.085938-0.14453-0.023438-0.32422-0.13281-0.46875l-4.7539-5.9531c-0.13281-0.15625-0.34766-0.14453-0.50391-0.26562-0.14453-0.13281-0.16797-0.34766-0.33594-0.45703l-3.0703-1.7773 29.723-17.148 3.2266-0.27734 4.1875 2.4258 4.0938 5.1133v13.922l-29.219 16.871 0.035156-3.4336c0.023438-0.19922-0.15625-0.33203-0.20312-0.52344zm-5.7852 1.043-0.046875 4.8477-1.4414 2.0273-2.4961 0.20312-4.1992-2.4258-4.1289-5.1484-2.3398-6.1562 0.011719-2.543v-2.293l1.4531-2.0156 2.4961-0.22656 4.2109 2.4492 4.1172 5.1602zm34.93-37.453c-0.14453-0.13281-0.16797-0.34766-0.34766-0.44531l-5.5078-3.1914c-0.058594-0.035156-0.13281 0-0.20313-0.023437v-0.023437l0.070313-0.17969 6.0352-13.754 0.003907 6.4102v0.011719 0.011719l0.12109 10.68c0 0.058594 0.058594 0.097656 0.070313 0.16797v0.32422 0.070313 0.070313c-0.058594-0.054688-0.15625-0.066407-0.24219-0.12891zm-51.574 41.16h-2.6523v-5.6523l1.5234 4.0195c0.070313 0.19141 0.25391 0.28906 0.35938 0.45703 0.070313 0.10938 0.023438 0.25391 0.10938 0.34766zm22.43 74.832c-0.023437-0.20312 0.097656-0.38281 0.011719-0.57422l-2.7344-7.1289c-0.058594-0.15625-0.23828-0.20312-0.32422-0.33594-0.085938-0.14453-0.023438-0.32422-0.13281-0.46875l-4.7539-5.9531c-0.13281-0.16797-0.34766-0.14453-0.50391-0.27734-0.14453-0.13281-0.16797-0.34766-0.34766-0.45703l-3.0586-1.7539 29.723-17.172 3.2266-0.27734 4.1992 2.4492 4.0938 5.1133v13.922l-29.219 16.871 0.035157-3.4219c0.011719-0.21094-0.16797-0.34375-0.21484-0.53516zm-5.7852 1.043-0.046875 4.8359-1.4414 2.0273-2.4961 0.21484-4.2227-2.4492-4.1055-5.1367-2.3398-6.1562 0.011719-2.543v-2.293l1.4531-2.0039 2.5078-0.22656 4.2109 2.4258 4.1172 5.1602zm34.945-37.449c-0.14453-0.13281-0.16797-0.34766-0.34766-0.45703l-5.5078-3.2031c-0.058593-0.035156-0.14453 0-0.20312-0.023437v-0.023437l0.070312-0.17969 6.0352-13.754v6.4336 0.011718 0.011719l0.12109 10.68c0 0.058594 0.058594 0.097657 0.070312 0.16797v0.48047c-0.070312-0.074219-0.16797-0.074219-0.23828-0.14453zm-51.59 41.148h-2.6523v-5.6523l1.5234 4.0195c0.070313 0.19141 0.25391 0.28906 0.35938 0.45703 0.070313 0.10938 0.023438 0.25391 0.10938 0.34766zm22.43 74.832c-0.023437-0.20313 0.097656-0.38281 0.011719-0.57422l-2.7344-7.1289c-0.058594-0.15625-0.23828-0.20312-0.32422-0.33594-0.085938-0.14453-0.023438-0.32422-0.13281-0.46875l-4.7539-5.9414c-0.13281-0.15625-0.33594-0.14453-0.49219-0.26562-0.14453-0.13281-0.16797-0.34766-0.34766-0.45703l-3.0586-1.7773 29.711-17.172 3.2266-0.27734 4.1875 2.4258 4.0938 5.125v13.934l-29.219 16.871 0.035156-3.4219c0.023438-0.21094-0.15625-0.34375-0.20312-0.53516zm-5.7852 1.0312-0.046875 4.8359-1.4414 2.0273-2.4961 0.22656-4.1992-2.4375-4.1289-5.1484-2.3398-6.1562 0.011719-2.5312v-2.3047l1.4531-2.0039 2.5078-0.22656 4.2109 2.4375 4.1172 5.1484zm34.93-37.453c-0.14453-0.13281-0.16797-0.34766-0.33594-0.44531l-5.5078-3.1914c-0.058594-0.035156-0.13281 0-0.19141-0.023438v-0.023437l0.070312-0.16797 6.0352-13.754v6.4219 0.011719 0.011718l0.12109 10.68c0 0.058594 0.058594 0.097656 0.070313 0.16797v0.46875c-0.078125-0.097656-0.17578-0.097656-0.26172-0.15625zm-51.574 41.16h-2.6523v-5.6523l1.5234 4.0195c0.070313 0.19141 0.25391 0.28906 0.35938 0.45703 0.070313 0.10937 0.023438 0.25391 0.10938 0.34766zm22.43 74.82c-0.023437-0.19141 0.097656-0.37109 0.011719-0.5625l-2.7344-7.1289c-0.058594-0.16797-0.25391-0.21484-0.32422-0.34766-0.070312-0.13281-0.023438-0.32422-0.13281-0.45703l-4.7539-5.9297c-0.12109-0.15625-0.33594-0.14453-0.49219-0.26562s-0.16797-0.34766-0.34766-0.44531l-3.0977-1.8008 29.746-17.172 3.2266-0.26562 4.1992 2.4258 4.0938 5.125v13.922l-29.219 16.871 0.035156-3.4219c0.015626-0.21094-0.16406-0.34375-0.21094-0.54688zm-5.7852 1.043-0.046875 4.8359-1.4414 2.0273-2.5078 0.21484-4.1992-2.4258-4.1172-5.1367-2.3398-6.168 0.011719-2.543v-2.3047l1.4531-2.0273 2.4961-0.20312 4.2344 2.4492 4.1055 5.125zm34.945-37.449c-0.15625-0.13281-0.17969-0.33594-0.34766-0.45703l-5.5078-3.1914c-0.058593-0.023438-0.13281 0.011718-0.20312-0.023438v-0.023437l0.085937-0.17969 6.0352-13.754v6.4219 0.011719 0.023437l0.12109 10.668c0 0.046875 0.046875 0.070313 0.046875 0.12109 0 0.085937 0.011719 0.14453 0.023438 0.23828v0.28906c-0.085938-0.074218-0.18359-0.085937-0.25391-0.14453zm-51.59 41.16h-2.6523v-5.6406l1.5234 4.0195c0.070313 0.20312 0.25391 0.28906 0.37109 0.45703 0.058594 0.12109 0.011719 0.25391 0.097656 0.34766zm22.43 74.816c-0.023437-0.19141 0.097656-0.37109 0.011719-0.5625l-2.7344-7.1289c-0.058594-0.16797-0.23828-0.21484-0.32422-0.34766-0.085938-0.13281-0.023438-0.32422-0.13281-0.45703l-4.7539-5.9414c-0.13281-0.16797-0.34766-0.14453-0.50391-0.26562-0.14453-0.13281-0.16797-0.34766-0.34766-0.45703l-3.0859-1.7656 29.734-17.184 3.2148-0.26562 4.2109 2.4375 4.0938 5.125v13.922l-29.219 16.859 0.035156-3.4219c0.027344-0.21094-0.15234-0.33984-0.19922-0.54688zm-5.7852 1.0469-0.046875 4.8359-1.4414 2.0273-2.4961 0.21484-4.2344-2.4492-4.0938-5.1133-2.3398-6.168 0.011719-2.543v-2.3047l1.4531-2.0156 2.4961-0.21484 4.1992 2.4258 4.1289 5.1484zm34.945-37.441c-0.15625-0.13281-0.16797-0.34766-0.34766-0.44531l-5.5078-3.2148c-0.058593-0.035156-0.14453 0.011719-0.20312-0.023437v-0.023438l0.070312-0.16797v-0.011718l6.0352-13.754v6.3945 0.023437 0.011719l0.12109 10.703c0 0.070312 0.058594 0.097656 0.070312 0.16797v0.46875c-0.070312-0.058594-0.16797-0.070313-0.23828-0.12891zm-51.59 41.148h-2.6523v-5.6406l1.5234 4.0195c0.070313 0.20312 0.25391 0.28906 0.37109 0.45703 0.058594 0.12109 0.011719 0.25391 0.097656 0.34766zm22.43 74.82c-0.023437-0.19141 0.097656-0.37109 0.011719-0.5625l-2.7344-7.1289c-0.058594-0.15625-0.23828-0.19141-0.32422-0.32422-0.085938-0.15625-0.023438-0.32422-0.13281-0.46875l-4.7539-5.9531c-0.13281-0.16797-0.34766-0.14453-0.50391-0.26562-0.14453-0.13281-0.16797-0.34766-0.33594-0.45703l-3.0703-1.7773 29.723-17.172 3.2148-0.26563 4.2109 2.4375 4.0938 5.1133v13.922l-29.219 16.859 0.035157-3.4062c0.011719-0.22656-0.16797-0.34766-0.21484-0.55078zm-5.7852 1.043-0.046875 4.8359-1.4414 2.0156-2.5078 0.23828-4.2109-2.4375-4.1055-5.1367-2.3398-6.168 0.011719-2.543v-2.3047l1.4531-2.0156 2.4961-0.22656 4.2109 2.4492 4.1172 5.1602zm34.945-37.441c-0.14453-0.13281-0.16797-0.34766-0.34766-0.44531l-5.5078-3.2148c-0.058593-0.035157-0.14453 0.011719-0.20312-0.023438l0.085937-0.19141 6.0352-13.754v6.3945 0.023438 0.011718l0.12109 10.703c0 0.070313 0.058594 0.097657 0.070313 0.16797v0.46875c-0.085938-0.066406-0.18359-0.066406-0.25391-0.14062zm-51.59 41.16h-2.6523v-5.6523l1.5234 4.0195c0.070313 0.20312 0.25391 0.28906 0.35938 0.45703 0.070313 0.10938 0.023438 0.25391 0.10938 0.34766zm-18.047 8.293 7.7773-4.5 3.1211 1.8008c0.46875 0.26562 0.98438 0.39453 1.5 0.39453h10.859l5.2422 3.0469c0.46875 0.25391 0.98438 0.39453 1.4883 0.39453h0.011718c0.097657 0 0.17969 0 0.26563-0.011719l4.8242-0.43359c0.097656-0.011718 0.14453-0.10938 0.23828-0.12109 0.33594-0.070312 0.67187-0.097656 0.99609-0.27734l33.539-19.344v21.203c-0.046875 0.17969-0.035156 0.32422-0.046875 0.50391-0.011719 0.13281-0.13281 0.20312-0.13281 0.32422v15.91 0.011719 0.16797l0.097656 8.7227 0.023438 1.8242c0 0.058593 0.058594 0.097656 0.070312 0.16797v0.3125 0.085938 4.7266c0 0.15625 0.13281 0.23828 0.15625 0.37109 0.046876 0.38281 0.22656 0.67188 0.42188 1.0195 0.20312 0.34766 0.35937 0.64844 0.68359 0.88672 0.10938 0.085938 0.12109 0.23828 0.25391 0.30078l13.773 7.9805c0.45703 0.25391 0.97266 0.39453 1.5 0.39453 0.51562 0 1.0312-0.14453 1.4883-0.39453h0.011719l3.0977-1.7773 3.0938 1.7773c0.46875 0.26562 0.98438 0.39453 1.4883 0.39453h10.848l5.293 3.0469c0.46875 0.25391 0.97266 0.39453 1.4766 0.39453h0.011719c0.085937 0 0.16797 0 0.25391-0.011719l4.8125-0.39453c0.097656-0.011719 0.13281-0.10938 0.22656-0.12109 0.34766-0.058594 0.70703-0.085938 1.0312-0.26562l33.539-19.379v21.086c-0.058594 0.17969 0 0.34766-0.023438 0.53906-0.023437 0.15625-0.17969 0.25391-0.17969 0.42188v15.91 0.011718 0.023438 0.058594l0.10938 8.7969v0.011719 0.011718l0.035156 1.8125c0 0.058594 0.046875 0.085938 0.058594 0.13281v5.1602c0 0.14453 0.13281 0.23828 0.15625 0.37109 0.046875 0.39453 0.22656 0.68359 0.42188 1.0195 0.20312 0.34766 0.35938 0.64844 0.68359 0.875 0.10938 0.097656 0.12109 0.25391 0.25391 0.32422l13.766 7.9453h0.011719c0.45703 0.26562 0.97266 0.40625 1.4883 0.40625s1.0312-0.14453 1.4883-0.39453c0-0.011719 0.011719 0 0.023438-0.011719l3.0859-1.7891 3.0859 1.7891c0.48047 0.27734 0.99609 0.40625 1.5 0.40625h10.883l5.2422 3.0352c0.46875 0.27734 0.98438 0.39453 1.4883 0.39453 0 0 0 0.011719 0.011719 0.011719 0.085937 0 0.16797-0.011719 0.26562-0.011719l4.8125-0.42188c0.097656-0.011719 0.14453-0.10938 0.23828-0.12109 0.33594-0.070312 0.68359-0.097656 0.99609-0.27734l33.539-19.355v21.133c-0.058594 0.17969 0 0.32422-0.023437 0.50391-0.023438 0.15625-0.16797 0.25391-0.16797 0.39453v15.91 0.023437 0.011719 0.070312l0.13281 10.621c0 0.058594 0.046876 0.085938 0.058594 0.14453v5.1719c0 0.14453 0.13281 0.23828 0.15625 0.37109 0.046875 0.39453 0.22656 0.68359 0.43359 1.0312 0.20312 0.33594 0.35938 0.63672 0.67188 0.86328 0.12109 0.097656 0.12109 0.25391 0.25391 0.32422l13.777 7.9453h0.011719c0.45703 0.25391 0.97266 0.39453 1.4883 0.39453s1.0312-0.14453 1.4883-0.39453l3.1094-1.7773 3.0859 1.7773c0.46875 0.26562 0.99609 0.39453 1.5 0.39453l10.855 0.019531 5.293 3.0469c0.46875 0.25391 0.97266 0.39453 1.4766 0.39453h0.011719c0.085937 0 0.16797 0 0.25391-0.011719l4.7891-0.40625c0.097656 0 0.14453-0.10938 0.23828-0.12109 0.33594-0.058594 0.68359-0.097656 1.0078-0.27734l33.551-19.355v21.133c-0.058593 0.17969 0 0.32422-0.023437 0.50391-0.023438 0.15625-0.16797 0.25391-0.16797 0.39453v15.91 0.023437 0.023438l0.14453 10.691c0 0.035156 0.046875 0.058594 0.046875 0.10938v0.21484 0.085937 4.8945c0 0.14453 0.13281 0.23828 0.15625 0.37109 0.046875 0.39453 0.22656 0.68359 0.42188 1.0195 0.20312 0.34766 0.35938 0.64844 0.68359 0.875 0.10938 0.097657 0.12109 0.25391 0.25391 0.32422l13.777 7.9453h0.011719c0.45703 0.26562 0.97266 0.40625 1.4883 0.40625s1.0312-0.14453 1.4883-0.39453c0-0.011718 0.011719 0 0.011719-0.011718l3.0859-1.7773 3.0859 1.7773c0.48047 0.27734 0.99609 0.40625 1.5 0.40625h10.871l5.2695 3.0352c0.46875 0.27734 0.97266 0.39453 1.4766 0.39453 0 0 0 0.011719 0.011719 0.011719h0.011719c0.085938 0 0.16797-0.011719 0.25391-0.011719l4.8242-0.42188c0.097656-0.011718 0.14453-0.10938 0.23828-0.12109 0.33594-0.070312 0.69531-0.097656 1.0078-0.27734l33.516-19.355v21.215c-0.058594 0.16797-0.046875 0.3125-0.058594 0.49219-0.011719 0.12109-0.13281 0.20312-0.13281 0.32422v15.91 0.023438 0.023437l0.14453 10.691c0 0.035156 0.046875 0.058593 0.046875 0.10937v5.1836c0 0.15625 0.13281 0.23828 0.14453 0.37109 0.058594 0.38281 0.23828 0.68359 0.43359 1.0195 0.20312 0.34766 0.35938 0.64844 0.67188 0.875 0.12109 0.097657 0.12109 0.25391 0.25391 0.32422l13.777 7.957h0.011718c0.45703 0.25391 0.97266 0.39453 1.4883 0.39453 0.52734 0 1.0312-0.14453 1.5-0.39453l3.1094-1.7773 3.1094 1.7773c0.46875 0.26562 0.98438 0.39453 1.5 0.39453h10.848l5.2578 3.0469c0.46875 0.27734 0.97266 0.39453 1.4883 0.39453 0 0 0 0.011719 0.011718 0.011719h0.011719c0.085938 0 0.16797-0.011719 0.25391-0.011719l4.8125-0.42188c0.097656-0.011719 0.14453-0.10938 0.23828-0.12109 0.33594-0.070312 0.69531-0.097656 0.99609-0.27734l24.348-14.062v48.781zm477.97 282.89v8.9766l-480.96-277.68v-8.9883zm-402.17-864.31c0-0.070313 0.070312-0.12109 0.070312-0.19141v-4.2344l7.7773 4.5v619.02l-7.7773-4.4883v-57.426c0-0.070312-0.070312-0.12109-0.070312-0.19141 0-0.070312 0.070312-0.12109 0.070312-0.20312v-79.203c0-0.070312-0.058593-0.10938-0.070312-0.16797 0-0.070313 0.070312-0.12109 0.070312-0.19141v-79.172c0-0.070312-0.070312-0.12109-0.070312-0.19141s0.070312-0.12109 0.070312-0.19141v-79.191c0-0.070313-0.070312-0.12109-0.070312-0.19141 0-0.070312 0.070312-0.12109 0.070312-0.20312v-79.191c0-0.070312-0.070312-0.10938-0.070312-0.17969 0-0.070312 0.070312-0.12109 0.070312-0.19141v-79.18c0-0.070313-0.070312-0.12109-0.070312-0.19141 0-0.070312 0.070312-0.12109 0.070312-0.20312v-79.176c0-0.070312-0.070312-0.12109-0.085937-0.19141 0-0.070312 0.085937-0.13281 0.085937-0.20312v-79.184c0-0.074219-0.070312-0.12109-0.070312-0.19141zm42.828 20.254 7.7891 4.5-13.801 7.9688v-9zm-6.0156-3.457m22.094 12.758 18.625 10.727v6.3477l-29.207 16.859 0.011719-3.4336c0-0.20312-0.17969-0.33594-0.21484-0.52734-0.023438-0.19141 0.085937-0.37109 0.011718-0.5625l-2.7227-7.0938c-0.058594-0.15625-0.23828-0.20312-0.32422-0.33594-0.085938-0.14453-0.023438-0.32422-0.13281-0.46875l-4.7539-5.9531c-0.13281-0.15625-0.34766-0.14453-0.49219-0.26562-0.15625-0.13281-0.16797-0.34766-0.34766-0.45703l-3.0859-1.7891zm-10.777 586.98c-0.023437-0.19141 0.085938-0.37109 0.011719-0.5625l-2.7227-7.1055c-0.058594-0.16797-0.25391-0.21484-0.32422-0.34766-0.070312-0.13281-0.023438-0.32422-0.13281-0.45703l-4.7539-5.9297c-0.12109-0.15625-0.33594-0.14453-0.49219-0.26563-0.15625-0.12109-0.16797-0.34766-0.34766-0.44531l-3.0859-1.8008 29.734-17.16 3.2148-0.27734 4.2109 2.4375 4.0938 5.125v13.906l-29.207 16.859 0.011719-3.4336c0.007812-0.21875-0.17188-0.35156-0.21094-0.54297zm-12.828-471.05-1.2227-0.71875-4.0547-5.1016-2.3398-6.1445 0.011718-2.5195 0.023438-2.3164 1.4414-2.0273 2.5078-0.21484 4.1992 2.4258 4.1289 5.1602 2.3516 6.1328-0.023437 4.8594-1.4531 2.0156-2.4961 0.20312zm1.5117 37.391 34.801-20.09-5.2812 12.035-29.52 17.027zm-0.93359 25.559 4.1172 5.1602 2.3516 6.1328-0.023437 4.8477-1.4531 2.0156-2.4961 0.22656-3.0469-1.7539-1.1875-0.69531-4.0938-5.1367-2.3516-6.1328 0.011719-2.543 0.023438-2.3164 1.4414-2.0156 2.4961-0.22656zm0.93359 54 34.801-20.102-5.2812 12.047-29.52 17.039zm-0.93359 25.586 4.1172 5.1602 2.3516 6.1328-0.023437 4.8594-1.4531 2.0039-2.5078 0.22656-3.0469-1.7539-1.1875-0.69531-4.0938-5.1367-2.3516-6.1328 0.011718-2.543 0.023438-2.3164 1.4414-2.0156 2.4961-0.21484zm0.93359 53.988 34.801-20.09-5.2812 12.059-29.52 17.027zm-0.93359 25.594 4.1172 5.1367 2.3516 6.1445-0.023437 4.8477-1.4531 2.0273-2.4961 0.22656-3.0469-1.7773-1.1758-0.68359-4.1055-5.1367-2.3516-6.1445 0.011719-2.5312 0.023438-2.3164 1.4414-2.0273 2.4961-0.21484zm0.93359 53.977 34.801-20.09-5.2812 12.047-29.52 17.039zm-0.93359 25.586 4.1172 5.1367 2.3516 6.1445-0.023437 4.8477-1.4648 2.0156-2.4961 0.23828-3.0117-1.7539v-0.011719l-1.2344-0.73047-4.0781-5.1133-2.3516-6.1328 0.011719-2.543 0.023437-2.3164 1.4414-2.0156 2.4961-0.22656zm0.93359 53.977 34.801-20.09-5.2812 12.047-29.52 17.039zm-0.93359 25.594 4.1172 5.1602 2.3516 6.1445-0.023437 4.8359-1.4531 2.0039-2.5078 0.23828-3.0117-1.7539v-0.011718l-1.2266-0.70312-4.0938-5.1367-2.3516-6.1445 0.011718-2.5195 0.023438-2.3281 1.4414-2.0156 2.4961-0.22656zm0.93359 53.977 34.801-20.09-5.2812 12.047-29.52 17.039zm-0.92188 25.609 4.1055 5.125 2.3516 6.1445-0.023437 4.8477-1.4531 2.0273-2.4961 0.20312-4.2227-2.4258-4.1172-5.1484-2.3398-6.1445 0.011719-2.5195 0.023438-2.3164 1.4414-2.0273 2.4961-0.22656zm41.387-26.172c-0.14453-0.14453-0.16797-0.34766-0.33594-0.44531l-5.5195-3.2148c-0.058594-0.023437-0.13281 0.011719-0.19141-0.023437v-0.023437l0.070312-0.16797v-0.011719l0.10938-0.25391c0-0.023438 0.011719-0.023438 0.023438-0.035156l5.9023-13.441v6.3828 0.011718 0.023438l0.14453 10.691c0 0.046875 0.046875 0.085938 0.058593 0.13281v0.50391c-0.082031-0.058594-0.17578-0.070313-0.26172-0.12891zm-1.5938-28.777-38.867 22.43v-9l8.6758-4.9922 0.85156-0.12109c0.10938-0.011719 0.15625-0.13281 0.26562-0.15625 0.28906-0.070312 0.57422-0.085937 0.83984-0.22656l30.098-17.375v5.2305zm-30.723 2.4375-0.85156 0.12109c-0.21484 0.023437-0.32422 0.23828-0.51562 0.30078-0.19141 0.058594-0.40625-0.035156-0.58984 0.070312l-6.2031 3.5898v-6.9375c0.27734 0.097656 0.55078 0.23828 0.85156 0.23828h0.011718c0.097657 0 0.17969 0 0.26563-0.011719l4.8125-0.43359c0.097656-0.011719 0.14453-0.10938 0.23828-0.13281 0.33594-0.058593 0.67188-0.085937 0.99609-0.26562l33.539-19.355v4.0312zm3.3594-12.891 0.011719-3.4219c0-0.20312-0.17969-0.32422-0.21484-0.51562-0.023438-0.20312 0.085937-0.37109 0.011718-0.5625l-2.7227-7.1289c-0.058594-0.15625-0.23828-0.19141-0.32422-0.32422-0.085937-0.15625-0.023437-0.32422-0.13281-0.46875l-4.7539-5.9414c-0.13281-0.15625-0.34766-0.15625-0.49219-0.26562-0.15625-0.13281-0.16797-0.34766-0.34766-0.44531l-3.0859-1.8008 29.734-17.172 3.2148-0.27734 4.2227 2.4492 4.0781 5.1133v13.922zm28.969-40.332c-0.15625-0.14453-0.16797-0.34766-0.34766-0.46875l-5.5195-3.1914c-0.058594-0.046874-0.12109 0-0.19141-0.023437v-0.046875l0.058593-0.14453v-0.011719l0.10938-0.25391c0-0.023438 0.011718-0.023438 0.023437-0.035156l5.9023-13.465v6.3945 0.023437 0.023438l0.14453 10.691c0 0.046875 0.046875 0.085938 0.058594 0.13281v0.49219c-0.070313-0.070312-0.16406-0.070312-0.23828-0.11719zm-1.6055-28.812-38.867 22.453v-9l8.6641-5.0156 0.82812-0.097657c0.10938-0.011718 0.15625-0.12109 0.25391-0.14453 0.30078-0.070312 0.60156-0.070312 0.88672-0.23828l30.098-17.387v5.2305zm-30.723 2.4609-0.81641 0.10938c-0.21484 0.023438-0.32422 0.22656-0.52734 0.28906-0.20313 0.058594-0.42188-0.023438-0.61328 0.097656l-6.2031 3.5742v-6.9258c0.27734 0.097656 0.55078 0.23828 0.85156 0.23828h0.011718c0.097657 0 0.17969 0 0.26563-0.011719l4.8125-0.43359c0.097656-0.011718 0.14453-0.10938 0.23828-0.13281 0.33594-0.058594 0.67188-0.085938 0.99609-0.26562l33.539-19.355v4.0312zm3.3594-12.887 0.011719-3.4219c0-0.21484-0.17969-0.33594-0.21484-0.53906-0.023438-0.19141 0.085937-0.37109 0.011718-0.5625l-2.7227-7.1055c-0.058594-0.16797-0.23828-0.21484-0.32422-0.34766-0.085937-0.13281-0.023437-0.32422-0.13281-0.45703l-4.7539-5.9414c-0.13281-0.16797-0.34766-0.14453-0.49219-0.26563-0.14453-0.12109-0.16797-0.33594-0.34766-0.45703l-3.0703-1.7773 29.723-17.16 3.2148-0.27734 4.2109 2.4375 4.0938 5.1133v13.922zm28.969-40.332c-0.14453-0.13281-0.16797-0.34766-0.34766-0.44531l-5.5195-3.2148c-0.058594-0.046875-0.13281 0-0.19141-0.035156v-0.011719l0.070312-0.16797v-0.011718l0.10938-0.25391c0-0.023437 0.011719-0.023437 0.023438-0.035156l5.9023-13.441v6.3828 0.011719 0.023438l0.14453 10.668c0 0.058594 0.046875 0.097656 0.058593 0.14453v0.51562c-0.082031-0.058593-0.17578-0.058593-0.25-0.12891zm-1.6055-28.789-38.867 22.43v-9l8.6641-5.0156 0.82812-0.097656c0.10938-0.011719 0.15625-0.12109 0.25391-0.14453 0.30078-0.070313 0.60156-0.070313 0.88672-0.23828l30.098-17.387v5.2305zm-30.723 2.4375-0.81641 0.10938c-0.21484 0.023437-0.32422 0.22656-0.52734 0.28906-0.20313 0.070313-0.42188-0.023437-0.61328 0.097657l-6.2031 3.5742v-6.9258c0.27734 0.097656 0.55078 0.23828 0.85156 0.23828h0.011718c0.085938 0 0.16797 0 0.26563-0.011718l4.8125-0.42188c0.097656-0.011718 0.14453-0.10937 0.23828-0.13281 0.33594-0.046875 0.68359-0.085938 0.99609-0.25391l33.539-19.379v4.0312zm3.3594-12.879 0.011719-3.4336c0-0.21484-0.17969-0.33594-0.21484-0.53906-0.023438-0.19141 0.085937-0.37109 0.011718-0.5625l-2.7227-7.1055c-0.058594-0.16797-0.23828-0.21484-0.32422-0.34766-0.085937-0.13281-0.023437-0.32422-0.13281-0.45703l-4.7539-5.9414c-0.13281-0.16797-0.33594-0.14453-0.49219-0.26562-0.14453-0.13281-0.16797-0.33594-0.34766-0.45703l-3.0859-1.7773 29.734-17.16 3.2148-0.27734 4.2109 2.4375 4.0938 5.1133v13.922zm28.969-40.344c-0.14453-0.13281-0.16797-0.34766-0.34766-0.44531l-5.5195-3.2031c-0.058594-0.035156-0.13281 0-0.20312-0.023438v-0.023437l0.070312-0.16797 0.097657-0.20312v-0.035156c0.011719-0.011719 0.035156-0.023437 0.035156-0.046875l5.9023-13.465v6.4062 0.011719 0.023437l0.14453 10.656c0 0.058594 0.046875 0.097657 0.058594 0.14453v0.023437c0 0.070313-0.011719 0.13281 0 0.21484v0.27734c-0.070313-0.070313-0.16406-0.070313-0.23828-0.14453zm-1.6055-28.797-38.867 22.441v-9l8.6641-5.0039 0.82812-0.097656c0.10938-0.011718 0.15625-0.12109 0.25391-0.14453 0.30078-0.058594 0.60156-0.070313 0.88672-0.23828l30.098-17.375v5.2188zm-30.723 2.457-0.81641 0.097656c-0.21484 0.023438-0.32422 0.22656-0.52734 0.30078-0.20313 0.058594-0.42188-0.023437-0.60156 0.085938l-6.2031 3.5742v-6.9375c0.27734 0.085937 0.5625 0.22656 0.85156 0.22656h0.011719c0.085938 0 0.16797 0 0.26562-0.011719l4.8125-0.42188c0.097656-0.011718 0.14453-0.10938 0.23828-0.12109 0.33594-0.058593 0.68359-0.085937 0.99609-0.26562l33.539-19.367v4.0195zm3.3594-12.887 0.011719-3.4336c0-0.20312-0.17969-0.33594-0.21484-0.52734-0.023438-0.19141 0.085937-0.37109 0.011718-0.5625l-2.7227-7.1055c-0.058594-0.15625-0.23828-0.20312-0.32422-0.33594-0.085937-0.14453-0.023437-0.32422-0.13281-0.46875l-4.7539-5.9531c-0.13281-0.15625-0.34766-0.14453-0.50391-0.27734-0.14453-0.13281-0.16797-0.34766-0.33594-0.44531l-3.0859-1.7891 29.734-17.16 3.2148-0.27734 4.2109 2.4492 4.0938 5.1133v13.922zm28.969-40.355c-0.15625-0.13281-0.16797-0.34766-0.34766-0.45703l-5.5195-3.2031c-0.058594-0.035156-0.13281 0-0.19141-0.023438v-0.011718l0.070312-0.16797 0.13281-0.28906 5.9023-13.465v6.4062 0.011719 0.023437l0.14453 10.68c0 0.046876 0.046875 0.085938 0.058593 0.13281v0.011719c0 0.070312-0.011718 0.13281 0 0.21484v0.26562c-0.082031-0.070312-0.17578-0.070312-0.25-0.12891zm-1.6055-28.801-38.867 22.453v-9l8.6992-5.0039 0.86328-0.13281c0.10938-0.011719 0.16797-0.13281 0.26562-0.16797 0.26562-0.058593 0.53906-0.058593 0.79297-0.21484l30.098-17.352v5.207zm-30.746 2.4609-0.86328 0.13281c-0.20312 0.023437-0.30078 0.22656-0.49219 0.28906-0.19141 0.058593-0.39453-0.023438-0.57422 0.070312l-6.2031 3.5742v-6.9375c0.27734 0.085937 0.5625 0.22656 0.85156 0.22656h0.011719c0.085937 0 0.16797 0 0.26562-0.011719l4.8125-0.42187c0.097656-0.011719 0.14453-0.10938 0.23828-0.12109 0.33594-0.058594 0.68359-0.085938 0.99609-0.26562l33.539-19.367v4.0195zm3.3828-12.875 0.011719-3.4453c0-0.20312-0.17969-0.33594-0.21484-0.52734-0.023438-0.19141 0.085937-0.37109 0.011718-0.5625l-2.7227-7.1055c-0.058594-0.15625-0.23828-0.20313-0.32422-0.33594-0.085937-0.14453-0.023437-0.32422-0.13281-0.46875l-4.7539-5.9531c-0.13281-0.15625-0.34766-0.14453-0.50391-0.27734-0.14453-0.13281-0.16797-0.34766-0.33594-0.44531l-3.0703-1.7891 29.723-17.16 3.2031-0.26562 4.2227 2.4492 4.0938 5.1133v13.906zm28.969-40.348c-0.14453-0.13281-0.16797-0.34766-0.34766-0.45703l-5.5195-3.2031c-0.058594-0.035156-0.13281 0-0.20312-0.023438v-0.011718l0.070312-0.17969 0.13281-0.28906 5.9023-13.453v6.3945 0.011719 0.023437l0.14453 10.691c0 0.046876 0.046875 0.085938 0.058594 0.13281v0.50391c-0.070313-0.066406-0.16406-0.066406-0.23828-0.14062zm-1.6055-28.797-38.867 22.453v-9l8.6875-5.0156 0.85156-0.12109c0.10938-0.011719 0.15625-0.13281 0.25391-0.15625 0.27734-0.058594 0.5625-0.070313 0.82812-0.22656l30.098-17.375-0.003906 5.2266zm-30.734 2.457-0.85156 0.12109c-0.21484 0.023438-0.3125 0.22656-0.50391 0.30078-0.19141 0.058593-0.39453-0.023438-0.57422 0.070312l-6.2031 3.5742v-6.9609c0.27734 0.085938 0.5625 0.22656 0.85156 0.22656h0.011719c0.085937 0 0.16797 0 0.25391-0.011719l4.8125-0.39453c0.097656 0 0.13281-0.097656 0.22656-0.12109 0.34766-0.046875 0.70703-0.085938 1.0312-0.27734l33.539-19.379v4.0195zm3.3711-12.875 0.011719-3.457c0-0.20312-0.17969-0.33594-0.21484-0.52734-0.023438-0.19141 0.085937-0.37109 0.011718-0.5625l-2.7227-7.1055c-0.058594-0.15625-0.23828-0.20312-0.32422-0.33594-0.085937-0.14453-0.023437-0.32422-0.13281-0.46875l-4.7539-5.9531c-0.13281-0.15625-0.34766-0.14453-0.50391-0.27734-0.14453-0.13281-0.16797-0.34766-0.34766-0.44531l-3.0859-1.7773 29.734-17.172 3.2148-0.26562 4.2109 2.4375 4.0938 5.125v13.922zm-11.508-30.793v-9.0117l34.801-20.062-5.2812 12.035zm40.465-9.5742c-0.14453-0.13281-0.16797-0.34766-0.33594-0.44531l-5.5195-3.1914c-0.058594-0.035156-0.13281 0-0.19141-0.023437v-0.023438l0.085937-0.19141v-0.011719l0.10938-0.22656v-0.011719c0-0.011719 0.011719-0.011719 0.023438-0.023437l5.9023-13.453v6.3828 0.011719 0.023437l0.14453 10.703c0 0.046875 0.046875 0.085938 0.058594 0.13281v0.49219c-0.097657-0.085937-0.19141-0.085937-0.27734-0.14453zm-1.5938-28.789-38.867 22.414v-8.9648l8.6875-5.0156 0.85156-0.12109c0.10938-0.011718 0.15625-0.13281 0.25391-0.15625 0.27734-0.058593 0.5625-0.070312 0.82812-0.22656l30.098-17.352v5.207zm-30.746 2.4609-0.83984 0.12109c-0.21484 0.023437-0.3125 0.22656-0.50391 0.30078-0.19141 0.058594-0.39453-0.023437-0.57422 0.070313l-6.2031 3.5742v-6.9609c0.27734 0.085937 0.5625 0.22656 0.85156 0.22656h0.011719c0.085937 0 0.16797 0 0.26562-0.011719l4.8125-0.42187c0.097657-0.011719 0.14453-0.10938 0.23828-0.12109 0.33594-0.058594 0.68359-0.085938 0.99609-0.26562l33.539-19.355v4.0312zm-4.9414-21.926 2.3516 6.1211-0.023437 4.8594-1.4531 2.0039-2.5078 0.22656-3.0352-1.7539-1.2227-0.70703-4.0664-5.1016-2.3516-6.168 0.011719-2.5312 0.023437-2.3164 1.4414-2.0156 2.4961-0.21484 4.2227 2.4492zm-9.1836-32.469v14.41l-16.871 9.7422c-0.035156 0.023438-0.035156 0.085938-0.085937 0.10938v-42.719l16.957 9.793zm-5.1094 42.309h-2.6641v-5.6758l1.5469 4.0547c0.070312 0.19141 0.25391 0.28906 0.35937 0.45703 0.058594 0.10938 0.011719 0.25391 0.097657 0.34766zm-11.773 2.9414 4.6094 2.6641c0.48047 0.27734 0.99609 0.40625 1.5 0.40625h10.766v45.66l-16.871 9.7305c-0.035156 0.023438-0.035156 0.085938-0.085938 0.10938v-58.668c0.046875 0.015626 0.046875 0.074219 0.082032 0.097657zm11.785 76.645h-2.6758v-5.6992l1.5469 4.043c0.070312 0.19141 0.25391 0.27734 0.34766 0.44531 0.058594 0.10938 0.011718 0.25391 0.097656 0.35938zm-11.785 2.9414 4.6094 2.6641c0.48047 0.27734 0.99609 0.40625 1.5 0.40625h10.766v45.645l-16.871 9.7422c-0.035156 0.023437-0.035156 0.085937-0.085938 0.10937v-58.668c0.046875 0.015625 0.046875 0.074218 0.082032 0.10156zm11.773 76.605h-2.6641v-5.6641l1.5469 4.043c0.070312 0.19141 0.25391 0.28906 0.35937 0.45703 0.058594 0.10938 0.011719 0.25391 0.097657 0.34766zm-11.762 2.9531 4.6094 2.6523c0.46875 0.26562 0.98438 0.39453 1.5 0.39453h10.766v45.672l-16.871 9.7422c-0.035156 0.023437-0.035156 0.085937-0.085937 0.10937v-58.691c0.035156 0.035156 0.035156 0.097656 0.082031 0.12109zm11.762 76.621h-2.6641v-5.6641l1.5469 4.043c0.070312 0.19141 0.25391 0.28906 0.35937 0.45703 0.058594 0.10938 0.011719 0.25391 0.097657 0.34766zm-11.762 2.9492 4.6094 2.6523c0.46875 0.26562 0.98438 0.39453 1.5 0.39453h10.766v45.668l-16.871 9.7305c-0.035156 0.023437-0.035156 0.097656-0.085937 0.12109v-58.691c0.035156 0.042969 0.035156 0.10156 0.082031 0.125zm11.762 76.621h-2.6641v-5.6758l1.5469 4.0547c0.070312 0.19141 0.25391 0.27734 0.35937 0.44531 0.058594 0.10938 0.011719 0.25391 0.097657 0.34766zm-11.762 2.9648 4.6094 2.6406c0.46875 0.26562 0.98438 0.39453 1.4883 0.39453h10.766v45.648l-16.871 9.7422c-0.035156 0.023438-0.035156 0.070313-0.085938 0.097657v-58.668c0.058594 0.046875 0.058594 0.10938 0.09375 0.14453zm11.762 76.609h-2.6641v-5.6641l1.5469 4.0312c0.070312 0.20313 0.25391 0.28906 0.35937 0.45703 0.058594 0.10938 0.011719 0.25391 0.097657 0.33594zm-11.773 2.9492 4.6094 2.6523c0.48047 0.27734 0.99609 0.40625 1.5 0.40625h10.766v45.66l-16.871 9.7422c-0.035156 0.023438-0.035156 0.070313-0.085938 0.097657v-58.691c0.046875 0.039063 0.046875 0.10938 0.082032 0.13281zm11.773 76.609h-2.6641v-5.6641l1.5469 4.0547c0.070312 0.19141 0.25391 0.27734 0.35937 0.44531 0.058594 0.10938 0.011719 0.25391 0.097657 0.34766zm-11.762 2.9531 4.6094 2.6523c0.46875 0.26562 0.98438 0.39453 1.5 0.39453h10.766v45.668l-16.871 9.7422c-0.035156 0.023437-0.035156 0.070313-0.085937 0.097656v-58.691c0.035156 0.050781 0.035156 0.11328 0.082031 0.13672zm11.75 76.617h-2.6523v-5.6641l1.5469 4.043c0.070312 0.19141 0.25391 0.27734 0.34766 0.44531 0.070312 0.12109 0.023437 0.25391 0.10938 0.35938zm57.766-95.664c0-0.070313 0.070313-0.13281 0.070313-0.20312l0.003906-15.887v-63.305c0-0.070313-0.070312-0.10938-0.070312-0.17969s0.070312-0.12109 0.070312-0.19141v-79.191c0-0.070313-0.070312-0.12109-0.070312-0.19141 0-0.070312 0.070312-0.12109 0.070312-0.19141v-79.203c0-0.070312-0.070312-0.10938-0.070312-0.17969 0-0.070312 0.070312-0.12109 0.070312-0.19141v-79.195c0-0.070313-0.070312-0.10938-0.070312-0.17969 0-0.070312 0.070312-0.12109 0.070312-0.19141v-79.188c0-0.070312-0.070312-0.12109-0.070312-0.19141 0-0.070313 0.070312-0.12109 0.070312-0.20312v-79.188c0-0.070313-0.070312-0.10938-0.070312-0.17969 0-0.070312 0.070312-0.12109 0.070312-0.19141v-4.2344l7.7656 4.5v619.03l-7.7656-4.5v-57.41c0-0.085938-0.070312-0.12109-0.085938-0.20312 0-0.070313 0.085938-0.12109 0.085938-0.20312v-79.191c0-0.070313-0.074219-0.10547-0.074219-0.16797zm42.828-457.16 7.7773 4.4883-13.777 7.9453v-8.9766zm16.094 9.2773 18.613 10.754v6.3477l-29.207 16.859 0.019532-3.4453c0-0.20312-0.17969-0.33594-0.21484-0.52734-0.023438-0.20312 0.085937-0.37109 0.011718-0.5625l-2.7227-7.1172c-0.058594-0.15625-0.23828-0.20312-0.32422-0.33594-0.085938-0.14453-0.023438-0.32422-0.13281-0.46875l-4.7539-5.9531c-0.13281-0.16797-0.34766-0.15625-0.50391-0.27734-0.14453-0.13281-0.16797-0.34766-0.34766-0.45703l-3.0586-1.7656zm-10.789 587c-0.023438-0.20312 0.085937-0.37109 0.011718-0.5625l-2.7227-7.1289c-0.058594-0.16797-0.23828-0.21484-0.32422-0.34766-0.085938-0.13281-0.023438-0.32422-0.13281-0.45703l-4.7539-5.9414c-0.13281-0.16797-0.34766-0.14453-0.50391-0.26562-0.15625-0.12109-0.16797-0.34766-0.34766-0.45703l-3.0859-1.7656 29.746-17.184 3.2031-0.26562 4.2227 2.4375 4.0781 5.1016v13.922l-29.207 16.859 0.023437-3.4062c0.007813-0.20312-0.17188-0.34766-0.20703-0.53906zm-12.805-471.06h-0.011718l-1.1523-0.67187-4.1289-5.1602-2.3516-6.1445 0.011719-2.543 0.011718-2.3047 1.4648-2.0156 2.4727-0.21484 4.2344 2.4375 4.1172 5.1484 2.3398 6.1445-0.035157 4.8594-1.4414 2.0039-2.4961 0.21484zm1.5 37.391 34.777-20.102-5.2695 12.023-29.508 17.039zm-0.95703 25.559 4.1289 5.1602 2.3398 6.1211-0.035156 4.8711-1.4414 2.0039-2.5078 0.21484-3.0117-1.7266-1.1523-0.67187-4.1523-5.1953-2.3398-6.1328 0.011719-2.543 0.011719-2.293 1.4648-2.0273 2.4727-0.22656zm0.95703 54 34.789-20.102-5.2812 12.047-29.508 17.039zm-0.93359 25.562 4.1055 5.1484 2.3516 6.1445-0.035156 4.8359-1.4648 2.0508-2.4844 0.20312-3.0352-1.7539-1.1523-0.67188-4.1406-5.1602-2.3516-6.1445 0.011719-2.5547 0.011719-2.293 1.4648-2.0391 2.4727-0.20312zm0.93359 54 34.777-20.09-5.2695 12.023-29.508 17.051zm-0.94531 25.582 4.1172 5.1484 2.3398 6.1445-0.035156 4.8477-1.4531 2.0273-2.4961 0.21484-3.0234-1.7539-1.1641-0.68359-4.1406-5.1602-2.3516-6.1445 0.011719-2.5547 0.011719-2.293 1.4648-2.0391 2.4609-0.19141zm0.94531 53.988 34.777-20.09-5.2695 12.023-29.508 17.051zm-0.94531 25.574 4.1172 5.1602 2.3398 6.1445-0.035156 4.8477-1.4531 2.0156-2.4961 0.22656-3.0234-1.7539v-0.011719l-1.1406-0.66016-4.1523-5.1953-2.3398-6.1211 0.011719-2.5547 0.011719-2.293 1.4648-2.0156 2.4727-0.22656zm0.94531 54 34.789-20.09-5.2812 12.047-29.508 17.051zm-0.94531 25.57 4.1172 5.1602 2.3398 6.1562-0.035156 4.8242-1.4531 2.0273-2.5 0.21484-3.0117-1.7539c0-0.011719-0.011719 0-0.011719 0-0.011718-0.011719-0.011718-0.011719-0.011718-0.023437l-1.1406-0.64844-4.1289-5.1602-2.3516-6.1445 0.011718-2.543 0.011719-2.3047 1.4648-2.0273 2.4727-0.21484zm0.94531 54 34.777-20.062-5.2695 12.023-29.508 17.039zm-0.94531 25.598 4.1172 5.1367 2.3398 6.1562-0.035156 4.8359-1.4531 2.0156-2.4961 0.22656-4.2109-2.4375-4.1172-5.1484-2.3516-6.1445 0.011719-2.543 0.011719-2.3047 1.4648-2.0273 2.4727-0.20312zm41.41-26.16c-0.14453-0.13281-0.16797-0.34766-0.34766-0.44531l-5.5195-3.2148c-0.058593-0.023438-0.13281 0.011719-0.19141-0.023438v-0.023437l0.070313-0.16797v-0.011719l0.13281-0.28906 5.9023-13.453v6.3945 0.023438 0.011718l0.13281 10.691c0 0.058594 0.046874 0.085938 0.058593 0.14453v0.49219c-0.070312-0.058593-0.16797-0.070312-0.23828-0.12891zm-1.6211-28.777-38.844 22.414v-8.9883l8.6875-5.0156 0.80469-0.097657c0.10938-0.011719 0.15625-0.12109 0.25391-0.14453 0.28906-0.070312 0.58984-0.085938 0.86328-0.23828l30.086-17.375v5.2188zm-30.707 2.4375-0.80469 0.10938c-0.21484 0.035156-0.32422 0.22656-0.52734 0.28906-0.20312 0.058593-0.40625-0.023438-0.60156 0.097656l-6.2148 3.5898v-6.9375c0.27734 0.070312 0.53906 0.21484 0.82812 0.21484 0 0 0 0.011719 0.011719 0.011719 0.085938 0 0.16797-0.011719 0.26562-0.011719l4.8125-0.42187c0.097656-0.011719 0.14453-0.10938 0.23828-0.12109 0.33594-0.070313 0.68359-0.097656 0.99609-0.27734l33.539-19.355v4.0312zm3.3594-12.891 0.023438-3.4062c0-0.20312-0.17969-0.33594-0.21484-0.52734-0.023438-0.20312 0.085937-0.37109 0.011718-0.5625l-2.7227-7.1289c-0.058594-0.16797-0.23828-0.21484-0.32422-0.34766-0.085938-0.13281-0.023438-0.32422-0.13281-0.45703l-4.7539-5.9531c-0.13281-0.16797-0.34766-0.15625-0.50391-0.26562-0.14453-0.14453-0.16797-0.34766-0.34766-0.45703l-3.0703-1.7656 29.734-17.172 3.2148-0.26563 4.1992 2.4258 4.0781 5.1016v13.934zm28.957-40.355c-0.14453-0.13281-0.16797-0.34766-0.34766-0.45703l-5.5195-3.1914c-0.058594-0.023438-0.12109 0.011719-0.19141-0.023438v-0.046874l0.035156-0.070313 0.13281-0.27734v-0.046875c0.011719-0.011718 0.035156-0.023437 0.035156-0.046875l5.9023-13.465v6.4062 0.023437 0.011719l0.13281 10.68c0 0.046875 0.046875 0.085938 0.058593 0.14453v0.023438c0 0.070312-0.011718 0.13281 0 0.21484v0.25391c-0.070312-0.070312-0.15625-0.070312-0.23828-0.13281zm-1.5977-28.789-38.855 22.441v-8.9883l8.6992-5.0156 0.81641-0.12109c0.10938 0 0.15625-0.12109 0.25391-0.14453 0.28906-0.070312 0.57422-0.070312 0.85156-0.23828l30.086-17.352v5.2422zm-30.719 2.4609-0.82812 0.12109c-0.21484 0.023438-0.3125 0.21484-0.50391 0.27734-0.20312 0.070312-0.40625-0.023438-0.60156 0.085938l-6.2148 3.5742v-6.9102c0.27734 0.070312 0.53906 0.21484 0.82812 0.21484 0 0 0 0.011718 0.011719 0.011718 0.085938 0 0.16797-0.011718 0.26562-0.011718l4.8125-0.42188c0.097656-0.011719 0.14453-0.10938 0.23828-0.12109 0.33594-0.070313 0.68359-0.097656 0.99609-0.27734l33.539-19.332v4.0078zm3.3594-12.887 0.023438-3.4219c0-0.21484-0.17969-0.32422-0.21484-0.52734-0.023438-0.20312 0.085937-0.37109 0.011718-0.57422l-2.7227-7.1055c-0.058594-0.16797-0.23828-0.21484-0.32422-0.34766-0.085938-0.13281-0.023438-0.32422-0.13281-0.45703l-4.7539-5.9531c-0.13281-0.16797-0.34766-0.15625-0.50391-0.26562-0.14453-0.14453-0.16797-0.34766-0.34766-0.45703l-3.0586-1.7656 29.723-17.172 3.2148-0.26562 4.2109 2.4258 4.0781 5.0898v13.969zm28.957-40.367c-0.14453-0.12109-0.16797-0.33594-0.33594-0.44531l-5.5195-3.1914c-0.058593-0.023438-0.12109 0.011718-0.19141-0.023438v-0.023438l0.070313-0.16797v-0.023438s0.011719-0.011718 0.023437-0.023437l0.12109-0.28906 5.8906-13.441v6.4219 0.023437 0.011719l0.13281 10.68c0 0.046875 0.046874 0.085937 0.058593 0.14453v0.49219c-0.082031-0.074219-0.17969-0.074219-0.25-0.14453zm-1.5977-28.777-38.855 22.453v-8.9883l8.7344-5.0273 0.82812-0.13281c0.10938-0.011719 0.15625-0.13281 0.25391-0.15625 0.27734-0.058594 0.55078-0.070312 0.80469-0.21484l30.086-17.34v5.2305zm-30.754 2.4609-0.82812 0.13281c-0.20312 0.035157-0.28906 0.22656-0.48047 0.28906-0.19141 0.058594-0.39453-0.035156-0.57422 0.070313l-6.2148 3.5898v-6.9375c0.27734 0.070313 0.53906 0.21484 0.82813 0.21484 0 0 0 0.011719 0.011718 0.011719 0.085938 0 0.16797-0.011719 0.25391-0.011719l4.8125-0.40625c0.097657-0.011719 0.13281-0.10938 0.22656-0.12109 0.34766-0.058593 0.69531-0.085937 1.0195-0.26562l33.539-19.367v4.0195zm3.3945-12.875 0.023438-3.4336c0-0.21484-0.17969-0.32422-0.21484-0.52734-0.023438-0.20312 0.085937-0.37109 0.011718-0.57422l-2.7227-7.1055c-0.058594-0.16797-0.23828-0.21484-0.32422-0.34766-0.085938-0.13281-0.023438-0.32422-0.13281-0.45703l-4.7539-5.9531c-0.13281-0.16797-0.34766-0.15625-0.50391-0.26562-0.14453-0.14453-0.16797-0.34766-0.34766-0.45703l-3.0859-1.7656 29.746-17.16 3.2148-0.27734 4.2227 2.4375 4.0664 5.0898v13.945zm28.957-40.348c-0.14453-0.14453-0.16797-0.34766-0.33594-0.44531l-5.5195-3.2148c-0.058593-0.023438-0.13281 0.011718-0.19141-0.023438v-0.023438l0.070313-0.19141 0.13281-0.28906 5.9023-13.465v6.4336 0.011718 0.023438l0.13281 10.68c0 0.058593 0.046874 0.085937 0.058593 0.14453v0.49219c-0.082031-0.082031-0.16797-0.082031-0.25-0.13281zm-1.6094-28.809-38.844 22.441v-8.9883l8.6875-5.0156 0.82812-0.12109c0.10938 0 0.15625-0.12109 0.25391-0.14453 0.28906-0.070313 0.57422-0.070313 0.85156-0.23828l30.086-17.363v5.2188zm-30.707 2.457-0.82812 0.12109c-0.21484 0.023437-0.3125 0.22656-0.50391 0.27734-0.19141 0.070312-0.40625-0.023438-0.58984 0.097656l-6.2148 3.5898v-6.9492c0.27734 0.085938 0.53906 0.22656 0.82812 0.22656h0.011719c0.085938 0 0.16797 0 0.25391-0.011718l4.8125-0.39453c0.097656-0.011718 0.13281-0.10937 0.22656-0.12109 0.34766-0.058594 0.70703-0.085938 1.0312-0.26562l33.539-19.367v3.9961zm3.3594-12.875 0.023438-3.4453c0-0.20312-0.17969-0.33594-0.21484-0.52734-0.023438-0.20312 0.085937-0.37109 0.011718-0.5625l-2.7227-7.1055c-0.058594-0.15625-0.23828-0.20312-0.32422-0.34766-0.070313-0.14453-0.023438-0.3125-0.13281-0.45703l-4.7539-5.9648c-0.13281-0.15625-0.34766-0.14453-0.49219-0.26562-0.15625-0.13281-0.17969-0.35938-0.35938-0.46875l-3.0703-1.7539 29.734-17.16 3.2266-0.28906 4.1992 2.4258 4.0781 5.1016v13.957zm28.957-40.367c-0.14453-0.13281-0.16797-0.34766-0.34766-0.45703l-5.5195-3.1914c-0.058594-0.035156-0.13281 0-0.19141-0.023437v-0.035157l0.070312-0.16797 0.10938-0.23828v-0.011718c0-0.011719 0.011719-0.011719 0.023437-0.023438l5.9023-13.465v6.4219 0.011718 0.011719l0.13281 10.68c0 0.046876 0.046875 0.085938 0.058593 0.14453v0.011718c0 0.070313-0.011718 0.13281 0 0.21484v0.25391c-0.070312-0.078124-0.15625-0.078124-0.23828-0.13672zm-1.6094-28.777-38.844 22.441v-9l8.7109-5.0156 0.82812-0.12109c0.10938-0.011719 0.15625-0.13281 0.26562-0.15625 0.27734-0.058594 0.55078-0.070313 0.81641-0.21484l30.086-17.363v5.2305zm-30.719 2.4492-0.83984 0.12109c-0.20312 0.023438-0.30078 0.22656-0.50391 0.28906-0.20312 0.058594-0.39453-0.023437-0.57422 0.070313l-6.2148 3.5742v-6.9375c0.27734 0.085938 0.53906 0.21484 0.82812 0.21484h0.011719c0.085937 0 0.16797 0 0.25391-0.011719l4.8125-0.40625c0.097656 0 0.13281-0.097656 0.22656-0.12109 0.34766-0.058594 0.69531-0.085938 1.0195-0.27734l33.539-19.344v4.0078zm3.3711-12.875 0.023438-3.4453c0-0.20312-0.17969-0.33594-0.21484-0.52734-0.023438-0.20312 0.085937-0.37109 0.011718-0.5625l-2.7227-7.1055c-0.058594-0.15625-0.23828-0.20312-0.32422-0.33594-0.085938-0.14453-0.023438-0.32422-0.13281-0.46875l-4.7539-5.9531c-0.13281-0.16797-0.34766-0.15625-0.50391-0.27734-0.14453-0.13281-0.16797-0.34766-0.33594-0.44531l-3.0586-1.7656 29.723-17.172 3.2148-0.26562 4.2109 2.4258 4.0781 5.0898v13.969zm28.957-40.371c-0.15625-0.13281-0.16797-0.34766-0.34766-0.45703l-5.5195-3.1797c-0.058594-0.035156-0.12109 0-0.17969-0.023437v-0.023438l0.070313-0.17969 0.13281-0.28906 5.9023-13.465v6.4219 0.011719 0.011719l0.13281 10.68c0 0.046874 0.046874 0.085937 0.058593 0.14453v0.48047c-0.082031-0.070313-0.17969-0.070313-0.25-0.13281zm-1.6094-28.773-38.844 22.453v-9l8.7344-5.0273 0.82812-0.12109c0.10938-0.011719 0.15625-0.13281 0.25391-0.15625 0.26563-0.070313 0.53906-0.070313 0.79297-0.21484l30.086-17.363v5.2305zm-30.73 2.4492-0.83984 0.13281c-0.20312 0.023437-0.28906 0.22656-0.48047 0.28906-0.19141 0.058594-0.39453-0.023437-0.57422 0.070313l-6.2148 3.5742v-6.9492c0.27734 0.085937 0.53906 0.21484 0.82813 0.21484h0.011718c0.085938 0 0.16797 0 0.25391-0.011719l4.8125-0.40625c0.097657 0 0.13281-0.097657 0.22656-0.12109 0.34766-0.058594 0.69531-0.085937 1.0195-0.27734l33.539-19.355v4.0195zm3.3828-12.891 0.023438-3.4219c0-0.20312-0.17969-0.33594-0.21484-0.52734-0.023438-0.20312 0.085937-0.37109 0.011718-0.5625l-2.7227-7.1172c-0.058594-0.15625-0.23828-0.20312-0.32422-0.33594-0.085938-0.14453-0.023438-0.32422-0.13281-0.46875l-4.7539-5.9531c-0.13281-0.16797-0.34766-0.15625-0.50391-0.27734-0.14453-0.13281-0.16797-0.34766-0.34766-0.45703l-3.0703-1.7656 29.734-17.172 3.2148-0.26563 4.2109 2.4258 4.0781 5.0898v13.957zm-11.496-30.777v-9l34.777-20.074-5.2695 12.023zm40.453-9.5781c-0.14453-0.12109-0.16797-0.33594-0.33594-0.44531l-5.5195-3.1914c-0.058593-0.035156-0.13281 0-0.19141-0.023438v-0.046875l0.070313-0.16797 0.13281-0.28906 5.9023-13.465v6.4219 0.011719 0.011719l0.13281 10.691c0 0.046875 0.046874 0.085937 0.058593 0.14453v0.48047c-0.082031-0.0625-0.17969-0.074219-0.25-0.13281zm-1.6094-28.777-38.844 22.441v-8.9883l8.6875-5.0273 0.80469-0.097656c0.10938-0.011719 0.15625-0.12109 0.25391-0.14453 0.28906-0.058593 0.58984-0.070312 0.86328-0.23828l30.086-17.375v5.2188zm-30.707 2.4492-0.80469 0.097656c-0.21484 0.023437-0.32422 0.22656-0.52734 0.30078-0.20312 0.058594-0.40625-0.023437-0.60156 0.085937l-6.2148 3.5898v-6.9492c0.27734 0.085937 0.53906 0.22656 0.82812 0.22656h0.011719c0.085938 0 0.16797 0 0.25391-0.011719l4.8125-0.40625c0.097656 0 0.13281-0.097656 0.22656-0.12109 0.34766-0.058594 0.69531-0.085938 1.0195-0.27734l33.539-19.367v4.0078zm-4.9688-21.938 2.3398 6.1445-0.035157 4.8594-1.4531 2.0156-2.4961 0.21484-3.0234-1.7539-1.1758-0.67188-4.1172-5.125-2.3516-6.168 0.011719-2.543 0.011718-2.293 1.4648-2.0391 2.4727-0.21484 4.2344 2.4375zm-9.168-32.457v14.387l-16.883 9.7422c-0.046875 0.023438-0.046875 0.097657-0.097656 0.12109v-42.695l16.98 9.793zm-5.1211 42.324h-2.6797v-5.7109l1.5586 4.0781c0.070312 0.19141 0.25391 0.28906 0.35938 0.45703 0.058594 0.10938 0.011718 0.25391 0.097656 0.34766zm-11.773 2.9258 4.5977 2.6641c0.48047 0.27734 0.99609 0.40625 1.5 0.40625h10.789v45.645l-16.883 9.7422c-0.046875 0.023437-0.046875 0.097656-0.097656 0.12109v-58.703c0.046875 0.042969 0.046875 0.10156 0.09375 0.125zm11.773 76.633h-2.6797v-5.6992l1.5586 4.0781c0.070312 0.19141 0.25391 0.28906 0.35938 0.45703 0.058594 0.10938 0.011718 0.25391 0.097656 0.34766zm-11.773 2.9297 4.5977 2.6641c0.48047 0.27734 0.99609 0.40625 1.5 0.40625h10.789v45.66l-16.883 9.7422c-0.046875 0.023438-0.046875 0.097657-0.097656 0.12109v-58.715c0.046875 0.035157 0.046875 0.09375 0.09375 0.12109zm11.785 76.656h-2.6914v-5.7109l1.5586 4.0781c0.070312 0.19141 0.25391 0.27734 0.34766 0.44531 0.070313 0.10938 0.023437 0.25391 0.10938 0.35938zm-11.773 2.9492 4.5977 2.6523c0.48047 0.26562 0.99609 0.39453 1.5 0.39453h10.789v31.262l-0.003906 14.387-16.883 9.7305c-0.046875 0.023438-0.046875 0.097656-0.097656 0.12109v-58.68c0.050781 0.039063 0.050781 0.097657 0.097656 0.13281zm11.762 76.609h-2.6797v-5.7109l1.5586 4.0781c0.070312 0.20312 0.25391 0.28906 0.35938 0.46875 0.058594 0.097656 0.011718 0.23828 0.097656 0.33594zm-11.762 2.9531 4.5977 2.6523c0.48047 0.26562 0.99609 0.39453 1.5 0.39453h10.789v45.645l-16.883 9.7422c-0.046875 0.023437-0.046875 0.097656-0.097656 0.12109v-58.691c0.046875 0.050782 0.046875 0.10938 0.09375 0.13672zm11.762 76.605h-2.6797v-5.6992l1.5586 4.0781c0.070312 0.19141 0.25391 0.27734 0.35938 0.44531 0.058594 0.12109 0.011718 0.25391 0.097656 0.34766zm-11.762 2.9648 4.5977 2.6406c0.46875 0.26563 0.98438 0.39453 1.5 0.39453h10.789v45.656l-16.883 9.7422c-0.046875 0.023438-0.046875 0.097657-0.097656 0.12109v-58.691c0.046875 0.039062 0.046875 0.10156 0.09375 0.13672zm11.773 76.621h-2.6914v-5.7109l1.5586 4.0781c0.070312 0.19141 0.25391 0.27734 0.34766 0.44531 0.070313 0.10938 0.023437 0.25391 0.10938 0.34766zm-11.785 2.9375 4.5977 2.6523c0.48047 0.27734 0.99609 0.40625 1.5 0.40625h10.789v45.656l-16.883 9.7422c-0.046875 0.023438-0.046875 0.097657-0.097656 0.12109v-58.715c0.046875 0.042969 0.046875 0.10156 0.09375 0.13672zm11.773 76.633h-2.6797v-5.7109l1.5586 4.0781c0.070312 0.20312 0.25391 0.28906 0.35938 0.46875 0.058594 0.097657 0.011718 0.23828 0.097656 0.33594zm-11.773 2.9414 4.5977 2.6523c0.48047 0.27734 0.99609 0.40625 1.5 0.40625h10.789v45.656l-16.883 9.7422c-0.046875 0.023438-0.046875 0.097657-0.097656 0.12109v-58.715c0.046875 0.039063 0.046875 0.10156 0.09375 0.13672zm11.773 76.633h-2.6797v-5.7109l1.5586 4.0781c0.070312 0.20312 0.25391 0.28906 0.35938 0.46875 0.058594 0.097656 0.011718 0.23828 0.097656 0.33594zm57.742-413.98c0-0.070312 0.085938-0.13281 0.085938-0.20312v-79.18c0-0.070313-0.070313-0.12109-0.070313-0.19141 0-0.070312 0.070313-0.12109 0.070313-0.20312v-79.18c0-0.070313-0.070313-0.12109-0.070313-0.19141 0-0.070312 0.070313-0.12109 0.070313-0.20312v-4.2227l7.7773 4.5v619.01l-7.7773-4.4766v-57.434c0-0.070313-0.058594-0.10938-0.070313-0.16797 0-0.070313 0.070313-0.12109 0.070313-0.19141v-79.199c0-0.070313-0.070313-0.10938-0.070313-0.17969 0-0.070312 0.070313-0.12109 0.070313-0.19141v-79.199c0-0.085937-0.070313-0.12109-0.070313-0.19141 0-0.085937 0.070313-0.13281 0.070313-0.20312v-79.176c0-0.070313-0.070313-0.10938-0.070313-0.17969 0-0.070312 0.070313-0.13281 0.070313-0.20312v-79.18c0-0.070313-0.070313-0.12109-0.085938-0.19141 0-0.070312 0.085938-0.13281 0.085938-0.20312v-79.176c-0.015626-0.074218-0.085938-0.10938-0.085938-0.19141zm42.828-138.88 7.7891 4.4883-13.789 7.9688v-8.9883zm-6-3.4648m22.078 12.742 18.625 10.738v6.3477l-29.207 16.848 0.023437-3.4219c0-0.20312-0.17969-0.33594-0.21484-0.52734-0.023437-0.20312 0.085938-0.37109 0.011719-0.5625l-2.7344-7.1172c-0.058594-0.15625-0.23828-0.20312-0.32422-0.33594-0.085938-0.14453-0.023438-0.32422-0.13281-0.46875l-4.7539-5.9414c-0.13281-0.15625-0.34766-0.14453-0.49219-0.26562-0.15625-0.13281-0.16797-0.34766-0.34766-0.45703l-3.0703-1.7891zm-10.762 587c-0.035156-0.20312 0.085938-0.38281 0.011719-0.57422l-2.7344-7.1055c-0.058594-0.16797-0.23828-0.20312-0.32422-0.34766-0.070312-0.14453-0.023437-0.30078-0.13281-0.44531l-4.7539-5.9414c-0.13281-0.15625-0.34766-0.15625-0.49219-0.26562-0.15625-0.13281-0.16797-0.34766-0.34766-0.44531l-3.0859-1.8008 29.723-17.172 3.2148-0.27734 4.2109 2.4492 4.0938 5.1016v13.934l-29.207 16.848 0.023438-3.4219c0.015625-0.22266-0.16406-0.33203-0.19922-0.53516zm-12.816-471.05-1.1523-0.67188-4.1523-5.1484-2.3398-6.1562 0.011718-2.5195 0.023438-2.3047 1.4648-2.0273 2.4961-0.22656 4.2109 2.4492 4.1055 5.1484 2.3633 6.1445-0.035156 4.8359-1.4648 2.0156-2.4844 0.22656zm1.5 37.355 34.801-20.062-5.293 12.035-29.508 17.027zm-0.9375 25.598 4.0938 5.1367 2.3633 6.1562-0.035156 4.8477-1.4648 2.0156-2.4844 0.21484-3.0469-1.7656-1.1758-0.67187-4.1172-5.125-2.3516-6.168 0.011719-2.5078 0.023437-2.3164 1.4648-2.0273 2.4961-0.22656zm0.9375 53.988 34.801-20.09-5.293 12.047-29.508 17.027zm-0.9375 25.57 4.0938 5.1484 2.3633 6.1562-0.035156 4.8477-1.4648 2.0156-2.4844 0.22656-3.0352-1.7539-1.1641-0.68359-4.1406-5.1602-2.3398-6.1445 0.011718-2.543 0.023438-2.3047 1.4648-2.0273 2.4961-0.22656zm0.9375 54 34.801-20.102-5.293 12.059-29.508 17.039zm-0.9375 25.598 4.0938 5.1367 2.3633 6.1445-0.035156 4.8477-1.4648 2.0156-2.4961 0.21484-3.0234-1.7383-1.1641-0.68359-4.1406-5.1602-2.3398-6.1445 0.011718-2.543 0.023438-2.3047 1.4648-2.0273 2.4961-0.22656zm0.9375 53.973 34.801-20.09-5.293 12.047-29.508 17.027zm-0.9375 25.574 4.1055 5.1602 2.3633 6.1445-0.035156 4.8477-1.4648 2.0273-2.4844 0.21484-3.0469-1.7656-1.1523-0.66016-4.1406-5.1602-2.3398-6.1445 0.011719-2.5312 0.023438-2.3164 1.4531-2.0273 2.5078-0.21484zm0.9375 54 34.801-20.09-5.2812 12.047-29.508 17.016v-8.9727zm-0.9375 25.594 4.1055 5.1367 2.3516 6.1445-0.035156 4.8477-1.4648 2.0156-2.4844 0.23828-3.0234-1.7734-1.1641-0.68359-4.1406-5.1602-2.3398-6.1445 0.011719-2.5312 0.023438-2.3164 1.4531-2.0156 2.4961-0.22656zm0.9375 53.977 34.801-20.09-5.293 12.047-29.508 17.039zm-0.94922 25.586 4.1055 5.1484 2.3633 6.1445-0.035156 4.8359-1.4648 2.0156-2.4844 0.21484-4.2109-2.4102-4.1406-5.1602-2.3398-6.1445 0.011719-2.5312 0.023437-2.3164 1.4531-2.0156 2.4961-0.22656zm41.414-26.16c-0.14453-0.13281-0.16797-0.33594-0.34766-0.45703l-5.5195-3.1914c-0.058593-0.046875-0.13281 0-0.20312-0.035156v-0.011719l0.070313-0.16797v-0.011719l0.13281-0.28906 5.9141-13.453v6.3945 0.023438 0.023437l0.14453 10.668c0 0.035156 0.046875 0.058594 0.046875 0.10938v0.52734c-0.058594-0.070313-0.16797-0.070313-0.23828-0.12891zm-1.5977-28.801-38.867 22.453v-9l8.6992-5.0156 0.83984-0.10938c0.10937-0.011718 0.15625-0.13281 0.26562-0.15625 0.28906-0.070312 0.57422-0.070312 0.83984-0.23828l30.07-17.363v5.2305zm-30.695 2.4609-0.85156 0.10938c-0.21484 0.035156-0.32422 0.22656-0.51563 0.28906-0.19141 0.058594-0.40625-0.023437-0.58984 0.085938l-6.2148 3.5742v-6.9102c0.27734 0.097656 0.55078 0.23828 0.85156 0.23828h0.011718c0.097656 0 0.17969 0 0.26562-0.011719l4.7891-0.43359c0.097656-0.011719 0.14453-0.10938 0.23828-0.12109 0.33594-0.070312 0.67188-0.097656 0.99609-0.27734l33.551-19.355v4.0312zm3.3359-12.891 0.023437-3.4219c0-0.21484-0.17969-0.32422-0.21484-0.52734-0.023437-0.20312 0.085938-0.37109 0.011719-0.57422l-2.7344-7.1055c-0.058594-0.16797-0.23828-0.21484-0.32422-0.34766-0.085937-0.13281-0.023437-0.32422-0.13281-0.45703l-4.7539-5.9414c-0.13281-0.16797-0.34766-0.14453-0.49219-0.26562-0.15625-0.13281-0.16797-0.34766-0.34766-0.45703l-3.0703-1.7773 29.711-17.16 3.2148-0.27734 4.2227 2.4375 4.0781 5.0898v13.945zm28.945-40.332c-0.14453-0.14453-0.16797-0.34766-0.33594-0.44531l-5.5195-3.2148c-0.058593-0.046875-0.13281 0-0.20312-0.035156v-0.011719l0.085938-0.19141 0.10938-0.23828c0-0.023438 0.011719-0.023438 0.023437-0.035156l5.9141-13.465v6.4062 0.011718 0.023438l0.14453 10.668c0 0.046875 0.046875 0.070312 0.046875 0.12109v0.53906c-0.074219-0.070313-0.18359-0.070313-0.26562-0.13281zm-1.5859-28.809-38.867 22.453v-9l8.6992-5.0156 0.80469-0.097657c0.10938-0.011718 0.15625-0.12109 0.25391-0.14453 0.30078-0.070312 0.61328-0.070312 0.88672-0.23828l30.07-17.387v5.2305zm-30.695 2.4688-0.81641 0.10938c-0.21484 0.023437-0.32422 0.22656-0.51562 0.28906-0.20312 0.070313-0.42188-0.023437-0.61328 0.085938l-6.2148 3.5742v-6.9258c0.27734 0.085938 0.55078 0.22656 0.85156 0.22656 0 0 0 0.011718 0.011719 0.011718 0.085937 0 0.16797-0.011718 0.25391-0.011718l4.7891-0.40625c0.097656-0.011719 0.14453-0.10938 0.23828-0.12109 0.33594-0.058594 0.68359-0.085938 1.0078-0.26562l33.551-19.379v4.0078zm3.3359-12.898 0.023437-3.4219c0-0.21484-0.17969-0.32422-0.21484-0.52734-0.023437-0.20312 0.085938-0.37109 0.011719-0.57422l-2.7344-7.1055c-0.058594-0.16797-0.23828-0.21484-0.32422-0.34766-0.070312-0.14453-0.023437-0.3125-0.13281-0.44531l-4.7539-5.9531c-0.13281-0.16797-0.34766-0.15625-0.50391-0.27734-0.14453-0.13281-0.16797-0.34766-0.34766-0.44531l-3.0703-1.7773 29.723-17.172 3.2148-0.27734 4.2227 2.4492 4.0781 5.0898v13.945zm28.945-40.332c-0.14453-0.14453-0.16797-0.34766-0.33594-0.44531l-5.5195-3.2148c-0.058593-0.046875-0.13281 0-0.20312-0.035156v-0.011719l0.085938-0.20312v-0.011719l0.097656-0.21484v-0.023437l0.023438-0.023438 5.9141-13.453v6.3945 0.023438 0.023438l0.14453 10.668c0 0.046875 0.046875 0.070313 0.046875 0.12109v0.21484 0.097656 0.23828c-0.0625-0.085937-0.17188-0.085937-0.25391-0.14453zm-1.5859-28.801-38.867 22.441v-8.9883l8.6992-5.0156 0.83984-0.10938c0.10937-0.011719 0.15625-0.13281 0.26562-0.15625 0.28906-0.070313 0.57422-0.070313 0.83984-0.23828l30.07-17.363v5.2305zm-30.695 2.4609-0.85156 0.10938c-0.21484 0.035157-0.32422 0.22656-0.51563 0.28906-0.20312 0.070312-0.40625-0.023438-0.58984 0.085937l-6.2148 3.5742v-6.9375c0.27734 0.097656 0.55078 0.23828 0.85156 0.23828h0.011718c0.085938 0 0.16797 0 0.25391-0.011719l4.7891-0.40625c0.097656 0 0.14453-0.10937 0.23828-0.12109 0.33594-0.058594 0.68359-0.097657 1.0078-0.27734l33.551-19.355v4.0312zm3.3359-12.898 0.023437-3.4336c0-0.20312-0.17969-0.33594-0.21484-0.52734-0.035156-0.20312 0.085938-0.37109 0.011719-0.57422l-2.7344-7.0938c-0.058594-0.16797-0.23828-0.20312-0.32422-0.34766-0.085937-0.14453-0.023437-0.30078-0.13281-0.44531l-4.7539-5.9531c-0.12109-0.15625-0.33594-0.14453-0.49219-0.25391-0.14453-0.14453-0.16797-0.34766-0.34766-0.46875l-3.0859-1.7773 29.723-17.172 3.2148-0.27734 4.2227 2.4492 4.0781 5.0898v13.945zm28.945-40.359c-0.14453-0.12109-0.16797-0.33594-0.33594-0.44531l-5.5195-3.1914c-0.058593-0.046875-0.13281 0-0.19141-0.035156v-0.011719l0.085937-0.19141v-0.011719l0.10938-0.22656v-0.023437s0.011718-0.011719 0.023437-0.023437l5.9141-13.465v6.3945 0.011719 0.023437l0.14453 10.691c0 0.035156 0.046875 0.058593 0.046875 0.10937v0.52734c-0.085938-0.058594-0.19531-0.058594-0.27734-0.13281zm-1.5859-28.773-38.867 22.453v-9l8.7109-5.0156 0.83984-0.12109c0.10938-0.023437 0.15625-0.14453 0.25391-0.16797 0.27734-0.058594 0.5625-0.070313 0.82813-0.21484l30.07-17.363v5.2305zm-30.719 2.4609-0.85156 0.12109c-0.20312 0.023437-0.30078 0.21484-0.49219 0.27734-0.20312 0.070313-0.40625-0.023437-0.58984 0.085938l-6.2148 3.5742v-6.9297c0.27734 0.085938 0.5625 0.22656 0.85156 0.22656 0 0 0 0.011719 0.011718 0.011719 0.085938 0 0.17969-0.011719 0.26562-0.011719l4.7891-0.42187c0.097656-0.011719 0.14453-0.10938 0.23828-0.12109 0.33594-0.070313 0.68359-0.097656 0.99609-0.27734l33.551-19.355v4.0078zm3.3594-12.891 0.023437-3.4336c0-0.20312-0.17969-0.33594-0.21484-0.52734-0.035156-0.20312 0.085938-0.37109 0.011719-0.57422l-2.7344-7.1055c-0.058594-0.16797-0.25391-0.20312-0.32422-0.33594-0.070312-0.13281-0.023437-0.32422-0.13281-0.44531l-4.7539-5.9531c-0.12109-0.16797-0.33594-0.15625-0.49219-0.27734-0.14453-0.13281-0.16797-0.34766-0.34766-0.44531l-3.0703-1.7773 29.711-17.172 3.2148-0.27734 4.2227 2.4492 4.0781 5.0742v13.957zm28.957-40.355c-0.15625-0.13281-0.16797-0.34766-0.34766-0.45703l-5.5195-3.1914c-0.058593-0.046874-0.13281 0-0.20312-0.035156v-0.011718l0.070313-0.16797v-0.011719l0.13281-0.28906 5.9141-13.453v6.3945 0.023437 0.023438l0.14453 10.668c0 0.046874 0.046875 0.070312 0.046875 0.12109v0.21484 0.097656 0.21484c-0.058594-0.082031-0.16797-0.082031-0.23828-0.14062zm-1.5977-28.789-38.867 22.441v-8.9883l8.6992-5.0039 0.85156-0.12109c0.10938-0.011718 0.15625-0.13281 0.25391-0.15625 0.27734-0.058593 0.5625-0.070312 0.82813-0.22656l30.07-17.375v5.2305zm-30.719 2.4609-0.85156 0.12109c-0.20312 0.023437-0.3125 0.22656-0.50391 0.28906-0.19141 0.058594-0.39453-0.023437-0.57422 0.070313l-6.2148 3.5742v-6.9609c0.27734 0.085937 0.55078 0.22656 0.85156 0.22656h0.011718c0.085938 0 0.16797 0 0.25391-0.011719l4.7891-0.40625c0.097657 0 0.14453-0.10938 0.23828-0.12109 0.33594-0.058594 0.68359-0.085937 1.0078-0.27734l33.551-19.367v4.0078zm3.3594-12.898 0.023437-3.4336c0-0.20312-0.17969-0.33594-0.21484-0.52734-0.035156-0.20312 0.085938-0.38281 0.011719-0.57422l-2.7344-7.1055c-0.058594-0.15625-0.25391-0.20312-0.32422-0.34766-0.070312-0.14453-0.023437-0.3125-0.13281-0.44531l-4.7539-5.9531c-0.12109-0.15625-0.33594-0.14453-0.49219-0.27734-0.14453-0.13281-0.16797-0.34766-0.34766-0.45703l-3.0703-1.7773 29.711-17.172 3.2148-0.27734 4.2109 2.4609 4.0938 5.0898v13.945zm28.945-40.344c-0.14453-0.13281-0.16797-0.34766-0.33594-0.44531l-5.5195-3.2148c-0.058593-0.035156-0.13281 0-0.20312-0.023437l0.085938-0.20312 0.097656-0.21484v-0.011719c0-0.011718 0.011719-0.011718 0.023438-0.023437l5.9141-13.465v6.3945 0.011719 0.023437l0.14453 10.691c0 0.035156 0.046875 0.058593 0.046875 0.10938v0.51562c-0.0625-0.085938-0.17188-0.085938-0.25391-0.14453zm-1.5859-28.777-38.867 22.414v-8.9766l8.6992-5.0039 0.85156-0.12109c0.10938-0.011719 0.15625-0.13281 0.25391-0.15625 0.27734-0.058594 0.5625-0.070313 0.82813-0.22656l30.07-17.363v5.2188zm-30.719 2.4609-0.85156 0.12109c-0.20312 0.023437-0.3125 0.22656-0.50391 0.28906-0.19141 0.058593-0.39453-0.023438-0.57422 0.070312l-6.2148 3.5742v-6.9609c0.27734 0.085938 0.5625 0.22656 0.85156 0.22656h0.011718c0.085938 0 0.17969 0 0.26563-0.011719l4.7891-0.42188c0.097656-0.011719 0.14453-0.10938 0.23828-0.12109 0.33594-0.058594 0.68359-0.085937 0.99609-0.26562l33.551-19.367v4.043zm3.3594-12.926 0.023437-3.4219c0-0.20312-0.17969-0.33594-0.21484-0.52734-0.035156-0.20312 0.085938-0.38281 0.011719-0.57422l-2.7344-7.1055c-0.058594-0.15625-0.23828-0.20312-0.32422-0.34766-0.070312-0.14453-0.023437-0.3125-0.13281-0.45703l-4.7539-5.9414c-0.13281-0.15625-0.34766-0.14453-0.49219-0.26562-0.15625-0.13281-0.16797-0.34766-0.34766-0.45703l-3.0859-1.7891 29.723-17.172 3.2148-0.26562 4.2109 2.4258 4.0938 5.1133v13.934zm-11.508-30.754v-9l34.801-20.09-5.293 12.047zm40.453-9.5781c-0.14453-0.13281-0.16797-0.34766-0.34766-0.45703l-5.5195-3.1914c-0.058593-0.035156-0.13281 0-0.20312-0.023437l0.097656-0.21484v-0.011719l0.097656-0.21484v-0.011719c0-0.011719 0.011719-0.011719 0.023438-0.023438l5.9141-13.465v6.3945 0.011719 0.023437l0.14453 10.703c0 0.035156 0.046875 0.058594 0.046875 0.10938v0.21484 0.085937 0.20312c-0.0625-0.070312-0.17188-0.070312-0.25391-0.13281zm-1.5859-28.789-38.867 22.453v-8.9883l8.7109-5.0156 0.83984-0.12109c0.10938-0.011719 0.15625-0.13281 0.25391-0.15625 0.27734-0.058593 0.5625-0.070312 0.82813-0.22656l30.07-17.363v5.2188zm-30.719 2.4609-0.85156 0.12109c-0.20312 0.023437-0.3125 0.22656-0.50391 0.28906-0.19141 0.058594-0.39453-0.023438-0.58984 0.070312l-6.2148 3.5742v-6.9375c0.27734 0.085938 0.55078 0.22656 0.85156 0.22656h0.011719c0.097656 0 0.17969 0 0.26562-0.011719l4.7891-0.43359c0.097656-0.011719 0.14453-0.10938 0.23828-0.12109 0.33594-0.058594 0.67188-0.085938 0.99609-0.26563l33.551-19.367v4.0312zm-4.9805-21.934 2.3516 6.1445-0.035156 4.8359-1.4648 2.0273-2.4844 0.22656-3.0234-1.7539-1.1523-0.67188-4.1523-5.1484-2.3398-6.1562 0.011719-2.5195 0.023438-2.3047 1.4648-2.0273 2.4961-0.22656 4.2109 2.4492zm-9.168-32.461v14.398l-16.859 9.7422c-0.046875 0.023437-0.046875 0.10937-0.10938 0.13281v-42.73l16.969 9.7812zm-5.125 42.289h-2.6523v-5.6641l1.5352 4.043c0.070312 0.19141 0.25391 0.28906 0.35937 0.46875 0.070313 0.10938 0.023438 0.25391 0.10938 0.34766zm-11.734 2.9492 4.5859 2.6523c0.46875 0.27734 0.99609 0.40625 1.5 0.40625h10.777v45.68l-16.859 9.7422c-0.046875 0.023438-0.046875 0.10938-0.10938 0.13281v-58.754c0.042969 0.035156 0.042969 0.11719 0.10547 0.14062zm11.734 76.621h-2.6523v-5.6641l1.5352 4.043c0.070312 0.19141 0.25391 0.28906 0.35937 0.46875 0.070313 0.10938 0.023438 0.25391 0.10938 0.34766zm-11.734 2.9531 4.5859 2.6523c0.46875 0.27734 0.99609 0.40625 1.5 0.40625h10.777v45.668l-16.859 9.7422c-0.046875 0.023438-0.046875 0.10938-0.10938 0.13281v-58.754c0.042969 0.042969 0.042969 0.11719 0.10547 0.15234zm11.746 76.633h-2.6641v-5.6758l1.5352 4.043c0.070312 0.20313 0.25391 0.28906 0.37109 0.46875 0.058594 0.10938 0.011719 0.25391 0.097657 0.34766zm-11.746 2.9492 4.5859 2.6523c0.46875 0.27734 0.99609 0.40625 1.5 0.40625h10.777v45.645l-16.859 9.7422c-0.046875 0.023438-0.046875 0.097656-0.10938 0.13281v-58.727c0.042969 0.042969 0.042969 0.11328 0.10547 0.14844zm11.746 76.621h-2.6641v-5.6992l1.5469 4.0664c0.070313 0.20312 0.25391 0.28906 0.35938 0.45703 0.058594 0.12109 0.011719 0.25391 0.097657 0.34766zm-11.746 2.9531 4.5859 2.6523c0.46875 0.26562 0.99609 0.39453 1.5 0.39453h10.777v45.672l-16.859 9.7305c-0.046875 0.035157-0.046875 0.12109-0.10938 0.14453v-58.738c0.042969 0.023438 0.042969 0.10547 0.10547 0.14453zm11.746 76.617h-2.6641v-5.6992l1.5469 4.0664c0.070313 0.20312 0.25391 0.28906 0.35938 0.45703 0.058594 0.12109 0.011719 0.25391 0.097657 0.34766zm-11.746 2.9531 4.5859 2.6523c0.46875 0.26562 0.99609 0.39453 1.5 0.39453h10.777v45.668l-16.859 9.7305c-0.046875 0.023437-0.046875 0.097656-0.10938 0.13281v-58.727c0.042969 0.027343 0.042969 0.11328 0.10547 0.14844zm11.746 76.621h-2.6641v-5.6992l1.5469 4.0664c0.070313 0.20312 0.25391 0.28906 0.35938 0.45703 0.058594 0.12109 0.011719 0.25391 0.097657 0.34766zm-11.746 2.9648 4.5859 2.6406c0.46875 0.26562 0.98437 0.39453 1.5 0.39453h10.777v45.648l-16.859 9.7422c-0.046875 0.023437-0.046875 0.097656-0.10938 0.13281v-58.727c0.042969 0.058594 0.042969 0.12891 0.10547 0.16797zm11.746 76.605h-2.6641v-5.6758l1.5469 4.0547c0.070313 0.19141 0.25391 0.27734 0.35938 0.44531 0.058594 0.12109 0.011719 0.25391 0.097657 0.34766zm-11.746 2.9531 4.5703 2.6406c0.46875 0.26562 0.99609 0.39453 1.5 0.39453h10.777v45.672l-16.859 9.7305c-0.046875 0.035156-0.046875 0.12109-0.10938 0.14453v-58.738c0.058594 0.035156 0.058594 0.12109 0.12109 0.15625zm11.746 76.609h-2.6641v-5.6914l1.5469 4.0664c0.070313 0.20312 0.25391 0.28906 0.35938 0.45703 0.058594 0.12109 0.011719 0.25391 0.097657 0.34766zm57.746-254.81c0-0.070313 0.070312-0.13281 0.070312-0.20313v-79.191c0-0.085937-0.070312-0.12109-0.070312-0.19141 0-0.085938 0.070312-0.13281 0.070312-0.20312v-79.191c0-0.070313-0.070312-0.10938-0.070312-0.17969 0-0.070312 0.070312-0.12109 0.070312-0.19141v-79.199c0-0.070312-0.070312-0.10938-0.070312-0.17969 0-0.070313 0.070312-0.12109 0.070312-0.19141v-79.199c0-0.070313-0.070312-0.10938-0.070312-0.17969 0-0.070312 0.070312-0.12109 0.070312-0.19141v-4.2461l7.7773 4.5v619.05l-7.7773-4.5v-57.434c0-0.070312-0.070312-0.10938-0.070312-0.17969 0-0.070312 0.070312-0.13281 0.070312-0.20312v-79.191c0-0.085937-0.070312-0.12109-0.070312-0.19141 0-0.085937 0.070312-0.13281 0.070312-0.20312v-79.164c0-0.070313-0.070312-0.12109-0.085938-0.19141 0-0.085937 0.085938-0.14453 0.085938-0.21484v-79.18c0-0.058594-0.058594-0.09375-0.070312-0.16406zm42.84-298.03 7.7656 4.5-13.789 7.9688v-8.9883zm-6.0234-3.457v-0.023437l0.023437 0.011719zm22.102 12.73 18.613 10.754v6.3359l-29.207 16.871 0.023438-3.4336c0-0.20312-0.16797-0.33594-0.21484-0.52734-0.023438-0.19141 0.097656-0.37109 0.023438-0.5625l-2.7461-7.1289c-0.046875-0.16797-0.23828-0.20312-0.32422-0.34766-0.070313-0.14453-0.023437-0.32422-0.13281-0.45703l-4.7539-5.9297c-0.13281-0.15625-0.33594-0.14453-0.49219-0.26562-0.15625-0.12109-0.17969-0.34766-0.33594-0.45703l-3.0977-1.7773zm-10.773 587.02c-0.023438-0.20312 0.097656-0.37109 0.023437-0.57422l-2.7461-7.1055c-0.046874-0.16797-0.23828-0.21484-0.32422-0.34766-0.070313-0.14453-0.023438-0.3125-0.12109-0.44531l-4.7539-5.9766c-0.14453-0.15625-0.34766-0.14453-0.50391-0.26562s-0.17969-0.34766-0.34766-0.45703l-3.0586-1.7539 29.723-17.172 3.2266-0.27734 4.2109 2.4492 4.0781 5.0742v13.934l-29.207 16.871 0.023437-3.4219c-0.019531-0.20703-0.17578-0.33984-0.22266-0.53125zm-12.805-471.05-1.2227-0.70703-4.0938-5.1016-2.3398-6.1797 0.011719-2.543v-2.2812l1.4531-2.0156 2.4844-0.22656 4.2344 2.4375 4.1172 5.1367 2.3516 6.1445-0.046875 4.8477-1.4414 2.0273-2.4961 0.21484zm1.4766 37.355 34.801-20.09-5.293 12.035-29.508 17.039zm-0.94922 25.586 4.1289 5.1602 2.3516 6.1445-0.046875 4.8477-1.4297 2.0156-2.5078 0.21484-3.0234-1.7539-1.2109-0.70703-4.1055-5.125-2.3398-6.168 0.011719-2.5312v-2.3047l1.4531-2.0156 2.4961-0.22656zm0.94922 53.977 34.801-20.062-5.293 12.023-29.508 17.051zm-0.94922 25.594 4.1289 5.1602 2.3516 6.1328-0.046875 4.8594-1.4297 2.0156-2.5078 0.21484-3.0469-1.7539-1.1875-0.69531-4.1055-5.1367-2.3398-6.168 0.011719-2.5312v-2.293l1.4531-2.0273 2.4961-0.22656zm0.94922 54 34.801-20.09-5.2812 12.035-29.52 17.027zm-0.9375 25.574 4.1055 5.1484 2.3633 6.1562-0.046875 4.8477-1.4297 2.0273-2.5078 0.20312-3.0469-1.7539-1.1992-0.68359-4.0938-5.1367-2.3398-6.168 0.011719-2.5312v-2.293l1.4648-2.0391 2.4609-0.21484zm0.9375 54 34.789-20.09-5.2812 12.023-29.508 17.051zm-0.9375 25.57 4.1172 5.1484 2.3516 6.1445-0.046875 4.8477-1.4297 2.0156-2.5078 0.22656-3.0352-1.7656h-0.011718l-1.1758-0.68359-4.1289-5.1367-2.3281-6.168 0.011719-2.5312v-2.3164l1.4414-2.0156 2.4844-0.21484zm0.9375 53.988 34.801-20.102-5.293 12.035-29.508 17.051zm-0.9375 25.582 4.1172 5.1484 2.3516 6.1445-0.046875 4.8477-1.4297 2.0156-2.5078 0.22656-3.0469-1.7539-1.1758-0.68359-4.1289-5.1836-2.3281-6.1211 0.011719-2.5547v-2.3047l1.4531-2.0156 2.4727-0.21484zm0.9375 53.988 34.801-20.113-5.2812 12.07-29.52 17.016zm-0.9375 25.574 4.1055 5.1602 2.3633 6.1445-0.046875 4.8477-1.4297 2.0156-2.5078 0.22656-4.2227-2.4258-4.1289-5.1602-2.3281-6.1445 0.011719-2.5547v-2.3047l1.4531-2.0156 2.4961-0.21484zm41.414-26.16c-0.15625-0.12109-0.16797-0.33594-0.33594-0.44531l-5.5078-3.1914c-0.070312-0.046874-0.14453 0-0.19141-0.035156-0.011719-0.011718 0-0.011718-0.011719-0.011718l0.085938-0.19141v-0.011719l0.12109-0.26562 5.9023-13.453v6.3945 0.023437 0.023438l0.14453 10.668c0 0.046874 0.046874 0.070312 0.046874 0.12109v0.21484c0 0.035156-0.011718 0.058594 0 0.097656v0.21484c-0.085937-0.082031-0.18359-0.082031-0.25391-0.15234zm-1.6094-28.777-38.855 22.441v-8.9883l8.7227-5.0156 0.82812-0.12109c0.10938-0.023438 0.15625-0.14453 0.25391-0.16797 0.27734-0.058594 0.57422-0.070313 0.82812-0.21484l30.07-17.352v5.2305zm-30.719 2.4609-0.83984 0.12109c-0.20313 0.023437-0.30078 0.21484-0.49219 0.27734-0.20312 0.070313-0.40625-0.023437-0.60156 0.085938l-6.2148 3.5742v-6.9102c0.27734 0.070313 0.5625 0.21484 0.83984 0.21484 0 0 0 0.011719 0.011718 0.011719h0.011719c0.085937 0 0.16797-0.011719 0.25391-0.011719l4.8242-0.42188c0.097656-0.011719 0.14453-0.10938 0.23828-0.12109 0.33594-0.070313 0.68359-0.097657 1.0078-0.27734l33.516-19.355v4.0312zm3.3594-12.875 0.023438-3.4336c0-0.20312-0.16797-0.32422-0.21484-0.52734-0.023438-0.20313 0.097656-0.37109 0.023438-0.57422l-2.7461-7.1055c-0.046875-0.16797-0.23828-0.21484-0.3125-0.34766-0.070313-0.13281-0.035156-0.32422-0.13281-0.45703l-4.7539-5.9531c-0.14453-0.15625-0.34766-0.15625-0.49219-0.26563-0.16797-0.14453-0.17969-0.34766-0.34766-0.45703l-3.0859-1.7656 29.734-17.172 3.2266-0.26562 4.2109 2.4258 4.0781 5.0898v13.957zm28.953-40.371c-0.14453-0.12109-0.16797-0.33594-0.32422-0.44531l-5.5078-3.1914c-0.070312-0.023437-0.14453 0.011719-0.19141-0.023437-0.011719-0.011719 0-0.023437-0.011719-0.046875l0.085937-0.19141v-0.011719c0-0.011719 0.023438-0.011719 0.023438-0.035156l0.12109-0.27734 5.8789-13.379v6.3945 0.023438 0.023437l0.14453 10.668c0 0.046875 0.046875 0.070312 0.046875 0.12109v0.21484c0 0.035157-0.011718 0.058594 0 0.097657v0.21484c-0.082031-0.09375-0.19141-0.09375-0.26562-0.15625zm-1.5938-28.785-38.855 22.441v-8.9766l8.7461-5.0273 0.82812-0.13281c0.10938-0.011718 0.15625-0.13281 0.25391-0.15625 0.27734-0.070312 0.5625-0.070312 0.81641-0.21484l30.07-17.363v5.2305zm-30.734 2.457-0.85156 0.13281c-0.20312 0.035156-0.28906 0.22656-0.48047 0.28906-0.19141 0.058594-0.39453-0.035156-0.58984 0.070313l-6.2148 3.5898v-6.9375c0.27734 0.070312 0.5625 0.21484 0.83984 0.21484 0 0 0 0.011719 0.011719 0.011719h0.011719c0.085937 0 0.16797-0.011719 0.25391-0.011719l4.8242-0.42188c0.097656-0.011718 0.14453-0.10938 0.23828-0.12109 0.33594-0.070312 0.69531-0.097656 1.0078-0.27734l33.516-19.355v4.0312zm3.375-12.887 0.023438-3.4219c0-0.20312-0.16797-0.32422-0.21484-0.52734-0.023438-0.20312 0.097656-0.37109 0.023438-0.57422l-2.7461-7.1055c-0.046875-0.16797-0.23828-0.21484-0.3125-0.34766-0.070313-0.13281-0.035156-0.32422-0.13281-0.45703l-4.7539-5.9531c-0.14453-0.15625-0.34766-0.15625-0.49219-0.26562-0.16797-0.14453-0.19141-0.34766-0.34766-0.45703l-3.0977-1.7773 29.746-17.172 3.2148-0.25391 4.2227 2.4258 4.0781 5.0898v13.934zm28.953-40.355c-0.14453-0.13281-0.16797-0.33594-0.32422-0.44531l-5.5078-3.1914c-0.070312-0.023438-0.14453 0.011719-0.19141-0.023438-0.011719 0 0-0.023437-0.011719-0.023437l0.085937-0.19141v-0.046875c0-0.023438 0.023438-0.023438 0.035157-0.046875l0.085937-0.19141v-0.011718l5.9023-13.441v6.3828 0.011719 0.023437l0.14453 10.715c0 0.035156 0.046875 0.058594 0.046875 0.10938v0.50391c-0.082031-0.0625-0.20312-0.0625-0.26562-0.13281zm-1.5938-28.789-38.855 22.441v-8.9883l8.6992-5.0156 0.82812-0.10938c0.10938-0.011719 0.15625-0.13281 0.26562-0.15625 0.27734-0.070312 0.57422-0.070312 0.83984-0.23828l30.07-17.363v5.2305zm-30.707 2.4609-0.82812 0.10938c-0.21484 0.035156-0.3125 0.22656-0.51562 0.28906-0.20312 0.058594-0.40625-0.023437-0.60156 0.085938l-6.2148 3.5742v-6.9375c0.27734 0.097656 0.5625 0.23828 0.83984 0.23828h0.011718 0.011719c0.085937 0 0.16797 0 0.23828-0.011719l4.8242-0.39453c0.097656-0.011719 0.14453-0.10938 0.23828-0.12109 0.34766-0.058594 0.70703-0.085937 1.0312-0.26562l33.516-19.379v4.0078zm3.3477-12.863 0.023438-3.4453c0-0.21484-0.16797-0.33594-0.21484-0.53906-0.023438-0.19141 0.097656-0.37109 0.023438-0.57422l-2.7461-7.1055c-0.046875-0.15625-0.23828-0.20312-0.32422-0.33594-0.070313-0.14453-0.023437-0.32422-0.12109-0.44531l-4.7539-5.9766c-0.13281-0.15625-0.34766-0.14453-0.49219-0.25391-0.15625-0.14453-0.17969-0.35938-0.34766-0.46875l-3.0859-1.7656 29.734-17.172 3.2266-0.26562 4.1992 2.4258 4.0938 5.1016v13.957zm28.969-40.379c-0.15625-0.13281-0.17969-0.34766-0.33594-0.44531l-5.5078-3.1914c-0.070312-0.046876-0.14453 0-0.19141-0.023438-0.011719-0.023438 0-0.023438-0.011719-0.023438l0.085938-0.19141v-0.023437c0-0.011719 0.023437-0.023438 0.023437-0.023438l0.12109-0.27734 5.8789-13.402v6.3828 0.011719 0.023437l0.14453 10.691c0 0.046875 0.046874 0.070312 0.046874 0.12109v0.21484c0 0.035156-0.011718 0.058594 0 0.097656v0.20313c-0.085937-0.085938-0.19531-0.085938-0.25391-0.14453zm-1.6094-28.789-38.855 22.441v-8.9883l8.7227-5.0156 0.82812-0.12109c0.10938-0.023438 0.15625-0.14453 0.25391-0.16797 0.27734-0.058593 0.57422-0.070312 0.82812-0.21484l30.07-17.363v5.2305zm-30.719 2.4609-0.83984 0.12109c-0.20313 0.023437-0.3125 0.22656-0.50391 0.27734-0.19141 0.070312-0.39453-0.023438-0.58984 0.085937l-6.2148 3.5742v-6.9375c0.27734 0.097656 0.5625 0.23828 0.83984 0.23828h0.011718 0.011719c0.085937 0 0.16797 0 0.25391-0.011718l4.8242-0.40625c0.097656 0 0.13281-0.097657 0.22656-0.12109 0.34766-0.058594 0.70703-0.097656 1.0312-0.27734l33.516-19.355v4.0312zm3.3594-12.879 0.023438-3.4336c0-0.21484-0.16797-0.33594-0.21484-0.53906-0.023438-0.19141 0.097656-0.37109 0.023438-0.5625l-2.7461-7.1289c-0.046875-0.15625-0.23828-0.19141-0.3125-0.32422-0.085938-0.15625-0.035156-0.32422-0.13281-0.46875l-4.7539-5.9414c-0.14453-0.15625-0.34766-0.15625-0.50391-0.26563-0.15625-0.14453-0.17969-0.34766-0.33594-0.44531l-3.0859-1.7773 29.734-17.184 3.2148-0.25391 4.2227 2.4258 4.0781 5.0898v13.957zm28.969-40.367c-0.16797-0.13281-0.17969-0.34766-0.34766-0.45703l-5.5078-3.1797c-0.070313-0.035157-0.14453 0-0.20313-0.023438-0.011718-0.011719 0-0.023437-0.011718-0.023437l0.097656-0.21484v-0.011719c0-0.011719 0.023438-0.011719 0.023438-0.035156l0.12109-0.27734 5.8789-13.379v6.3945 0.023438 0.023437l0.14453 10.668c0 0.046875 0.046875 0.070312 0.046875 0.12109v0.21484c0 0.035156-0.011719 0.058593 0 0.097656v0.20312c-0.074219-0.070313-0.17188-0.082031-0.24219-0.14453zm-1.6094-28.777-38.855 22.43v-8.9766l8.7227-5.0156 0.85156-0.13281c0.10938-0.011719 0.15625-0.13281 0.25391-0.15625 0.27734-0.070312 0.5625-0.070312 0.81641-0.21484l30.07-17.363v5.2305zm-30.734 2.4609-0.85156 0.13281c-0.20312 0.035156-0.28906 0.22656-0.48047 0.28906-0.19141 0.058594-0.39453-0.035156-0.57422 0.070313l-6.2266 3.5898v-6.9609c0.27734 0.097656 0.5625 0.23828 0.83984 0.23828h0.011718 0.011719c0.085937 0 0.16797 0 0.25391-0.011718l4.8242-0.40625c0.097656 0 0.13281-0.097657 0.22656-0.12109 0.34766-0.058594 0.70703-0.097656 1.0312-0.27734l33.516-19.355v4.0312zm3.375-12.887 0.023438-3.4336c0-0.20312-0.16797-0.32422-0.21484-0.52734-0.023438-0.20312 0.097656-0.37109 0.023438-0.57422l-2.7461-7.1289c-0.046875-0.15625-0.23828-0.19141-0.3125-0.32422-0.085938-0.15625-0.035156-0.32422-0.13281-0.46875l-4.7539-5.9414c-0.14453-0.15625-0.34766-0.15625-0.50391-0.26562-0.15625-0.14453-0.17969-0.34766-0.33594-0.44531l-3.0859-1.7773 29.734-17.184 3.2148-0.26562 4.2227 2.4492 4.0781 5.0742v13.957zm28.969-40.355c-0.15625-0.13281-0.16797-0.34766-0.33594-0.44531l-5.5078-3.2031c-0.058594-0.035156-0.13281 0-0.19141-0.023437v-0.035157l0.070312-0.15625c0-0.011718-0.011718-0.035156 0-0.046874 0-0.011719 0.023438-0.023438 0.035157-0.046876l0.085937-0.19141 5.9023-13.453v6.3945 0.011719 0.023438l0.14453 10.703c0 0.035156 0.046875 0.058594 0.046875 0.10938v0.50391c-0.082031-0.085937-0.17969-0.085937-0.25-0.14453zm-1.6094-28.801-38.855 22.453v-9l8.6992-5.0156 0.80469-0.097656c0.10938-0.011718 0.15625-0.12109 0.25391-0.14453 0.28906-0.058594 0.60156-0.070313 0.875-0.23828l30.07-17.375v5.2305zm-30.707 2.4609-0.80469 0.097656c-0.22656 0.023438-0.32422 0.22656-0.52734 0.30078-0.20312 0.058593-0.42188-0.023438-0.61328 0.085937l-6.2148 3.5898v-6.9375c0.27734 0.085937 0.5625 0.22656 0.83984 0.22656h0.011718 0.011719c0.085937 0 0.16797 0 0.25391-0.011719l4.8242-0.40625c0.097656 0 0.13281-0.097656 0.22656-0.12109 0.34766-0.058594 0.70703-0.085938 1.0312-0.27734l33.516-19.367v4.0078zm3.3477-12.879 0.023438-3.4453c0-0.20312-0.16797-0.33594-0.21484-0.52734-0.023438-0.19141 0.097656-0.37109 0.023438-0.5625l-2.7461-7.1289c-0.046875-0.15625-0.23828-0.20312-0.3125-0.33594-0.085938-0.14453-0.035156-0.32422-0.13281-0.46875l-4.7539-5.9414c-0.14453-0.15625-0.34766-0.14453-0.49219-0.26563-0.16797-0.13281-0.17969-0.34766-0.34766-0.45703l-3.0703-1.7656 29.723-17.16 3.2383-0.28906 4.1992 2.4375 4.0781 5.0898v13.957zm-11.508-30.801v-8.9883l34.789-20.074-5.2812 12.023zm40.477-9.5664c-0.15625-0.13281-0.16797-0.34766-0.34766-0.45703l-5.5078-3.2031c-0.070313-0.035156-0.14453 0-0.19141-0.023438h-0.011719l0.085938-0.17969v-0.046875c0-0.011719 0.023438-0.023438 0.035156-0.035156l0.085938-0.19141 5.9023-13.441v6.3945 0.011719 0.023438l0.14453 10.68c0 0.035156 0.046875 0.058594 0.046875 0.10938v0.21484c0 0.035156-0.011719 0.058594 0 0.085937v0.20313c-0.074219-0.070313-0.17188-0.082032-0.24219-0.14453zm-1.6094-28.773-38.855 22.441v-9l8.6992-5.0156 0.82812-0.10938c0.10938-0.011719 0.15625-0.13281 0.26562-0.15625 0.27734-0.070313 0.57422-0.070313 0.83984-0.22656l30.07-17.363v5.2305zm-30.707 2.4336-0.82812 0.10938c-0.22656 0.023437-0.3125 0.23828-0.52734 0.30078-0.19141 0.058593-0.39453-0.035157-0.58984 0.070312l-6.2148 3.5898v-6.9375c0.27734 0.085937 0.5625 0.22656 0.83984 0.22656h0.011718 0.011719c0.085937 0 0.16797 0 0.25391-0.011719l4.8242-0.40625c0.097656 0 0.13281-0.097657 0.22656-0.12109 0.34766-0.058594 0.70703-0.085937 1.0312-0.27734l33.516-19.367v4.0312zm-4.9922-21.945 2.3633 6.1562-0.046875 4.8594-1.4297 2.0156-2.5078 0.21484-3.0352-1.7656h-0.011718v-0.011719l-1.1875-0.67188-4.1055-5.125-2.3281-6.1641 0.011719-2.5195v-2.293l1.4531-2.0156 2.4961-0.22656 4.2227 2.4492zm-9.168-32.426v14.398l-16.871 9.7422c-0.046875 0.023437-0.046875 0.097656-0.097656 0.12109v-42.742l16.969 9.8047zm-5.1133 42.301h-2.6641v-5.6875l1.5352 4.0547c0.070313 0.19141 0.25391 0.28906 0.35938 0.45703 0.070313 0.10938 0.023438 0.25391 0.10938 0.34766zm-11.75 2.9531 4.5977 2.6523c0.48047 0.26562 0.99609 0.39453 1.5 0.39453h10.777v45.656l-16.871 9.7422c-0.046875 0.023437-0.046875 0.097656-0.097657 0.12109v-58.688c0.046876 0.023438 0.046876 0.09375 0.09375 0.12109zm11.75 76.617h-2.6641v-5.6758l1.5352 4.0547c0.070313 0.20312 0.25391 0.28906 0.37109 0.46875 0.058594 0.10938 0.011719 0.25391 0.097656 0.34766zm-11.762 2.9414 4.5977 2.6641c0.48047 0.27734 0.99609 0.40625 1.5 0.40625h10.777v45.648l-16.871 9.7422c-0.046875 0.035156-0.046875 0.097656-0.097656 0.13281v-58.715c0.046875 0.023437 0.046875 0.085937 0.09375 0.12109zm11.762 76.633h-2.6641v-5.6875l1.5352 4.0547c0.070313 0.20312 0.25391 0.28906 0.35938 0.45703 0.070313 0.10938 0.023438 0.25391 0.10938 0.34766zm-11.762 2.9258 4.5977 2.6758c0.48047 0.26562 0.99609 0.39453 1.5 0.39453h10.777v45.672l-16.871 9.7305c-0.046875 0.035156-0.046875 0.097656-0.097656 0.13281v-58.723c0.046875 0.035156 0.046875 0.09375 0.09375 0.11719zm11.773 76.656h-2.6758v-5.6992l1.5352 4.0547c0.070313 0.20312 0.25391 0.28906 0.35938 0.45703 0.070313 0.10938 0.023438 0.25391 0.10938 0.34766zm-11.773 2.9414 4.5977 2.6523c0.48047 0.27734 0.99609 0.40625 1.5 0.40625h10.777v45.645l-16.871 9.7305c-0.046875 0.035157-0.046875 0.097657-0.097656 0.13281v-58.691c0.046875 0.027343 0.046875 0.089843 0.09375 0.125zm11.762 76.621h-2.6641v-5.6875l1.5352 4.0547c0.070313 0.19141 0.25391 0.27734 0.35938 0.45703 0.070313 0.10938 0.023438 0.25391 0.10938 0.34766zm-11.762 2.9258 4.5977 2.6758c0.48047 0.27734 0.99609 0.40625 1.5 0.40625h10.777v45.656l-16.871 9.7305c-0.046875 0.035156-0.046875 0.097656-0.097656 0.13281v-58.727c0.046875 0.042968 0.046875 0.10156 0.09375 0.125zm11.762 76.633h-2.6641v-5.6758l1.5352 4.043c0.070313 0.20312 0.25391 0.28906 0.35938 0.45703 0.070313 0.10938 0.023438 0.25391 0.10938 0.34766zm-11.762 2.9258 4.5977 2.6758c0.48047 0.26562 0.99609 0.39453 1.5 0.39453h10.777v45.668l-16.871 9.7305c-0.046875 0.035156-0.046875 0.097656-0.097656 0.13281v-58.727c0.046875 0.054687 0.046875 0.11328 0.09375 0.125zm11.773 76.656h-2.6758v-5.7109l1.5469 4.0664c0.070313 0.19141 0.25391 0.27734 0.34766 0.44531 0.070313 0.12109 0.023438 0.25391 0.10938 0.35938zm-11.773 2.9414 4.5977 2.6523c0.48047 0.27734 0.99609 0.40625 1.5 0.40625h10.777v45.645l-16.871 9.7305c-0.046875 0.035156-0.046875 0.097656-0.097656 0.13281v-58.691c0.046875 0.042968 0.046875 0.089844 0.09375 0.125zm11.762 76.633h-2.6641v-5.6875l1.5352 4.0547c0.070313 0.19141 0.25391 0.27734 0.35938 0.45703 0.070313 0.10938 0.023438 0.25391 0.10938 0.34766zm57.742-413.98c0.011719-0.085938 0.085938-0.13281 0.085938-0.20312v-79.188c0-0.070313-0.070313-0.10938-0.085938-0.17969 0.011719-0.070312 0.085938-0.12109 0.085938-0.19141v-79.191c0-0.070313-0.070313-0.12109-0.085938-0.19141 0.011719-0.070312 0.085938-0.12109 0.085938-0.20312v-4.2227l7.7773 4.4883v619.02l-7.7773-4.4766v-57.426c0-0.070312-0.070313-0.10938-0.085938-0.17969 0.011719-0.070312 0.085938-0.13281 0.085938-0.20312v-79.188c0-0.085938-0.070313-0.12109-0.085938-0.19141 0.011719-0.085937 0.085938-0.13281 0.085938-0.20312v-79.188c0-0.070312-0.070313-0.12109-0.085938-0.19141 0.011719-0.070312 0.085938-0.12109 0.085938-0.19141v-79.191c0-0.070313-0.070313-0.12109-0.085938-0.19141 0.011719-0.070312 0.085938-0.12109 0.085938-0.19141v-79.16c0-0.070313-0.085938-0.12109-0.097657-0.19141 0.011719-0.085937 0.097657-0.14453 0.097657-0.21484v-79.18c0-0.070312-0.070313-0.10938-0.085938-0.17969zm35.355 384.23-1.2109-0.71875-4.1172-5.1484-2.3398-6.1211 0.023438-2.5312 0.023437-2.3281 1.4414-2.0156 2.4961-0.22656 4.2227 2.4375 4.1172 5.1602 2.3516 6.1445-0.035156 4.8477-1.4414 2.0156-2.5078 0.21484zm0.55078 62.93 4.0938 5.1367 2.3633 6.168-0.035156 4.8477-1.4531 2.0156-2.4961 0.22656-4.2227-2.4492-4.1289-5.1602-2.3398-6.1328 0.023438-2.543 0.023437-2.3047 1.4414-2.0156 2.4961-0.22656zm-0.56641-142.51-1.1758-0.69531-4.1289-5.1602-2.3398-6.1328 0.023438-2.5312 0.023438-2.3164 1.4414-2.0273 2.4961-0.21484 4.2227 2.4492 4.1172 5.1484 2.3516 6.1445-0.035156 4.8477-1.4414 2.0156-2.5078 0.21484zm-0.011719-79.574-1.1641-0.68359-4.1289-5.1719-2.3398-6.1328 0.023438-2.5312 0.023438-2.3164 1.4414-2.0273 2.4961-0.21484 4.2344 2.4492 4.0938 5.1367 2.3633 6.1562-0.035156 4.8477-1.4414 2.0156-2.5195 0.22656zm0.027344-79.57v0l-1.2227-0.71875-4.1055-5.1133-2.3398-6.1562 0.023438-2.5312 0.023437-2.3164 1.4414-2.0273 2.4961-0.21484 4.2227 2.4375 4.1055 5.1484 2.3633 6.1562-0.035156 4.8477-1.4531 2.0156-2.4961 0.21484zm-0.015625-79.586-1.1875-0.69531-4.1172-5.125-2.3398-6.1562 0.023438-2.5312 0.023438-2.3164 1.4531-2.0273 2.4727-0.22656 4.2344 2.4609 4.1172 5.1484 2.3516 6.1445-0.035156 4.8242-1.4531 2.0273-2.4961 0.22656zm0.015625-79.547-1.1992-0.70703-4.1289-5.1719-2.3398-6.1094 0.023438-2.5312 0.023437-2.3164 1.4414-2.0156 2.4961-0.22656 4.2227 2.4492 4.1172 5.1367 2.3516 6.1445-0.035156 4.8359-1.4648 2.0273-2.4961 0.22656zm0-79.582-1.2109-0.71875-4.1172-5.1367-2.3398-6.1211 0.023438-2.543 0.023437-2.3164 1.4297-2.0039 2.5078-0.21484 4.2461 2.4258 4.0781 5.1367 2.3633 6.1562-0.035156 4.8359-1.4531 2.0156-2.4961 0.22656zm-4.5156-43.945v14.41l-16.871 9.7422c-0.046875 0.023438-0.046875 0.097657-0.097656 0.12109v-42.719l16.969 9.793zm-5.1094 42.312h-2.6523v-5.6289l1.5234 4.0078c0.070313 0.19141 0.25391 0.27734 0.34766 0.44531 0.070312 0.10938 0.023437 0.25391 0.12109 0.35938zm-11.762 2.9531 4.6094 2.6523c0.46875 0.26562 0.98438 0.39453 1.5 0.39453h10.754v45.66l-16.871 9.7578c-0.046876 0.023438-0.046876 0.097656-0.097657 0.12109v-58.727c0.046875 0.042968 0.046875 0.10156 0.10547 0.14062zm11.762 76.617h-2.6523v-5.6406l1.5234 3.9961c0.070313 0.19141 0.25391 0.27734 0.34766 0.44531 0.070312 0.10938 0.023437 0.25391 0.12109 0.35938zm-11.762 2.9531 4.6094 2.6523c0.46875 0.26562 0.98438 0.39453 1.5 0.39453h10.754v45.66l-16.871 9.7695c-0.046876 0.023437-0.046876 0.085937-0.097657 0.12109v-58.738c0.046875 0.03125 0.046875 0.10547 0.10547 0.14062zm11.762 76.609h-2.6523v-5.6289l1.5234 4.0195c0.085938 0.19141 0.25391 0.27734 0.37109 0.44531 0.058594 0.12109 0.011719 0.25391 0.097656 0.34766zm-11.762 2.9609 4.6094 2.6523c0.46875 0.26562 0.98438 0.39453 1.5 0.39453h10.754v45.656l-16.871 9.7422c-0.046876 0.023438-0.046876 0.097656-0.097657 0.12109v-58.715c0.046875 0.042969 0.046875 0.11328 0.10547 0.14844zm11.762 76.609h-2.6523v-5.6289l1.5234 4.0195c0.085938 0.19141 0.25391 0.27734 0.37109 0.44531 0.058594 0.12109 0.011719 0.25391 0.097656 0.34766zm-11.762 2.9531 4.6094 2.6523c0.46875 0.26562 0.98438 0.39453 1.5 0.39453h10.754v45.656l-16.871 9.7422c-0.046876 0.023438-0.046876 0.097656-0.097657 0.12109v-58.715c0.046875 0.050781 0.046875 0.11328 0.10547 0.14844zm11.762 76.633h-2.6523v-5.6406l1.5234 4.0195c0.070313 0.19141 0.25391 0.27734 0.34766 0.44531 0.070312 0.10938 0.023437 0.25391 0.12109 0.34766zm-11.762 2.9492 4.6094 2.6523c0.46875 0.26563 0.98438 0.39453 1.5 0.39453h10.754v45.648l-16.871 9.7422c-0.046876 0.035156-0.046876 0.097656-0.097657 0.13281v-58.715c0.046875 0.050781 0.046875 0.12109 0.10547 0.14453zm11.762 76.621h-2.6523v-5.6406l1.5234 4.0195c0.070313 0.19141 0.25391 0.27734 0.34766 0.44531 0.070312 0.10938 0.023437 0.25391 0.12109 0.34766zm-11.762 2.9531 4.6094 2.6523c0.46875 0.26562 0.98438 0.39453 1.5 0.39453h10.754v45.668l-16.871 9.7305c-0.046876 0.023438-0.046876 0.097656-0.097657 0.12109v-58.703c0.046875 0.039062 0.046875 0.11328 0.10547 0.13672zm11.762 76.617h-2.6523v-5.6289l1.5234 4.0078c0.070313 0.19141 0.25391 0.27734 0.34766 0.44531 0.070312 0.10938 0.023437 0.25391 0.12109 0.34766zm-11.762 2.9531 4.6094 2.6523c0.46875 0.26562 0.98438 0.39453 1.5 0.39453h10.754v45.648l-16.871 9.7422c-0.046876 0.023438-0.046876 0.097656-0.097657 0.12109v-58.691c0.046875 0.039062 0.046875 0.10937 0.10547 0.13281zm11.762 76.621h-2.6523v-5.6406l1.5234 4.0195c0.070313 0.19141 0.25391 0.27734 0.34766 0.44531 0.070312 0.10938 0.023437 0.25391 0.12109 0.34766zm22.605-0.80469 0.023437-3.4219c0-0.21484-0.19141-0.33594-0.22656-0.53906-0.035156-0.19141 0.085938-0.37109 0.011719-0.5625l-2.7227-7.1289c-0.046875-0.15625-0.23828-0.20312-0.32422-0.33594-0.070312-0.14453-0.023437-0.3125-0.12109-0.45703l-4.7539-5.9531c-0.12109-0.15625-0.33594-0.14453-0.49219-0.26562-0.14453-0.13281-0.16797-0.34766-0.34766-0.45703l-3.0703-1.7539 29.723-17.172 2.3164-0.20312v26.699zm18-47.832-29.508 17.039v-8.9766l31.523-18.203v5.5547zm-29.496 1.1523v-9l8.7109-5.0156 0.83984-0.12109c0.10938-0.023438 0.15625-0.13281 0.25391-0.15625 0.27734-0.058594 0.57422-0.070312 0.83984-0.22656l20.879-12.047v8.3398zm8.125-19.992-0.83984 0.12109c-0.21484 0.023437-0.30078 0.21484-0.49219 0.27734-0.20312 0.070312-0.39453-0.023438-0.58984 0.085937l-6.2148 3.5742v-6.9492c0.27734 0.085938 0.55078 0.22656 0.83984 0.22656 0 0 0 0.011719 0.011719 0.011719h0.011718c0.070313 0 0.15625-0.011719 0.23828-0.011719l4.8125-0.38281c0.085937-0.011718 0.13281-0.10938 0.22656-0.10938 0.34766-0.070312 0.71875-0.097656 1.0312-0.27734l24.348-14.09v4.043zm3.3711-12.887 0.023437-3.457c0-0.20312-0.19141-0.32422-0.22656-0.51562-0.035156-0.20312 0.085938-0.37109 0.011719-0.5625l-2.7109-7.0938c-0.046875-0.16797-0.23828-0.21484-0.30078-0.33594-0.097656-0.15625-0.035156-0.32422-0.14453-0.45703l-4.7539-5.9766c-0.13281-0.16797-0.34766-0.14453-0.50391-0.26562s-0.16797-0.34766-0.34766-0.45703l-3.0703-1.7539 29.723-17.172 2.3164-0.20313v26.699zm18-47.844-29.508 17.039v-8.9766l31.523-18.203v5.5664zm-29.496 1.1406v-8.9883l8.6758-5.0156 0.81641-0.10938c0.12109-0.011718 0.16797-0.12109 0.25391-0.14453 0.30078-0.058594 0.61328-0.085937 0.88672-0.25391l20.879-12.07v8.3633zm8.1484-19.98-0.81641 0.097656c-0.21484 0.023437-0.32422 0.23828-0.51562 0.30078-0.21484 0.058594-0.42188-0.035156-0.61328 0.070313l-6.2148 3.5898v-6.9492c0.27734 0.085937 0.55078 0.22656 0.83984 0.22656 0 0 0 0.011719 0.011719 0.011719h0.011718c0.085938 0 0.16797-0.011719 0.23828-0.011719l4.8242-0.39453c0.097656 0 0.13281-0.097656 0.21484-0.12109 0.34766-0.046875 0.70703-0.097656 1.0312-0.27734l24.348-14.062v4.0312zm3.3477-12.891 0.023437-3.4453c0-0.20312-0.19141-0.32422-0.22656-0.51562-0.035156-0.20312 0.085938-0.37109 0.011719-0.5625l-2.7227-7.1055c-0.046875-0.16797-0.23828-0.21484-0.3125-0.34766-0.070313-0.13281-0.023437-0.32422-0.13281-0.45703l-4.7539-5.9414c-0.12109-0.16797-0.33594-0.14453-0.49219-0.26562-0.14453-0.13281-0.16797-0.33594-0.33594-0.45703l-3.0859-1.7773 29.723-17.172 2.3164-0.20312v26.699zm18-47.82-29.508 17.027v-8.9883l31.523-18.203 0.003907 5.5703zm-29.496 1.1172v-9l8.6992-5.0039 0.85156-0.12109c0.10938-0.023438 0.15625-0.14453 0.25391-0.16797 0.27734-0.058594 0.57422-0.070312 0.82812-0.21484l20.879-12.07v8.3633zm8.1367-19.98-0.85156 0.12109c-0.21484 0.023437-0.30078 0.21484-0.49219 0.27734-0.20312 0.070312-0.39453-0.023438-0.58984 0.085937l-6.2148 3.5742v-6.9258c0.27734 0.085938 0.55078 0.22656 0.83984 0.22656 0 0 0 0.011719 0.011719 0.011719h0.011718c0.097656 0 0.16797-0.011719 0.25391-0.011719l4.8242-0.43359c0.097657-0.011719 0.14453-0.10938 0.23828-0.13281 0.32422-0.058594 0.68359-0.085938 0.98438-0.25391l24.348-14.062v4.0312zm3.3594-12.887 0.023437-3.4453c0-0.20312-0.19141-0.32422-0.22656-0.51562-0.035156-0.20312 0.085938-0.37109 0.011719-0.5625l-2.7227-7.1055c-0.046875-0.16797-0.23828-0.21484-0.32422-0.34766-0.070312-0.14453-0.023437-0.3125-0.12109-0.44531l-4.7539-5.9531c-0.12109-0.16797-0.32422-0.15625-0.49219-0.27734-0.14453-0.13281-0.16797-0.34766-0.33594-0.44531l-3.0859-1.7891 29.723-17.172 2.3164-0.20313v26.688zm18-47.844-29.508 17.039v-8.9766l31.523-18.215v5.5664zm-29.496 1.1406v-8.9883l8.6992-5.0156 0.82813-0.10938c0.10937-0.011719 0.15625-0.13281 0.26562-0.15625 0.27734-0.070313 0.57422-0.070313 0.83984-0.23828l20.879-12.07v8.3633zm8.1484-19.98-0.83984 0.10937c-0.21484 0.035157-0.32422 0.22656-0.51563 0.28906-0.20312 0.070313-0.39453-0.023437-0.58984 0.085937l-6.2148 3.5742v-6.9414c0.27734 0.097656 0.55078 0.23828 0.83984 0.23828h0.011719 0.011718c0.085938 0 0.16797 0 0.25391-0.011718l4.8125-0.40625c0.097657 0 0.14453-0.097657 0.23828-0.12109 0.33594-0.058594 0.69531-0.097656 1.0078-0.27734l24.348-14.051v4.0195zm3.3477-12.891 0.023437-3.4453c0-0.20312-0.19141-0.32422-0.22656-0.51562-0.035156-0.20312 0.085938-0.37109 0.011719-0.5625l-2.7227-7.1055c-0.046875-0.16797-0.23828-0.21484-0.32422-0.34766-0.070312-0.14453-0.023437-0.3125-0.12109-0.44531l-4.7539-5.9531c-0.12109-0.16797-0.33594-0.15625-0.49219-0.27734-0.14453-0.13281-0.16797-0.34766-0.34766-0.44531l-3.0859-1.7773 29.734-17.184 2.3164-0.21484v26.723zm18-47.832-29.508 17.051v-9.0117l31.523-18.191v5.5781zm-29.496 1.1172v-8.9766l8.6641-5.0156 0.80469-0.097656c0.12109-0.023437 0.16797-0.13281 0.25391-0.15625 0.30078-0.058594 0.625-0.085937 0.91016-0.25391l20.879-12.07v8.3633zm8.1758-19.992-0.81641 0.097657c-0.21484 0.035156-0.32422 0.23828-0.53906 0.30078-0.21484 0.058593-0.42188-0.023438-0.61328 0.097656l-6.2148 3.5898v-6.9375c0.27734 0.097656 0.55078 0.23828 0.83984 0.23828h0.011719 0.011718c0.085938 0 0.16797 0 0.25391-0.011719l4.8125-0.42188c0.097656-0.011718 0.14453-0.10938 0.22656-0.12109 0.34766-0.058593 0.70703-0.085937 1.0078-0.26562l24.348-14.039v4.0078zm3.3203-12.863 0.023437-3.4453c0-0.20313-0.19141-0.32422-0.22656-0.51563-0.035156-0.20312 0.085938-0.37109 0.011719-0.5625l-2.7227-7.1289c-0.046875-0.15625-0.23828-0.19141-0.3125-0.32422-0.085937-0.15625-0.035156-0.32422-0.13281-0.46875l-4.7539-5.9297c-0.12109-0.16797-0.33594-0.14453-0.49219-0.26562-0.14453-0.13281-0.16797-0.33594-0.33594-0.45703l-3.0977-1.7891 29.734-17.172 2.3164-0.21484v26.723zm18-47.809-29.508 17.039v-9l31.523-18.215v5.5781zm-29.496 1.1055v-9.0117l8.6992-4.9922 0.85156-0.12109c0.10938-0.023437 0.15625-0.14453 0.25391-0.16797 0.27734-0.058594 0.57422-0.070312 0.82812-0.21484l20.879-12.07v8.3633zm8.1367-19.98-0.85156 0.12109c-0.21484 0.023438-0.30078 0.21484-0.49219 0.27734-0.19141 0.058594-0.39453-0.023438-0.58984 0.085937l-6.2148 3.5742v-6.9258c0.27734 0.085937 0.55078 0.22656 0.83984 0.22656 0 0 0 0.011719 0.011719 0.011719h0.011718c0.097656 0 0.16797-0.011719 0.25391-0.011719l4.8242-0.43359c0.097657-0.011719 0.14453-0.10938 0.23828-0.13281 0.32422-0.058594 0.68359-0.085937 0.98438-0.25391l24.348-14.062v4.0312zm3.3594-12.887 0.023437-3.4336c0-0.20312-0.19141-0.33594-0.22656-0.52734-0.035156-0.19141 0.085938-0.37109 0.011719-0.5625l-2.7227-7.1172c-0.046875-0.15625-0.23828-0.20312-0.3125-0.33594-0.085937-0.14453-0.035156-0.32422-0.13281-0.46875l-4.7539-5.9414c-0.12109-0.15625-0.33594-0.14453-0.49219-0.26562-0.14453-0.13281-0.16797-0.34766-0.33594-0.45703l-3.0859-1.7891 29.723-17.172 2.3164-0.20312v26.699zm18-47.832-29.508 17.039v-9l31.523-18.203v5.5664zm-29.496 1.1367v-9l8.6992-5.0039 0.85156-0.12109c0.10938-0.011719 0.15625-0.13281 0.25391-0.15625 0.27734-0.058594 0.57422-0.070313 0.82812-0.22656l20.879-12.059v8.3633zm8.1367-19.992-0.85156 0.12109c-0.21484 0.023438-0.30078 0.22656-0.49219 0.28906-0.20312 0.058594-0.39453-0.023438-0.58984 0.070312l-6.2148 3.5742v-6.9492c0.27734 0.085938 0.55078 0.22656 0.83984 0.22656h0.011719 0.011718c0.085938 0 0.16797 0 0.25391-0.011719l4.8125-0.42188c0.097657-0.011719 0.14453-0.10938 0.23828-0.12109 0.33594-0.058593 0.69531-0.085937 0.99609-0.26562l24.348-14.051v4.0195zm3.3594-12.887 0.023437-3.4336c0-0.20312-0.19141-0.33594-0.22656-0.52734-0.035156-0.19141 0.085938-0.37109 0.011719-0.5625l-2.7227-7.1172c-0.046875-0.15625-0.23828-0.20312-0.32422-0.33594-0.070312-0.14453-0.023437-0.32422-0.12109-0.45703l-4.7539-5.9531c-0.12109-0.15625-0.33594-0.14453-0.49219-0.27734-0.14453-0.13281-0.16797-0.34766-0.34766-0.45703l-3.0703-1.7656 22.609-13.066 9.4336 5.4492v16.957zm-11.496-30.793v-9l6.0117-3.4688 7.7656 4.4883zm23.594-9.2148-2.125-1.2344h-0.011719l-0.16797-0.10938h-0.023437v-0.011718l-13.766-7.9453s0-0.011719-0.011719-0.011719l-9-5.1953h-0.023437l-22.934-13.246s0-0.011719-0.011719-0.011719l-13.777-7.957-21.613-12.492h-0.011719-0.011719l-2.0625-1.1875-0.21484-0.12109h-0.011719s0-0.011719-0.011719-0.011719l-13.754-7.957-9.0234-5.207-22.953-13.25-13.777-7.957v-0.011718l-21.625-12.469h-0.011719l-2.0898-1.2227h-0.023437c-0.011719 0-0.011719-0.011719-0.011719-0.011719l-0.15625-0.085937-13.789-7.9453-8.9883-5.207-22.969-13.246h-0.011718l-13.766-7.9688-21.613-12.48h-0.011719s0-0.011719-0.011718-0.011719l-1.9805-1.1172-0.023437-0.023437h-0.011719l-0.10938-0.058594c-0.023438-0.011719-0.046875 0-0.070313-0.011719-0.035156-0.023437-0.035156-0.085937-0.085937-0.10937l-13.777-7.9453h-0.011719l-8.9883-5.1953v-0.011718l-23.008-13.27-13.754-7.9805-21.625-12.457-2.1133-1.2227h-0.023438s0-0.011718-0.011718-0.011718l-0.19141-0.10938-13.754-7.9453v-0.011719l-9.0117-5.1953h-0.011718l-22.945-13.246-13.777-7.957v-0.011719l-21.625-12.469-2.1133-1.2227h-0.011718l-53.629-30.961v-9l480.96 277.68v9zm-476.04-290.77-7.8008-4.5 209.93-121.18 7.7773 4.4883zm-3 5.1992v661.47l-7.8008-4.4844v-661.48z"/>
</svg>
