<?xml version="1.0" encoding="UTF-8"?>
<svg width="1200pt" height="1200pt" version="1.1" viewBox="0 0 1200 1200" xmlns="http://www.w3.org/2000/svg">
 <path d="m722.59 9.5234c33.738 0 61.07 27.355 61.07 61.094 0 16.855-6.832 32.117-17.883 43.191-11.047 11.047-26.309 17.883-43.191 17.883h-245.18c-33.738 0-61.07-27.355-61.07-61.07 0-16.855 6.832-32.145 17.883-43.191 11.043-11.074 26.305-17.906 43.188-17.906z"/>
 <path d="m395.93 954.07c-6.5234 1.4766-13.332 2.2617-20.309 2.2617h-0.21484c-6.9766 0-13.785-0.78516-20.309-2.2617-40.855-9.2383-71.383-45.738-71.43-89.383h183.69c-0.050781 43.645-30.574 80.145-71.43 89.383z"/>
 <path d="m1028.6 1200h-857.14c-5.2578 0-9.5234-4.2656-9.5234-9.5234v-1181c0-5.2578 4.2656-9.5234 9.5234-9.5234h305.98v19.047h-296.45v1161.9h838.09v-1161.9h-296.45v-19.047h305.98c5.2578 0 9.5234 4.2656 9.5234 9.5234v1181c0 5.2578-4.2617 9.5234-9.5234 9.5234z"/>
 <path d="m538.79 1098.2h-306.14c-5.2578 0-9.5234-4.2656-9.5234-9.5234l-0.003906-895.88c0-5.2578 4.2656-9.5234 9.5234-9.5234h306.14c5.2578 0 9.5234 4.2656 9.5234 9.5234v895.88c0 5.2578-4.2617 9.5234-9.5234 9.5234zm-296.62-19.047h287.09v-876.84h-287.09z"/>
 <path d="m722.59 141.21h-245.19c-38.926 0-70.594-31.668-70.594-70.594 0-18.863 7.3398-36.594 20.672-49.922 13.309-13.348 31.043-20.699 49.922-20.699h245.19c38.926 0 70.594 31.68 70.594 70.617 0 18.836-7.3398 36.562-20.66 49.918-13.34 13.34-31.07 20.68-49.938 20.68zm-245.19-122.17c-13.785 0-26.73 5.3633-36.449 15.105-9.7422 9.7422-15.102 22.688-15.102 36.465 0 28.422 23.125 51.547 51.547 51.547h245.19c13.777 0 26.723-5.3594 36.457-15.09 9.7305-9.7539 15.09-22.699 15.09-36.457 0.003906-28.434-23.121-51.57-51.547-51.57z"/>
 <path d="m446.93 365.19h-122.43c-5.2578 0-9.5234-4.2656-9.5234-9.5234 0-5.2578 4.2656-9.5234 9.5234-9.5234h122.43c5.2578 0 9.5234 4.2656 9.5234 9.5234 0 5.2578-4.2656 9.5234-9.5234 9.5234z"/>
 <path d="m477.55 548.43h-183.66c-5.2578 0-9.5234-4.2656-9.5234-9.5234s4.2656-9.5234 9.5234-9.5234h183.67c5.2578 0 9.5234 4.2656 9.5234 9.5234s-4.2656 9.5234-9.5273 9.5234z"/>
 <path d="m487.76 456.81h-204.09c-5.2578 0-9.5234-4.2656-9.5234-9.5234 0-5.2578 4.2656-9.5234 9.5234-9.5234h204.1c5.2578 0 9.5234 4.2656 9.5234 9.5234 0 5.2617-4.2695 9.5234-9.5273 9.5234z"/>
 <path d="m936.74 232.83h-306.12c-5.2578 0-9.5234-4.2656-9.5234-9.5234 0-5.2578 4.2656-9.5234 9.5234-9.5234h306.12c5.2578 0 9.5234 4.2656 9.5234 9.5234 0 5.2617-4.2656 9.5234-9.5234 9.5234z"/>
 <path d="m967.36 324.48h-132.67c-5.2578 0-9.5234-4.2656-9.5234-9.5234s4.2656-9.5234 9.5234-9.5234h132.67c5.2578 0 9.5234 4.2656 9.5234 9.5234 0.003906 5.2578-4.2617 9.5234-9.5234 9.5234z"/>
 <path d="m732.64 324.48h-132.64c-5.2578 0-9.5234-4.2656-9.5234-9.5234s4.2656-9.5234 9.5234-9.5234h132.64c5.2578 0 9.5234 4.2656 9.5234 9.5234s-4.2656 9.5234-9.5234 9.5234z"/>
 <path d="m967.36 385.55h-132.67c-5.2578 0-9.5234-4.2656-9.5234-9.5234 0-5.2578 4.2656-9.5234 9.5234-9.5234h132.67c5.2578 0 9.5234 4.2656 9.5234 9.5234 0.003906 5.2617-4.2617 9.5234-9.5234 9.5234z"/>
 <path d="m732.64 385.55h-132.64c-5.2578 0-9.5234-4.2656-9.5234-9.5234 0-5.2578 4.2656-9.5234 9.5234-9.5234h132.64c5.2578 0 9.5234 4.2656 9.5234 9.5234 0 5.2617-4.2656 9.5234-9.5234 9.5234z"/>
 <path d="m967.36 446.64h-132.67c-5.2578 0-9.5234-4.2656-9.5234-9.5234 0-5.2578 4.2656-9.5234 9.5234-9.5234h132.67c5.2578 0 9.5234 4.2656 9.5234 9.5234 0.003906 5.2578-4.2617 9.5234-9.5234 9.5234z"/>
 <path d="m732.64 446.64h-132.64c-5.2578 0-9.5234-4.2656-9.5234-9.5234 0-5.2578 4.2656-9.5234 9.5234-9.5234h132.64c5.2578 0 9.5234 4.2656 9.5234 9.5234 0 5.2578-4.2656 9.5234-9.5234 9.5234z"/>
 <path d="m967.36 507.71h-132.67c-5.2578 0-9.5234-4.2656-9.5234-9.5234 0-5.2578 4.2656-9.5234 9.5234-9.5234h132.67c5.2578 0 9.5234 4.2656 9.5234 9.5234 0.003906 5.2578-4.2617 9.5234-9.5234 9.5234z"/>
 <path d="m732.64 507.71h-132.64c-5.2578 0-9.5234-4.2656-9.5234-9.5234 0-5.2578 4.2656-9.5234 9.5234-9.5234h132.64c5.2578 0 9.5234 4.2656 9.5234 9.5234 0 5.2578-4.2656 9.5234-9.5234 9.5234z"/>
 <path d="m967.36 568.81h-132.67c-5.2578 0-9.5234-4.2656-9.5234-9.5234 0-5.2578 4.2656-9.5234 9.5234-9.5234h132.67c5.2578 0 9.5234 4.2656 9.5234 9.5234 0.003906 5.2617-4.2617 9.5234-9.5234 9.5234z"/>
 <path d="m732.64 568.81h-132.64c-5.2578 0-9.5234-4.2656-9.5234-9.5234 0-5.2578 4.2656-9.5234 9.5234-9.5234h132.64c5.2578 0 9.5234 4.2656 9.5234 9.5234 0 5.2617-4.2656 9.5234-9.5234 9.5234z"/>
 <path d="m967.36 629.88h-132.67c-5.2578 0-9.5234-4.2656-9.5234-9.5234s4.2656-9.5234 9.5234-9.5234h132.67c5.2578 0 9.5234 4.2656 9.5234 9.5234 0.003906 5.2578-4.2617 9.5234-9.5234 9.5234z"/>
 <path d="m732.64 629.88h-132.64c-5.2578 0-9.5234-4.2656-9.5234-9.5234s4.2656-9.5234 9.5234-9.5234h132.64c5.2578 0 9.5234 4.2656 9.5234 9.5234s-4.2656 9.5234-9.5234 9.5234z"/>
 <path d="m936.74 711.33h-306.12c-5.2578 0-9.5234-4.2656-9.5234-9.5234 0-5.2578 4.2656-9.5234 9.5234-9.5234h306.12c5.2578 0 9.5234 4.2656 9.5234 9.5234 0 5.2617-4.2656 9.5234-9.5234 9.5234z"/>
 <path d="m967.36 802.95h-132.67c-5.2578 0-9.5234-4.2656-9.5234-9.5234 0-5.2578 4.2656-9.5234 9.5234-9.5234h132.67c5.2578 0 9.5234 4.2656 9.5234 9.5234 0.003906 5.2578-4.2617 9.5234-9.5234 9.5234z"/>
 <path d="m732.64 802.95h-132.64c-5.2578 0-9.5234-4.2656-9.5234-9.5234 0-5.2578 4.2656-9.5234 9.5234-9.5234h132.64c5.2578 0 9.5234 4.2656 9.5234 9.5234 0 5.2578-4.2656 9.5234-9.5234 9.5234z"/>
 <path d="m967.36 864.05h-132.67c-5.2578 0-9.5234-4.2656-9.5234-9.5234 0-5.2578 4.2656-9.5234 9.5234-9.5234h132.67c5.2578 0 9.5234 4.2656 9.5234 9.5234 0.003906 5.2617-4.2617 9.5234-9.5234 9.5234z"/>
 <path d="m732.64 864.05h-132.64c-5.2578 0-9.5234-4.2656-9.5234-9.5234 0-5.2578 4.2656-9.5234 9.5234-9.5234h132.64c5.2578 0 9.5234 4.2656 9.5234 9.5234 0 5.2617-4.2656 9.5234-9.5234 9.5234z"/>
 <path d="m967.36 925.12h-132.67c-5.2578 0-9.5234-4.2656-9.5234-9.5234s4.2656-9.5234 9.5234-9.5234h132.67c5.2578 0 9.5234 4.2656 9.5234 9.5234 0.003906 5.2617-4.2617 9.5234-9.5234 9.5234z"/>
 <path d="m732.64 925.12h-132.64c-5.2578 0-9.5234-4.2656-9.5234-9.5234s4.2656-9.5234 9.5234-9.5234h132.64c5.2578 0 9.5234 4.2656 9.5234 9.5234 0 5.2617-4.2656 9.5234-9.5234 9.5234z"/>
 <path d="m967.36 986.21h-132.67c-5.2578 0-9.5234-4.2656-9.5234-9.5234 0-5.2578 4.2656-9.5234 9.5234-9.5234h132.67c5.2578 0 9.5234 4.2656 9.5234 9.5234 0.003906 5.2578-4.2617 9.5234-9.5234 9.5234z"/>
 <path d="m732.64 986.21h-132.64c-5.2578 0-9.5234-4.2656-9.5234-9.5234 0-5.2578 4.2656-9.5234 9.5234-9.5234h132.64c5.2578 0 9.5234 4.2656 9.5234 9.5234 0 5.2578-4.2656 9.5234-9.5234 9.5234z"/>
 <path d="m405.45 1088.7h-19.047v-134.6l19.047-0.023437z"/>
 <path d="m364.62 1088.7h-19.047v-134.6l19.047-0.023437z"/>
 <path d="m375.62 965.86c-7.7656 0-15.305-0.83984-22.625-2.4961-46.375-10.484-78.797-51.055-78.852-98.66l0.003906-91.629c0-5.2578 4.2656-9.5234 9.5234-9.5234h183.69c5.2578 0 9.5234 4.2656 9.5234 9.5234v91.523c-0.050781 47.711-32.48 88.281-78.852 98.766-7.3242 1.6562-14.863 2.4961-22.414 2.4961zm-82.426-183.26v82c0.046875 38.738 26.363 71.676 64.004 80.188 12.105 2.7383 24.945 2.6445 36.633 0h0.003906c37.645-8.5117 63.961-41.449 64.004-80.102v-82.086z"/>
 <path d="m283.67 855.17h183.69v19.047h-183.69z"/>
</svg>
