<?xml version="1.0" encoding="UTF-8"?>
<svg width="1200pt" height="1200pt" version="1.1" viewBox="0 0 1200 1200" xmlns="http://www.w3.org/2000/svg">
 <path d="m981.98 170.26c15.516 0 28.125-12.609 28.125-28.125v-33.75c0-15.516-12.609-28.125-28.125-28.125-15.562 0-28.125 12.609-28.125 28.125v33.75c0 15.516 12.562 28.125 28.125 28.125z"/>
 <path d="m981.98 215.26c-15.562 0-28.125 12.609-28.125 28.125v33.75c0 15.516 12.562 28.125 28.125 28.125 15.516 0 28.125-12.609 28.125-28.125v-33.75c0-15.516-12.609-28.125-28.125-28.125z"/>
 <path d="m897.61 220.87h33.75c15.516 0 28.125-12.609 28.125-28.125s-12.609-28.125-28.125-28.125h-33.75c-15.562 0-28.125 12.609-28.125 28.125s12.562 28.125 28.125 28.125z"/>
 <path d="m1032.6 220.87h33.75c15.516 0 28.125-12.609 28.125-28.125s-12.609-28.125-28.125-28.125h-33.75c-15.562 0-28.125 12.609-28.125 28.125s12.562 28.125 28.125 28.125z"/>
 <path d="m344.48 301.5c15.516 0 28.125-12.609 28.125-28.125v-33.75c0-15.516-12.609-28.125-28.125-28.125-15.562 0-28.125 12.609-28.125 28.125v33.75c0 15.516 12.562 28.125 28.125 28.125z"/>
 <path d="m344.48 346.5c-15.562 0-28.125 12.609-28.125 28.125v33.75c0 15.516 12.562 28.125 28.125 28.125 15.516 0 28.125-12.609 28.125-28.125v-33.75c0-15.516-12.609-28.125-28.125-28.125z"/>
 <path d="m260.11 352.13h33.75c15.516 0 28.125-12.609 28.125-28.125s-12.609-28.125-28.125-28.125h-33.75c-15.562 0-28.125 12.609-28.125 28.125s12.562 28.125 28.125 28.125z"/>
 <path d="m428.86 352.13c15.516 0 28.125-12.609 28.125-28.125s-12.609-28.125-28.125-28.125h-33.75c-15.562 0-28.125 12.609-28.125 28.125s12.562 28.125 28.125 28.125z"/>
 <path d="m684.37 357.19v-124.55c11.203-3.9375 18.703-14.531 18.75-26.391v-112.5c0-15.516-12.609-28.125-28.125-28.125h-150c-15.516 0-28.125 12.609-28.125 28.125v112.5c0.046875 11.859 7.5469 22.453 18.75 26.391v124.55c0.14062 51.984-20.531 101.91-57.375 138.56-47.484 47.156-74.062 111.38-73.875 178.31v375.94c0.046875 46.594 37.781 84.328 84.375 84.375h262.5c46.594-0.046875 84.328-37.781 84.375-84.375v-375.94c0.1875-66.938-26.391-131.16-73.875-178.31-36.844-36.656-57.516-86.578-57.375-138.56zm-112.5-122.81h56.25v122.81c-0.046875 54.891 17.953 108.23 51.234 151.87-47.578 33.656-111.14 33.656-158.72 0 33.281-43.641 51.281-96.984 51.234-151.87zm-18.75-112.5h93.75v56.25h-93.75zm178.13 956.26h-262.5c-15.516 0-28.125-12.609-28.125-28.125v-9.375h318.74v9.375c0 15.516-12.609 28.125-28.125 28.125zm28.125-93.75h-318.74v-310.31c-0.09375-44.531 15.141-87.797 43.125-122.44 33.516 25.312 74.344 39 116.34 39 41.953 0 82.828-13.688 116.3-39 27.984 34.641 43.219 77.906 43.125 122.44z"/>
 <path d="m318.74 496.87h-225c-15.516 0-28.125 12.609-28.125 28.125v243.74c0.09375 66.797 47.062 124.36 112.5 137.81v87.188c-0.046876 46.594-37.781 84.328-84.375 84.375-15.516 0-28.125 12.609-28.125 28.125s12.609 28.125 28.125 28.125h225c15.516 0 28.125-12.609 28.125-28.125s-12.609-28.125-28.125-28.125c-46.594-0.046875-84.328-37.781-84.375-84.375v-87.188c65.438-13.453 112.41-71.016 112.5-137.81v-243.74c0-15.516-12.609-28.125-28.125-28.125zm-28.125 56.25v37.5h-168.74v-37.5zm-84.375 300c-46.594-0.046875-84.328-37.781-84.375-84.375v-121.87h168.74v121.87c-0.046875 46.594-37.781 84.328-84.375 84.375z"/>
 <path d="m1106.3 496.87h-225c-15.516 0-28.125 12.609-28.125 28.125v243.74c0.09375 66.797 47.062 124.36 112.5 137.81v87.188c-0.046874 46.594-37.781 84.328-84.375 84.375-15.516 0-28.125 12.609-28.125 28.125s12.609 28.125 28.125 28.125h225c15.516 0 28.125-12.609 28.125-28.125s-12.609-28.125-28.125-28.125c-46.594-0.046875-84.328-37.781-84.375-84.375v-87.188c65.438-13.453 112.41-71.016 112.5-137.81v-243.74c0-15.516-12.609-28.125-28.125-28.125zm-28.125 56.25v37.5h-168.74v-37.5zm-84.094 525h-0.28125l0.14063-0.23438zm-0.28125-225c-46.594-0.046875-84.328-37.781-84.375-84.375v-121.87h168.74v121.87c-0.046875 46.594-37.781 84.328-84.375 84.375z"/>
 <path d="m637.5 684.37h-75c-56.953 0-103.12 46.172-103.12 103.12s46.172 103.12 103.12 103.12h75c56.953 0 103.12-46.172 103.12-103.12s-46.172-103.12-103.12-103.12zm0 150h-75c-25.875 0-46.875-21-46.875-46.875s21-46.875 46.875-46.875h75c25.875 0 46.875 21 46.875 46.875s-21 46.875-46.875 46.875z"/>
</svg>
